<svg width="84" height="64" viewBox="0 0 84 64" fill="none" xmlns="http://www.w3.org/2000/svg">
<g opacity="0.6">
<path d="M20.0311 0.919922C19.5208 0.980626 19.0224 1.18702 18.6071 1.50267L1.89868 13.5462C1.80375 13.6069 1.70882 13.6676 1.61388 13.7404C1.51895 13.8011 1.42401 13.8618 1.32908 13.9347C1.26975 13.959 1.19854 13.9954 1.13921 14.0318C1.10361 14.0682 1.07988 14.0925 1.04428 14.1289C0.984943 14.1532 0.913742 14.1896 0.854408 14.226C0.854408 14.2625 0.854408 14.2868 0.854408 14.3232C0.783207 14.3839 0.723874 14.4446 0.664539 14.5174C0.664539 14.5538 0.664539 14.5781 0.664539 14.6145C0.605206 14.6388 0.534006 14.6753 0.474671 14.7117C0.474671 14.7481 0.474671 14.7724 0.474671 14.8088C0.439071 14.8695 0.40347 14.9423 0.379737 15.003C0.379737 15.0395 0.379737 15.0638 0.379737 15.1002C0.154269 15.513 0.0237335 15.9864 0 16.4599V59.9719C0 61.6838 1.36468 63.0799 3.03789 63.0799H48.6063C48.6419 63.0799 48.6656 63.0799 48.7012 63.0799C48.8911 63.0678 49.081 63.0314 49.2708 62.9828C49.3658 62.9585 49.4607 62.9221 49.5556 62.8857C50.3151 62.655 50.9678 62.133 51.3594 61.4288L63.1312 46.3744C63.5584 45.8281 63.7958 45.1361 63.7958 44.4319V4.61067C63.9738 3.56658 63.6059 2.51034 62.8464 1.79405C62.8227 1.73334 62.7871 1.6605 62.7515 1.5998C62.7159 1.5998 62.6922 1.5998 62.6566 1.5998C62.5972 1.52695 62.5379 1.46625 62.4667 1.40555C62.4311 1.40555 62.4074 1.40555 62.3718 1.40555C62.2175 1.29628 62.0632 1.19916 61.8971 1.11417C61.6242 1.00491 61.3394 0.944203 61.0427 0.919922C60.9478 0.919922 60.8528 0.919922 60.7579 0.919922H20.3159C20.221 0.919922 20.126 0.919922 20.0311 0.919922ZM21.2653 7.13592H32.4675L25.2525 13.3519H12.6262L21.2653 7.13592ZM40.0622 7.13592H53.353L47.2772 13.3519H32.9422L40.0622 7.13592ZM6.07579 19.5679H45.5684V56.8639H6.07579V19.5679ZM17.373 22.6759C15.6997 22.9187 14.5249 24.5092 14.7623 26.221C14.9996 27.9328 16.5541 29.1347 18.2274 28.8919H33.4168C34.5086 28.9041 35.5291 28.3213 36.0869 27.3501C36.6327 26.3788 36.6327 25.189 36.0869 24.2178C35.5291 23.2465 34.5086 22.6638 33.4168 22.6759H18.2274C18.1324 22.6759 18.0375 22.6759 17.9426 22.6759C17.8476 22.6759 17.7527 22.6759 17.6578 22.6759C17.5628 22.6759 17.4679 22.6759 17.373 22.6759Z" fill="#1D2338"/>
<circle cx="68.46" cy="45.0205" r="15.54" fill="#E3ECEB"/>
<path d="M65.73 43.1292V36.1992H70.35V43.1292H77.28V47.7492H70.35V54.6792H65.73V47.7492H58.8V43.1292H65.73Z" fill="#1D2338"/>
</g>
</svg>
