<svg width="19" height="21" viewBox="0 0 19 21" fill="none" xmlns="http://www.w3.org/2000/svg">
<path fill-rule="evenodd" clip-rule="evenodd" d="M9.8572 0.143311C8.19014 0.143311 6.59137 0.805545 5.41258 1.98433C4.23379 3.16312 3.57156 4.76189 3.57156 6.42895C3.57156 9.57366 2.89866 11.5429 2.26594 12.7029C1.94859 13.2847 1.63746 13.6702 1.41689 13.903C1.30642 14.0196 1.21818 14.0984 1.16259 14.1448C1.13479 14.1679 1.11513 14.183 1.10492 14.1906L1.09734 14.1961C0.840096 14.3718 0.72609 14.6943 0.816532 14.993C0.907745 15.2942 1.18541 15.5003 1.50017 15.5003H18.2142C18.529 15.5003 18.8066 15.2942 18.8979 14.993C18.9883 14.6943 18.8743 14.3717 18.617 14.1961L18.6095 14.1906C18.5993 14.183 18.5796 14.1679 18.5518 14.1448C18.4962 14.0984 18.408 14.0196 18.2975 13.903C18.0769 13.6702 17.7658 13.2847 17.4485 12.7029C16.8157 11.5429 16.1428 9.57366 16.1428 6.42895C16.1428 4.76189 15.4806 3.16312 14.3018 1.98433C13.123 0.805545 11.5243 0.143311 9.8572 0.143311ZM16.1943 13.387C16.334 13.643 16.4744 13.8705 16.6113 14.0717H3.10312C3.23995 13.8705 3.38044 13.643 3.52008 13.387C4.28019 11.9934 5.00013 9.78415 5.00013 6.42895C5.00013 5.14077 5.51186 3.90536 6.42273 2.99448C7.33361 2.08361 8.56902 1.57188 9.8572 1.57188C11.1454 1.57188 12.3808 2.08361 13.2917 2.99448C14.2025 3.90536 14.7143 5.14077 14.7143 6.42895C14.7143 9.78415 15.4342 11.9934 16.1943 13.387ZM8.86869 18.1418C8.67075 17.8006 8.23366 17.6844 7.89242 17.8824C7.55119 18.0803 7.43503 18.5174 7.63297 18.8587C7.85901 19.2483 8.18346 19.5718 8.57382 19.7966C8.96418 20.0215 9.40675 20.1398 9.85724 20.1398C10.3077 20.1398 10.7503 20.0215 11.1407 19.7966C11.531 19.5718 11.8555 19.2483 12.0815 18.8587C12.2794 18.5174 12.1633 18.0803 11.8221 17.8824C11.4808 17.6844 11.0437 17.8006 10.8458 18.1418C10.7453 18.315 10.6011 18.4588 10.4276 18.5587C10.2541 18.6586 10.0575 18.7112 9.85724 18.7112C9.65702 18.7112 9.46033 18.6586 9.28683 18.5587C9.11334 18.4588 8.96915 18.315 8.86869 18.1418Z" fill="white"/>
</svg>
