<svg width="459" height="305" viewBox="0 0 459 305" fill="none" xmlns="http://www.w3.org/2000/svg">
<path opacity="0.1" fill-rule="evenodd" clip-rule="evenodd" d="M36.328 269.551C56.3583 246.783 71.3446 223.15 80.8551 199.229C33.8785 190.295 0.158203 148.649 0.158203 101.096C0.158203 72.564 12.2632 45.1843 33.4458 26.0185C54.6292 6.99685 83.1611 -2.36922 111.837 0.512968C163.57 5.84475 203.342 52.5337 202.334 106.86C199.596 247.792 100.597 291.743 58.2318 304.135C56.2142 304.857 54.1965 305 52.1789 305C44.9738 305 38.3457 301.542 34.3104 295.201C29.1229 287.131 29.9875 276.757 36.328 269.551ZM290.113 26.0185C311.295 6.99685 339.827 -2.36922 368.36 0.512968C419.66 5.84474 459 51.3806 459 104.843V106.859C456.262 247.792 357.264 291.743 314.898 304.135C312.88 304.856 310.863 305 308.846 305C301.641 305 295.012 301.541 290.977 295.201C285.789 287.131 286.654 276.756 292.994 269.551C313.025 246.783 328.011 223.15 337.522 199.229C290.545 190.295 256.824 148.649 256.824 101.096C256.824 72.564 268.929 45.1843 290.113 26.0185Z" fill="white"/>
</svg>
