<svg width="13" height="25" viewBox="0 0 13 25" fill="none" xmlns="http://www.w3.org/2000/svg">
<path d="M8.02017 24.125H4.37578C3.76705 24.125 3.27187 23.6191 3.27187 22.9972V14.5992H1.14566C0.536927 14.5992 0.041748 14.0931 0.041748 13.4714V9.87277C0.041748 9.25087 0.536927 8.74497 1.14566 8.74497H3.27187V6.94293C3.27187 5.15615 3.82105 3.63597 4.85984 2.54702C5.90333 1.45309 7.36161 0.875 9.07702 0.875L11.8564 0.879612C12.4641 0.880676 12.9584 1.38657 12.9584 2.00742V5.34861C12.9584 5.97052 12.4634 6.47641 11.8549 6.47641L9.98352 6.47712C9.41282 6.47712 9.26749 6.59402 9.23641 6.62985C9.18519 6.68927 9.12425 6.85726 9.12425 7.32111V8.74479H11.7142C11.9092 8.74479 12.0981 8.79393 12.2604 8.88652C12.6106 9.08643 12.8284 9.46444 12.8284 9.87295L12.827 13.4715C12.827 14.0931 12.3318 14.599 11.7231 14.599H9.12425V22.9972C9.12425 23.6191 8.6289 24.125 8.02017 24.125ZM4.606 22.762H7.78994V13.989C7.78994 13.5737 8.1207 13.236 8.52698 13.236H11.4928L11.4941 10.108H8.52681C8.12052 10.108 7.78994 9.77025 7.78994 9.35499V7.32111C7.78994 6.78861 7.8429 6.18302 8.23633 5.72786C8.71172 5.17761 9.46091 5.11411 9.98317 5.11411L11.6243 5.1134V2.24227L9.07598 2.23801C6.31916 2.23801 4.606 4.04094 4.606 6.94293V9.35499C4.606 9.77007 4.27542 10.108 3.86914 10.108H1.37588V13.236H3.86914C4.27542 13.236 4.606 13.5737 4.606 13.989V22.762ZM11.8538 2.24263H11.854H11.8538Z" fill="white"/>
</svg>
