<svg width="17" height="29" viewBox="0 0 17 29" fill="none" xmlns="http://www.w3.org/2000/svg">
<path d="M9.9455 28.5127H5.40259C4.64377 28.5127 4.02651 27.8996 4.02651 27.1459V16.9681H1.37608C0.617265 16.9681 0 16.3548 0 15.6013V11.2401C0 10.4864 0.617265 9.87325 1.37608 9.87325H4.02651V7.68932C4.02651 5.52388 4.71109 3.68154 6.006 2.36181C7.30676 1.03605 9.12458 0.335449 11.2629 0.335449L14.7276 0.341039C15.4851 0.342328 16.1013 0.955438 16.1013 1.70785V5.75712C16.1013 6.51083 15.4842 7.12394 14.7256 7.12394L12.3929 7.1248C11.6815 7.1248 11.5004 7.26647 11.4616 7.30989C11.3978 7.38191 11.3218 7.58549 11.3218 8.14765V9.87304H14.5503C14.7934 9.87304 15.0289 9.93259 15.2312 10.0448C15.6678 10.2871 15.9392 10.7452 15.9392 11.2403L15.9374 15.6015C15.9374 16.3548 15.3202 16.9679 14.5614 16.9679H11.3218V27.1459C11.3218 27.8996 10.7043 28.5127 9.9455 28.5127ZM5.68958 26.8608H9.65851V16.2286C9.65851 15.7253 10.0708 15.316 10.5773 15.316H14.2744L14.2759 11.5251H10.5771C10.0706 11.5251 9.65851 11.1158 9.65851 10.6126V8.14765C9.65851 7.50229 9.72453 6.76837 10.215 6.21674C10.8076 5.54989 11.7415 5.47293 12.3925 5.47293L14.4382 5.47207V1.99248L11.2616 1.98732C7.82512 1.98732 5.68958 4.17233 5.68958 7.68932V10.6126C5.68958 11.1156 5.27749 11.5251 4.77104 11.5251H1.66307V15.316H4.77104C5.27749 15.316 5.68958 15.7253 5.68958 16.2286V26.8608ZM14.7243 1.99291H14.7245H14.7243Z" fill="#25B4B6"/>
</svg>
