<svg width="20" height="18" viewBox="0 0 20 18" fill="none" xmlns="http://www.w3.org/2000/svg">
<path d="M10 16.9759C10.2612 16.829 10.6343 16.6115 11.0821 16.3288C11.9924 15.7544 13.2021 14.9168 14.4075 13.8626C16.8606 11.7173 19.1 8.84769 19.1 5.60377C19.1 3.13315 17.0515 0.900048 14.6552 0.9L10 16.9759ZM10 16.9759C9.73875 16.829 9.3657 16.6115 8.91785 16.3288C8.00763 15.7544 6.79792 14.9168 5.59247 13.8626C3.13938 11.7173 0.9 8.84769 0.9 5.60377C0.9 3.13315 2.94853 0.900048 5.34475 0.9L10 16.9759ZM10 4.49921L9.21827 3.12897C8.43533 1.75661 6.95624 0.900166 5.34483 0.9L10 4.49921ZM10 4.49921L10.7817 3.12897M10 4.49921L10.7817 3.12897M10.7817 3.12897C11.5647 1.75661 13.0438 0.900166 14.6552 0.9L10.7817 3.12897Z" stroke="#1D2338" stroke-width="1.8"/>
</svg>
