<svg width="243" height="56" viewBox="0 0 243 56" fill="none" xmlns="http://www.w3.org/2000/svg">
<path d="M88.2491 18.8081C88.2491 17.8338 87.9044 17.0889 87.215 16.5731C86.5256 16.0459 85.2847 15.4957 83.4922 14.9227C81.6998 14.3381 80.2808 13.7651 79.2352 13.2035C76.3856 11.6676 74.9609 9.59887 74.9609 6.99715C74.9609 5.64471 75.34 4.44127 76.0984 3.38682C76.8682 2.32092 77.9655 1.48997 79.3903 0.893984C80.8265 0.297995 82.4351 0 84.2161 0C86.0085 0 87.6056 0.326648 89.0074 0.979944C90.4092 1.62178 91.495 2.53296 92.2648 3.71347C93.0462 4.89399 93.4368 6.23497 93.4368 7.7364H88.2663C88.2663 6.59027 87.9044 5.70201 87.1805 5.07164C86.4566 4.42981 85.4398 4.10889 84.1299 4.10889C82.866 4.10889 81.8836 4.37823 81.1827 4.91691C80.4818 5.44413 80.1314 6.14328 80.1314 7.01434C80.1314 7.82809 80.5393 8.51004 81.3551 9.06019C82.1823 9.61033 83.3945 10.1261 84.9917 10.6075C87.9331 11.49 90.076 12.5845 91.4203 13.8911C92.7646 15.1977 93.4368 16.8252 93.4368 18.7737C93.4368 20.9399 92.6153 22.6419 90.9722 23.8797C89.3291 25.1061 87.1173 25.7192 84.3367 25.7192C82.4064 25.7192 80.6484 25.3697 79.0628 24.6705C77.4772 23.9599 76.265 22.9914 75.4262 21.7651C74.5989 20.5387 74.1853 19.1175 74.1853 17.5015H79.373C79.373 20.2636 81.0276 21.6447 84.3367 21.6447C85.5662 21.6447 86.5256 21.3983 87.215 20.9055C87.9044 20.4012 88.2491 19.702 88.2491 18.8081Z" fill="white"/>
<path d="M116.497 18.1548L119.875 0.34384H125.029L119.462 25.3754H114.257L110.172 8.63039L106.087 25.3754H100.882L95.3154 0.34384H100.469L103.864 18.1204L108 0.34384H112.378L116.497 18.1548Z" fill="white"/>
<path d="M141.247 20.2178H132.181L130.458 25.3754H124.96L134.301 0.34384H139.092L148.485 25.3754H142.987L141.247 20.2178ZM133.577 16.0401H139.851L136.697 6.6705L133.577 16.0401Z" fill="white"/>
<path d="M156 16.5559V25.3754H150.829V0.34384H160.619C162.503 0.34384 164.158 0.68768 165.583 1.37536C167.019 2.06304 168.122 3.04298 168.892 4.31519C169.662 5.57594 170.046 7.01434 170.046 8.63039C170.046 11.0831 169.202 13.0201 167.513 14.4413C165.835 15.851 163.509 16.5559 160.533 16.5559H156ZM156 12.3782H160.619C161.986 12.3782 163.026 12.0573 163.738 11.4155C164.462 10.7737 164.824 9.85675 164.824 8.66477C164.824 7.43841 164.462 6.447 163.738 5.69055C163.015 4.9341 162.015 4.54442 160.74 4.5215H156V12.3782Z" fill="white"/>
<path d="M194.227 13.427C194.227 15.8911 193.791 18.0516 192.917 19.9083C192.044 21.7651 190.792 23.1977 189.16 24.2063C187.54 25.2149 185.679 25.7192 183.576 25.7192C181.496 25.7192 179.641 25.2207 178.009 24.2235C176.377 23.2264 175.114 21.8052 174.217 19.9599C173.321 18.1032 172.867 15.9714 172.856 13.5645V12.3267C172.856 9.86248 173.298 7.69629 174.183 5.82809C175.079 3.94843 176.337 2.51003 177.957 1.5129C179.589 0.504299 181.45 0 183.541 0C185.633 0 187.488 0.504299 189.108 1.5129C190.74 2.51003 191.998 3.94843 192.883 5.82809C193.779 7.69629 194.227 9.85675 194.227 12.3095V13.427ZM188.988 12.2923C188.988 9.66764 188.517 7.67336 187.574 6.30946C186.632 4.94557 185.288 4.26362 183.541 4.26362C181.806 4.26362 180.468 4.93984 179.526 6.29227C178.584 7.63325 178.107 9.6046 178.095 12.2063V13.427C178.095 15.9828 178.566 17.9656 179.508 19.3754C180.451 20.7851 181.806 21.49 183.576 21.49C185.311 21.49 186.644 20.8138 187.574 19.4613C188.505 18.0974 188.976 16.1146 188.988 13.5129V12.2923Z" fill="white"/>
<path d="M218.597 13.427C218.597 15.8911 218.161 18.0516 217.288 19.9083C216.414 21.7651 215.162 23.1977 213.53 24.2063C211.91 25.2149 210.049 25.7192 207.946 25.7192C205.867 25.7192 204.011 25.2207 202.379 24.2235C200.748 23.2264 199.484 21.8052 198.588 19.9599C197.691 18.1032 197.238 15.9714 197.226 13.5645V12.3267C197.226 9.86248 197.668 7.69629 198.553 5.82809C199.449 3.94843 200.708 2.51003 202.328 1.5129C203.959 0.504299 205.821 0 207.912 0C210.003 0 211.859 0.504299 213.479 1.5129C215.11 2.51003 216.368 3.94843 217.253 5.82809C218.149 7.69629 218.597 9.85675 218.597 12.3095V13.427ZM213.358 12.2923C213.358 9.66764 212.887 7.67336 211.945 6.30946C211.003 4.94557 209.658 4.26362 207.912 4.26362C206.177 4.26362 204.838 4.93984 203.896 6.29227C202.954 7.63325 202.477 9.6046 202.465 12.2063V13.427C202.465 15.9828 202.937 17.9656 203.879 19.3754C204.821 20.7851 206.177 21.49 207.946 21.49C209.681 21.49 211.014 20.8138 211.945 19.4613C212.875 18.0974 213.347 16.1146 213.358 13.5129V12.2923Z" fill="white"/>
<path d="M242.968 13.427C242.968 15.8911 242.531 18.0516 241.658 19.9083C240.785 21.7651 239.532 23.1977 237.901 24.2063C236.281 25.2149 234.419 25.7192 232.317 25.7192C230.237 25.7192 228.381 25.2207 226.75 24.2235C225.118 23.2264 223.854 21.8052 222.958 19.9599C222.062 18.1032 221.608 15.9714 221.596 13.5645V12.3267C221.596 9.86248 222.039 7.69629 222.923 5.82809C223.82 3.94843 225.078 2.51003 226.698 1.5129C228.33 0.504299 230.191 0 232.282 0C234.373 0 236.229 0.504299 237.849 1.5129C239.481 2.51003 240.739 3.94843 241.623 5.82809C242.52 7.69629 242.968 9.85675 242.968 12.3095V13.427ZM237.728 12.2923C237.728 9.66764 237.257 7.67336 236.315 6.30946C235.373 4.94557 234.029 4.26362 232.282 4.26362C230.547 4.26362 229.208 4.93984 228.266 6.29227C227.324 7.63325 226.847 9.6046 226.836 12.2063V13.427C226.836 15.9828 227.307 17.9656 228.249 19.3754C229.191 20.7851 230.547 21.49 232.317 21.49C234.052 21.49 235.384 20.8138 236.315 19.4613C237.246 18.0974 237.717 16.1146 237.728 13.5129V12.2923Z" fill="white"/>
<g opacity="0.7">
<path d="M79.7948 51.6236C78.8359 51.6236 77.5825 51.5071 76.0346 51.2743L75.2949 51.1715L75.4593 49.8565C77.336 50.1031 78.7537 50.2263 79.7126 50.2263C81.74 50.2263 82.7536 49.2743 82.7536 47.3702C82.7536 46.8497 82.6577 46.4388 82.466 46.1374C82.2879 45.836 81.9728 45.5895 81.5208 45.3977C81.0824 45.2059 80.4386 45.0278 79.5893 44.8635C78.4661 44.6306 77.5894 44.3635 76.9593 44.0621C76.3428 43.7607 75.8908 43.3566 75.6031 42.8498C75.3155 42.343 75.1716 41.6649 75.1716 40.8156C75.1716 38.2677 76.699 36.9938 79.7537 36.9938C80.8085 36.9938 82.2399 37.1308 84.0481 37.4047L83.9043 38.7403C81.9317 38.5074 80.5825 38.391 79.8564 38.391C77.8017 38.391 76.7743 39.165 76.7743 40.7129C76.7743 41.3019 76.8702 41.7539 77.062 42.069C77.2675 42.3704 77.6099 42.6169 78.0894 42.8087C78.5688 43.0005 79.3291 43.2128 80.3701 43.4457C81.3838 43.6786 82.1646 43.9388 82.7125 44.2265C83.2742 44.5141 83.6851 44.8977 83.9454 45.3771C84.2057 45.8429 84.3358 46.4662 84.3358 47.247C84.3358 50.1647 82.8221 51.6236 79.7948 51.6236Z" fill="white"/>
<path d="M85.7783 41.1649H87.3193L89.3946 50.1031H89.7234L92.1685 41.3704H93.7712L96.2164 50.1031H96.5657L98.6204 41.1649H100.161L97.7163 51.4386H95.1479L92.9699 43.4046L90.7919 51.4386H88.2234L85.7783 41.1649Z" fill="white"/>
<path d="M104.411 51.6441C103.466 51.6441 102.747 51.377 102.254 50.8428C101.761 50.3085 101.514 49.5414 101.514 48.5414C101.514 47.5552 101.761 46.8223 102.254 46.3429C102.761 45.8634 103.562 45.5689 104.658 45.4593L107.884 45.1511V44.2676C107.884 42.9662 107.322 42.3156 106.199 42.3156C105.089 42.3156 103.74 42.4046 102.151 42.5827L102.09 41.4115C103.555 41.1101 104.891 40.9594 106.096 40.9594C107.261 40.9594 108.103 41.2266 108.624 41.7608C109.158 42.2813 109.425 43.1169 109.425 44.2676V49.5277C109.466 50.0346 109.863 50.3359 110.617 50.4318L110.555 51.6441C109.473 51.6441 108.658 51.3701 108.11 50.8222C106.891 51.3701 105.658 51.6441 104.411 51.6441ZM104.658 50.3496C105.576 50.3496 106.494 50.1921 107.411 49.877L107.884 49.7127V46.3223L104.843 46.61C104.227 46.6648 103.781 46.8429 103.507 47.1442C103.233 47.4456 103.096 47.8839 103.096 48.4593C103.096 49.7195 103.617 50.3496 104.658 50.3496Z" fill="white"/>
<path d="M112.466 41.1649H113.986V41.9046C114.52 41.5896 115.034 41.3567 115.527 41.206C116.034 41.0416 116.568 40.9594 117.13 40.9594C118.404 40.9594 119.328 41.3841 119.904 42.2334C120.493 43.069 120.787 44.4046 120.787 46.2401C120.787 47.5415 120.637 48.5894 120.335 49.3839C120.034 50.1647 119.554 50.74 118.897 51.1099C118.239 51.466 117.356 51.6441 116.246 51.6441C115.479 51.6441 114.733 51.5688 114.007 51.4181V56.0002H112.466V41.1649ZM116.267 50.3085C117.335 50.3085 118.096 49.9935 118.548 49.3633C119 48.7332 119.226 47.7127 119.226 46.3018C119.226 44.9046 119.027 43.8977 118.63 43.2813C118.246 42.6512 117.657 42.3361 116.863 42.3361C116.465 42.3361 116.034 42.4046 115.568 42.5416C115.116 42.6649 114.726 42.8019 114.397 42.9525L114.007 43.158V50.0825C115.02 50.2332 115.774 50.3085 116.267 50.3085Z" fill="white"/>
<path d="M131.288 51.4386H129.768L126.85 41.1649H128.391L130.96 50.1031H131.638L134.227 41.1649H135.768L131.494 56.0002H129.953L131.288 51.4386Z" fill="white"/>
<path d="M141.513 51.6441C140.417 51.6441 139.547 51.466 138.904 51.1099C138.26 50.74 137.801 50.1715 137.527 49.4044C137.253 48.6373 137.116 47.6237 137.116 46.3634C137.116 45.0621 137.26 44.021 137.547 43.2402C137.835 42.4457 138.301 41.8704 138.945 41.5142C139.588 41.1444 140.445 40.9594 141.513 40.9594C142.595 40.9594 143.451 41.1444 144.081 41.5142C144.725 41.8841 145.191 42.4594 145.479 43.2402C145.766 44.021 145.91 45.0621 145.91 46.3634C145.91 47.6237 145.773 48.6373 145.499 49.4044C145.225 50.1715 144.766 50.74 144.123 51.1099C143.492 51.466 142.623 51.6441 141.513 51.6441ZM141.534 50.3085C142.287 50.3085 142.862 50.1852 143.26 49.9387C143.657 49.6784 143.931 49.2743 144.081 48.7264C144.246 48.1647 144.328 47.3771 144.328 46.3634C144.328 45.295 144.246 44.4731 144.081 43.8977C143.917 43.3224 143.636 42.9114 143.239 42.6649C142.842 42.4183 142.273 42.295 141.534 42.295C140.794 42.295 140.219 42.4183 139.808 42.6649C139.41 42.9114 139.123 43.3224 138.945 43.8977C138.78 44.4731 138.698 45.295 138.698 46.3634C138.698 47.3634 138.773 48.1442 138.924 48.7058C139.088 49.2675 139.369 49.6784 139.767 49.9387C140.177 50.1852 140.766 50.3085 141.534 50.3085Z" fill="white"/>
<path d="M151.629 51.6441C150.752 51.6441 150.074 51.4866 149.595 51.1715C149.129 50.8428 148.8 50.3154 148.608 49.5894C148.417 48.8634 148.321 47.8428 148.321 46.5278V41.1649H149.862V46.5073C149.862 47.5346 149.917 48.3086 150.026 48.8291C150.136 49.3496 150.334 49.7195 150.622 49.9387C150.91 50.1578 151.355 50.2674 151.958 50.2674C152.889 50.2674 153.848 50.014 154.834 49.5072V41.1649H156.375V51.4386H154.834V50.7195C154.273 51.0482 153.752 51.288 153.273 51.4386C152.793 51.5756 152.245 51.6441 151.629 51.6441Z" fill="white"/>
<path d="M159.339 41.1649H160.86V42.5621C162.038 41.7539 163.291 41.2129 164.62 40.9389V42.5005C164.086 42.6101 163.504 42.7813 162.874 43.0142C162.257 43.2334 161.764 43.4388 161.394 43.6306L160.88 43.8977V51.4386H159.339V41.1649Z" fill="white"/>
<path d="M174.903 51.6441C173.807 51.6441 172.937 51.466 172.293 51.1099C171.649 50.74 171.19 50.1715 170.916 49.4044C170.642 48.6373 170.505 47.6237 170.505 46.3634C170.505 45.0621 170.649 44.021 170.937 43.2402C171.225 42.4457 171.69 41.8704 172.334 41.5142C172.978 41.1444 173.834 40.9594 174.903 40.9594C175.985 40.9594 176.841 41.1444 177.471 41.5142C178.115 41.8841 178.581 42.4594 178.868 43.2402C179.156 44.021 179.3 45.0621 179.3 46.3634C179.3 47.6237 179.163 48.6373 178.889 49.4044C178.615 50.1715 178.156 50.74 177.512 51.1099C176.882 51.466 176.012 51.6441 174.903 51.6441ZM174.923 50.3085C175.677 50.3085 176.252 50.1852 176.649 49.9387C177.046 49.6784 177.32 49.2743 177.471 48.7264C177.635 48.1647 177.718 47.3771 177.718 46.3634C177.718 45.295 177.635 44.4731 177.471 43.8977C177.307 43.3224 177.026 42.9114 176.629 42.6649C176.231 42.4183 175.663 42.295 174.923 42.295C174.183 42.295 173.608 42.4183 173.197 42.6649C172.8 42.9114 172.512 43.3224 172.334 43.8977C172.17 44.4731 172.088 45.295 172.088 46.3634C172.088 47.3634 172.163 48.1442 172.314 48.7058C172.478 49.2675 172.759 49.6784 173.156 49.9387C173.567 50.1852 174.156 50.3085 174.923 50.3085Z" fill="white"/>
<path d="M181.936 36.6856H183.477V51.4386H181.936V36.6856Z" fill="white"/>
<path d="M189.633 51.6441C188.332 51.6441 187.4 51.2263 186.839 50.3907C186.277 49.5414 185.996 48.2401 185.996 46.4867C185.996 44.5278 186.332 43.1169 187.003 42.2539C187.688 41.3909 188.811 40.9594 190.373 40.9594C191.154 40.9594 191.969 41.0485 192.818 41.2266V36.6856H194.339V51.4386H192.818V50.74C191.763 51.3427 190.702 51.6441 189.633 51.6441ZM189.921 50.2674C190.318 50.2674 190.75 50.2126 191.215 50.1031C191.681 49.9798 192.078 49.8428 192.407 49.6921L192.818 49.5072V42.5416C191.928 42.3772 191.154 42.295 190.496 42.295C189.414 42.295 188.654 42.6101 188.215 43.2402C187.791 43.8703 187.578 44.9114 187.578 46.3634C187.578 47.6922 187.75 48.6784 188.092 49.3223C188.448 49.9524 189.058 50.2674 189.921 50.2674Z" fill="white"/>
<path d="M205.065 51.6441C204.243 51.6441 203.236 51.5482 202.044 51.3564L201.428 51.2537L201.51 49.9181C203.113 50.151 204.291 50.2674 205.044 50.2674C205.866 50.2674 206.476 50.1373 206.873 49.877C207.284 49.6031 207.489 49.1716 207.489 48.5825C207.489 48.1579 207.387 47.836 207.181 47.6168C206.989 47.3976 206.736 47.2401 206.421 47.1442C206.12 47.0483 205.688 46.9593 205.126 46.8771L204.613 46.7949C203.791 46.6579 203.147 46.4936 202.681 46.3018C202.216 46.11 201.866 45.8429 201.633 45.5004C201.401 45.1443 201.284 44.658 201.284 44.0416C201.284 42.932 201.62 42.1443 202.291 41.6786C202.962 41.2129 203.914 40.98 205.147 40.98C206.12 40.98 207.113 41.069 208.126 41.2471L208.702 41.3498L208.661 42.6649C207.181 42.4457 206.024 42.3361 205.188 42.3361C204.394 42.3361 203.798 42.4594 203.4 42.706C203.017 42.9525 202.825 43.3361 202.825 43.8566C202.825 44.2265 202.921 44.5141 203.113 44.7196C203.305 44.9114 203.551 45.0552 203.853 45.1511C204.168 45.2333 204.606 45.3223 205.168 45.4182L205.681 45.521C206.531 45.6717 207.188 45.8497 207.654 46.0552C208.12 46.247 208.462 46.5278 208.681 46.8977C208.914 47.2675 209.03 47.7812 209.03 48.4387C209.03 49.5483 208.702 50.3633 208.044 50.8839C207.4 51.3907 206.407 51.6441 205.065 51.6441Z" fill="white"/>
<path d="M214.657 51.6647C213.959 51.6647 213.411 51.5551 213.013 51.3359C212.63 51.103 212.349 50.7195 212.171 50.1852C212.007 49.6373 211.924 48.8771 211.924 47.9045V42.5005H210.466V41.1649H211.924V38.0212H213.445V41.1649H216.712V42.5005H213.445V47.4113C213.445 48.1784 213.472 48.7538 213.527 49.1373C213.582 49.5072 213.712 49.7948 213.918 50.0003C214.137 50.1921 214.472 50.288 214.924 50.288L216.753 50.1647L216.856 51.4386C215.883 51.5893 215.15 51.6647 214.657 51.6647Z" fill="white"/>
<path d="M221.799 51.6441C220.923 51.6441 220.244 51.4866 219.765 51.1715C219.299 50.8428 218.971 50.3154 218.779 49.5894C218.587 48.8634 218.491 47.8428 218.491 46.5278V41.1649H220.032V46.5073C220.032 47.5346 220.087 48.3086 220.197 48.8291C220.306 49.3496 220.505 49.7195 220.792 49.9387C221.08 50.1578 221.525 50.2674 222.128 50.2674C223.059 50.2674 224.018 50.014 225.005 49.5072V41.1649H226.546V51.4386H225.005V50.7195C224.443 51.0482 223.922 51.288 223.443 51.4386C222.964 51.5756 222.416 51.6441 221.799 51.6441Z" fill="white"/>
<path d="M229.941 42.5005H228.647V41.1649H229.941V40.2403C229.941 39.2677 230.03 38.5143 230.208 37.9801C230.386 37.4321 230.674 37.0486 231.071 36.8294C231.469 36.5965 232.016 36.4801 232.715 36.4801L234.79 36.6239L234.77 37.8979C233.907 37.8705 233.373 37.8568 233.167 37.8568C232.975 37.8431 232.852 37.8362 232.797 37.8362C232.29 37.8362 231.941 38.0417 231.749 38.4527C231.571 38.8636 231.482 39.4663 231.482 40.2608V41.1649H234.462V42.5005H231.482V51.4386H229.941V42.5005Z" fill="white"/>
<path d="M236.743 42.5005H235.449V41.1649H236.743V40.2403C236.743 39.2677 236.833 38.5143 237.011 37.9801C237.189 37.4321 237.476 37.0486 237.874 36.8294C238.271 36.5965 238.819 36.4801 239.517 36.4801L241.593 36.6239L241.572 37.8979C240.709 37.8705 240.175 37.8568 239.969 37.8568C239.778 37.8431 239.654 37.8362 239.6 37.8362C239.093 37.8362 238.743 38.0417 238.552 38.4527C238.374 38.8636 238.285 39.4663 238.285 40.2608V41.1649H241.264V42.5005H238.285V51.4386H236.743V42.5005Z" fill="white"/>
</g>
<path opacity="0.6" d="M33.8028 41.0635H20.7813C18.8676 41.0635 17.3157 39.5116 17.3157 37.5979V25.3403L22.3091 26.3023C24.0373 26.3023 24.9083 24.2181 23.6882 22.9911L20.2099 19.5128L13.5033 12.8062C13.1173 12.4271 12.6242 12.2301 12.1242 12.2301C11.6311 12.2301 11.1391 12.4271 10.7531 12.8062L4.04653 19.5128L0.569378 22.9911C-0.650737 24.2181 0.22028 26.3023 1.94849 26.3023L6.94186 25.3403V41.7283C6.94186 47.0904 11.2889 51.4385 16.6521 51.4385H17.3157H34.0194C36.9366 51.4385 39.2916 49.0294 39.204 46.0926C39.1188 43.2526 36.6428 41.0635 33.8028 41.0635Z" fill="white"/>
<path d="M26.2173 11.1168H39.2388C41.1525 11.1168 42.7044 12.6687 42.7044 14.5824V26.84L37.711 25.878C35.9828 25.878 35.1118 27.9622 36.3319 29.1892L39.8102 32.6675L46.5168 39.3741C46.9028 39.7532 47.3959 39.9502 47.896 39.9502C48.3891 39.9502 48.881 39.7532 49.267 39.3741L55.9736 32.6675L59.4519 29.1892C60.672 27.9622 59.801 25.878 58.0728 25.878L53.0794 26.84V10.4531C53.0794 5.09109 48.7324 0.74292 43.3692 0.74292H42.7056H26.0007C23.0835 0.74292 20.7285 3.15204 20.8161 6.08884C20.9013 8.92771 23.3773 11.1168 26.2173 11.1168Z" fill="white"/>
</svg>
