<svg width="26" height="25" viewBox="0 0 26 25" fill="none" xmlns="http://www.w3.org/2000/svg">
<path fill-rule="evenodd" clip-rule="evenodd" d="M18.5126 0.348145H7.43614C3.83119 0.348145 0.898438 3.2809 0.898438 6.88585V17.9625C0.898438 21.5673 3.83119 24.5001 7.43614 24.5001H18.5128C22.1176 24.5001 25.0504 21.5673 25.0504 17.9625V6.88585C25.0504 3.2809 22.1176 0.348145 18.5126 0.348145ZM23.6345 17.9625C23.6345 20.7866 21.3369 23.0842 18.5126 23.0842H7.43614C4.61192 23.0842 2.31433 20.7866 2.31433 17.9625V6.88585C2.31433 4.06163 4.61192 1.76403 7.43614 1.76403H18.5128C21.3369 1.76403 23.6345 4.06163 23.6345 6.88585V17.9625ZM12.9743 5.82016C9.33287 5.82016 6.37045 8.78259 6.37045 12.424C6.37045 16.0655 9.33287 19.0279 12.9743 19.0279C16.6157 19.0279 19.5782 16.0655 19.5782 12.424C19.5782 8.78259 16.6157 5.82016 12.9743 5.82016ZM12.9743 17.612C10.1138 17.612 7.78634 15.2847 7.78634 12.424C7.78634 9.5635 10.1138 7.23605 12.9743 7.23605C15.835 7.23605 18.1623 9.5635 18.1623 12.424C18.1623 15.2847 15.835 17.612 12.9743 17.612ZM17.7846 5.42613C17.7846 4.35021 18.6598 3.47477 19.736 3.47477C20.8121 3.47477 21.6875 4.35002 21.6875 5.42613C21.6875 6.50223 20.8121 7.37767 19.736 7.37767C18.6598 7.37767 17.7846 6.50223 17.7846 5.42613ZM19.2005 5.42613C19.2005 5.72132 19.4408 5.9616 19.736 5.9616C20.0313 5.9616 20.2716 5.72132 20.2716 5.42613C20.2716 5.13075 20.0313 4.89065 19.736 4.89065C19.4408 4.89065 19.2005 5.13075 19.2005 5.42613Z" fill="#25B4B6"/>
</svg>
