<svg width="21" height="21" viewBox="0 0 21 21" fill="none" xmlns="http://www.w3.org/2000/svg">
<path fill-rule="evenodd" clip-rule="evenodd" d="M15.2528 0.166748H5.19542C2.42989 0.166748 0.166748 2.42989 0.166748 5.19542V15.2532C0.166748 18.018 2.42989 20.2819 5.19542 20.2819H15.2528C18.0183 20.2819 20.2814 18.018 20.2814 15.2532V5.19542C20.2814 2.42989 18.0183 0.166748 15.2528 0.166748ZM18.6051 15.2532C18.6051 17.1013 17.1018 18.6056 15.2528 18.6056H5.19542C3.34714 18.6056 1.84305 17.1013 1.84305 15.2532V5.19542C1.84305 3.34689 3.34714 1.84305 5.19542 1.84305H15.2528C17.1018 1.84305 18.6051 3.34689 18.6051 5.19542V15.2532ZM15.6724 6.03344C16.3667 6.03344 16.9296 5.47059 16.9296 4.77627C16.9296 4.08196 16.3667 3.5191 15.6724 3.5191C14.9781 3.5191 14.4152 4.08196 14.4152 4.77627C14.4152 5.47059 14.9781 6.03344 15.6724 6.03344ZM5.19523 10.2241C5.19523 7.44647 7.44605 5.19541 10.2239 5.19541C13.001 5.19541 15.2526 7.44647 15.2526 10.2241C15.2526 13.0006 13.001 15.2532 10.2239 15.2532C7.44605 15.2532 5.19523 13.0006 5.19523 10.2241ZM6.87153 10.2241C6.87153 12.0759 8.37257 13.5769 10.2239 13.5769C12.0752 13.5769 13.5763 12.0759 13.5763 10.2241C13.5763 8.37226 12.0752 6.87171 10.2239 6.87171C8.37257 6.87171 6.87153 8.37226 6.87153 10.2241Z" fill="white"/>
</svg>
