<svg width="22" height="22" viewBox="0 0 22 22" fill="none" xmlns="http://www.w3.org/2000/svg">
<path fill-rule="evenodd" clip-rule="evenodd" d="M10.7679 3.91016H20.0664C21.1326 3.91016 22 4.77757 22 5.84375V20.0664C22 21.1326 21.1326 22 20.0664 22H9.55986C8.58649 22 7.76166 21.2699 7.64118 20.3063L7.36841 18.0898H1.93359C0.86741 18.0898 0 17.2224 0 16.1562V1.93359C0 0.86741 0.86741 0 1.93359 0H8.573C9.54611 0 10.3709 0.728148 10.4916 1.69374L10.7679 3.91016ZM1.28906 16.1562C1.28906 16.5116 1.5782 16.8008 1.93359 16.8008H11.0758L9.2125 1.85341C9.17232 1.53175 8.89737 1.28906 8.573 1.28906H1.93359C1.5782 1.28906 1.28906 1.5782 1.28906 1.93359V16.1562ZM8.66718 18.0898L8.88267 19.8408L10.3964 18.0898H8.66718ZM20.0664 20.7109C20.4218 20.7109 20.7109 20.4218 20.7109 20.0664V5.84375C20.7109 5.48836 20.4218 5.19922 20.0664 5.19922H10.9286L12.4441 17.3561C12.47 17.543 12.4137 17.7311 12.2881 17.8727L9.83443 20.7109H20.0664ZM8.40932 11.5182L7.12026 5.0728C7.06006 4.77155 6.7955 4.55469 6.48828 4.55469H5.19921C4.89199 4.55469 4.62743 4.77155 4.56723 5.0728L3.27817 11.5181C3.20834 11.8672 3.43475 12.2067 3.78378 12.2765C4.13282 12.3463 4.4724 12.1199 4.54218 11.7709L4.95416 9.71094H6.73333L7.14531 11.7709C7.21513 12.1202 7.55484 12.3464 7.90371 12.2766C8.25274 12.2067 8.47914 11.8672 8.40932 11.5182ZM5.21198 8.42188L5.7276 5.84375H5.95989L6.47551 8.42188H5.21198ZM18.7344 9.71094H16.8008V9.06641C16.8008 8.71045 16.5122 8.42188 16.1562 8.42188C15.8003 8.42188 15.5117 8.71045 15.5117 9.06641V9.71094H13.5781C13.2222 9.71094 12.9336 9.99952 12.9336 10.3555C12.9336 10.7114 13.2222 11 13.5781 11H13.7341C14.1014 12.1865 14.6543 13.0971 15.2627 13.8269C14.8907 14.1672 14.5154 14.4615 14.1624 14.7382L14.1623 14.7383C14.0454 14.8299 13.931 14.9196 13.82 15.0084C13.5421 15.2308 13.497 15.6364 13.7194 15.9143C13.9419 16.1924 14.3475 16.2373 14.6253 16.015C14.7324 15.9293 14.8447 15.8413 14.9608 15.7502L14.9609 15.7501C15.3314 15.4596 15.7421 15.1376 16.1562 14.7575C16.5707 15.1378 16.9819 15.4603 17.3521 15.7505L17.3523 15.7507C17.4684 15.8417 17.5804 15.9295 17.6872 16.015C17.9651 16.2374 18.3708 16.1923 18.5931 15.9143C18.8155 15.6364 18.7704 15.2308 18.4925 15.0084C18.3813 14.9195 18.2666 14.8295 18.1493 14.7376L18.1491 14.7374L18.1491 14.7374C17.7969 14.4612 17.4216 14.167 17.0498 13.8269C17.6582 13.0971 18.2111 12.1865 18.5784 11H18.7344C19.0903 11 19.3789 10.7114 19.3789 10.3555C19.3789 9.99952 19.0903 9.71094 18.7344 9.71094ZM16.1562 12.8797C15.7448 12.3632 15.3747 11.7467 15.0957 10.9957H17.2168C16.9378 11.7467 16.5677 12.3632 16.1562 12.8797Z" fill="#1D2338"/>
</svg>
