<svg width="152" height="36" viewBox="0 0 152 36" fill="none" xmlns="http://www.w3.org/2000/svg">
<path d="M54.9 12.2816C54.9 11.6755 54.6855 11.2121 54.2567 10.8912C53.8278 10.5632 53.0558 10.221 51.9407 9.86448C50.8256 9.50084 49.9429 9.14433 49.2924 8.79496C47.5197 7.83952 46.6334 6.55253 46.6334 4.934C46.6334 4.09264 46.8692 3.34398 47.341 2.68801C47.8199 2.0249 48.5026 1.50797 49.3889 1.1372C50.2824 0.766438 51.2831 0.581055 52.3911 0.581055C53.5061 0.581055 54.4997 0.784263 55.3718 1.19068C56.2438 1.58997 56.9193 2.15681 57.3982 2.89122C57.8843 3.62562 58.1273 4.45984 58.1273 5.39389H54.9107C54.9107 4.68088 54.6855 4.12829 54.2352 3.73613C53.7849 3.33685 53.1523 3.1372 52.3374 3.1372C51.5512 3.1372 50.94 3.30476 50.504 3.63988C50.068 3.96786 49.8499 4.4028 49.8499 4.94469C49.8499 5.45093 50.1037 5.87517 50.6112 6.21742C51.1259 6.55966 51.88 6.88052 52.8735 7.17999C54.7034 7.729 56.0365 8.40993 56.8728 9.22277C57.7091 10.0356 58.1273 11.0481 58.1273 12.2602C58.1273 13.6078 57.6162 14.6666 56.5941 15.4367C55.5719 16.1996 54.1959 16.5811 52.4661 16.5811C51.2652 16.5811 50.1716 16.3636 49.1852 15.9286C48.1988 15.4866 47.4447 14.8841 46.9229 14.1212C46.4082 13.3582 46.1509 12.4741 46.1509 11.4688H49.3782C49.3782 13.1871 50.4075 14.0463 52.4661 14.0463C53.2309 14.0463 53.8278 13.893 54.2567 13.5864C54.6855 13.2727 54.9 12.8377 54.9 12.2816Z" fill="#25B4B6"/>
<path d="M72.4733 11.8752L74.5748 0.794958H77.7806L74.3174 16.3672H71.0794L68.5383 5.95004L65.9972 16.3672H62.7592L59.296 0.794958H62.5018L64.6141 11.8538L67.1873 0.794958H69.9107L72.4733 11.8752Z" fill="#25B4B6"/>
<path d="M87.87 13.1586H82.2302L81.158 16.3672H77.7377L83.549 0.794958H86.5297L92.3732 16.3672H88.9529L87.87 13.1586ZM83.0987 10.5597H87.0015L85.0394 4.73079L83.0987 10.5597Z" fill="#25B4B6"/>
<path d="M97.0479 10.8805V16.3672H93.8314V0.794958H99.9214C101.094 0.794958 102.123 1.00886 103.009 1.43667C103.903 1.86448 104.589 2.4741 105.068 3.26555C105.547 4.04986 105.786 4.94469 105.786 5.95004C105.786 7.47589 105.261 8.68088 104.21 9.56501C103.167 10.442 101.719 10.8805 99.8678 10.8805H97.0479ZM97.0479 8.28159H99.9214C100.772 8.28159 101.419 8.08195 101.862 7.68266C102.312 7.28337 102.538 6.71296 102.538 5.97143C102.538 5.20851 102.312 4.59175 101.862 4.12116C101.412 3.65057 100.79 3.40815 99.9965 3.39389H97.0479V8.28159Z" fill="#25B4B6"/>
<path d="M120.829 8.934C120.829 10.467 120.558 11.811 120.014 12.9661C119.471 14.1212 118.692 15.0124 117.677 15.6399C116.669 16.2673 115.511 16.5811 114.203 16.5811C112.909 16.5811 111.755 16.2709 110.74 15.6506C109.725 15.0303 108.939 14.1461 108.381 12.9982C107.824 11.8431 107.541 10.5169 107.534 9.01956V8.2495C107.534 6.71653 107.809 5.36893 108.36 4.20672C108.917 3.03738 109.7 2.14255 110.708 1.52223C111.723 0.89478 112.881 0.581055 114.182 0.581055C115.483 0.581055 116.637 0.89478 117.645 1.52223C118.66 2.14255 119.443 3.03738 119.993 4.20672C120.55 5.36893 120.829 6.71296 120.829 8.23881V8.934ZM117.57 8.22811C117.57 6.59531 117.277 5.35467 116.691 4.50619C116.104 3.6577 115.268 3.23346 114.182 3.23346C113.102 3.23346 112.27 3.65414 111.683 4.49549C111.097 5.32972 110.801 6.5561 110.793 8.17464V8.934C110.793 10.524 111.087 11.7575 111.673 12.6345C112.259 13.5115 113.102 13.95 114.203 13.95C115.282 13.95 116.112 13.5294 116.691 12.688C117.27 11.8395 117.563 10.606 117.57 8.98747V8.22811Z" fill="#25B4B6"/>
<path d="M135.99 8.934C135.99 10.467 135.718 11.811 135.175 12.9661C134.632 14.1212 133.853 15.0124 132.838 15.6399C131.83 16.2673 130.672 16.5811 129.364 16.5811C128.07 16.5811 126.916 16.2709 125.901 15.6506C124.886 15.0303 124.099 14.1461 123.542 12.9982C122.984 11.8431 122.702 10.5169 122.695 9.01956V8.2495C122.695 6.71653 122.97 5.36893 123.52 4.20672C124.078 3.03738 124.861 2.14255 125.869 1.52223C126.884 0.89478 128.042 0.581055 129.342 0.581055C130.643 0.581055 131.798 0.89478 132.806 1.52223C133.821 2.14255 134.603 3.03738 135.154 4.20672C135.711 5.36893 135.99 6.71296 135.99 8.23881V8.934ZM132.731 8.22811C132.731 6.59531 132.438 5.35467 131.851 4.50619C131.265 3.6577 130.429 3.23346 129.342 3.23346C128.263 3.23346 127.43 3.65414 126.844 4.49549C126.258 5.32972 125.961 6.5561 125.954 8.17464V8.934C125.954 10.524 126.247 11.7575 126.834 12.6345C127.42 13.5115 128.263 13.95 129.364 13.95C130.443 13.95 131.272 13.5294 131.851 12.688C132.43 11.8395 132.723 10.606 132.731 8.98747V8.22811Z" fill="#25B4B6"/>
<path d="M151.151 8.934C151.151 10.467 150.879 11.811 150.336 12.9661C149.793 14.1212 149.014 15.0124 147.999 15.6399C146.991 16.2673 145.833 16.5811 144.525 16.5811C143.231 16.5811 142.077 16.2709 141.062 15.6506C140.047 15.0303 139.26 14.1461 138.703 12.9982C138.145 11.8431 137.863 10.5169 137.856 9.01956V8.2495C137.856 6.71653 138.131 5.36893 138.681 4.20672C139.239 3.03738 140.021 2.14255 141.029 1.52223C142.044 0.89478 143.202 0.581055 144.503 0.581055C145.804 0.581055 146.959 0.89478 147.966 1.52223C148.981 2.14255 149.764 3.03738 150.315 4.20672C150.872 5.36893 151.151 6.71296 151.151 8.23881V8.934ZM147.891 8.22811C147.891 6.59531 147.598 5.35467 147.012 4.50619C146.426 3.6577 145.59 3.23346 144.503 3.23346C143.424 3.23346 142.591 3.65414 142.005 4.49549C141.419 5.32972 141.122 6.5561 141.115 8.17464V8.934C141.115 10.524 141.408 11.7575 141.994 12.6345C142.58 13.5115 143.424 13.95 144.525 13.95C145.604 13.95 146.433 13.5294 147.012 12.688C147.591 11.8395 147.884 10.606 147.891 8.98747V8.22811Z" fill="#25B4B6"/>
<g opacity="0.6">
<path d="M49.6405 32.6962C49.044 32.6962 48.2642 32.6237 47.3013 32.4789L46.8411 32.415L46.9434 31.5969C48.1108 31.7503 48.9928 31.827 49.5894 31.827C50.8506 31.827 51.4812 31.2347 51.4812 30.0502C51.4812 29.7263 51.4215 29.4707 51.3022 29.2832C51.1914 29.0957 50.9954 28.9423 50.7142 28.823C50.4415 28.7037 50.041 28.593 49.5127 28.4907C48.8139 28.3458 48.2685 28.1797 47.8765 27.9922C47.493 27.8047 47.2118 27.5533 47.0328 27.238C46.8539 26.9227 46.7644 26.5009 46.7644 25.9725C46.7644 24.3875 47.7146 23.595 49.6149 23.595C50.2711 23.595 51.1616 23.6802 52.2865 23.8506L52.197 24.6815C50.9699 24.5366 50.1305 24.4642 49.6788 24.4642C48.4006 24.4642 47.7614 24.9457 47.7614 25.9086C47.7614 26.275 47.8211 26.5563 47.9404 26.7523C48.0682 26.9397 48.2813 27.0931 48.5795 27.2124C48.8778 27.3317 49.3508 27.4638 49.9984 27.6087C50.629 27.7536 51.1148 27.9155 51.4556 28.0944C51.805 28.2734 52.0607 28.512 52.2226 28.8103C52.3845 29.1 52.4654 29.4877 52.4654 29.9735C52.4654 31.7886 51.5238 32.6962 49.6405 32.6962Z" fill="#1D2338"/>
<path d="M53.3628 26.1898H54.3215L55.6126 31.7503H55.8171L57.3382 26.3177H58.3353L59.8564 31.7503H60.0737L61.352 26.1898H62.3107L60.7895 32.5811H59.1917L57.8367 27.5831L56.4818 32.5811H54.884L53.3628 26.1898Z" fill="#1D2338"/>
<path d="M64.9546 32.709C64.3666 32.709 63.9192 32.5428 63.6124 32.2104C63.3056 31.8781 63.1522 31.4009 63.1522 30.7788C63.1522 30.1652 63.3056 29.7093 63.6124 29.411C63.9277 29.1128 64.4262 28.9296 65.1079 28.8614L67.1148 28.6697V28.12C67.1148 27.3104 66.7654 26.9057 66.0666 26.9057C65.3764 26.9057 64.537 26.961 63.5485 27.0718L63.5101 26.3432C64.4219 26.1557 65.2528 26.062 66.0027 26.062C66.7271 26.062 67.2512 26.2282 67.575 26.5605C67.9073 26.8843 68.0735 27.4042 68.0735 28.12V31.3923C68.0991 31.7077 68.3462 31.8951 68.8149 31.9548L68.7766 32.709C68.1033 32.709 67.5963 32.5385 67.2554 32.1977C66.497 32.5385 65.73 32.709 64.9546 32.709ZM65.1079 31.9037C65.6789 31.9037 66.2499 31.8057 66.8208 31.6097L67.1148 31.5074V29.3983L65.223 29.5772C64.8395 29.6113 64.5626 29.7221 64.3921 29.9096C64.2217 30.097 64.1365 30.3697 64.1365 30.7277C64.1365 31.5117 64.4603 31.9037 65.1079 31.9037Z" fill="#1D2338"/>
<path d="M69.965 26.1898H70.911V26.65C71.2433 26.454 71.5629 26.3091 71.8696 26.2154C72.185 26.1131 72.5173 26.062 72.8667 26.062C73.6592 26.062 74.2344 26.3262 74.5923 26.8545C74.9588 27.3743 75.142 28.2052 75.142 29.3471C75.142 30.1567 75.0483 30.8086 74.8608 31.3029C74.6733 31.7886 74.375 32.1465 73.966 32.3766C73.557 32.5982 73.0073 32.709 72.317 32.709C71.8398 32.709 71.3754 32.6621 70.9237 32.5683V35.4189H69.965V26.1898ZM72.3298 31.8781C72.9945 31.8781 73.4675 31.6821 73.7487 31.2901C74.0299 30.8981 74.1705 30.2632 74.1705 29.3855C74.1705 28.5163 74.047 27.8899 73.7998 27.5064C73.5612 27.1144 73.1948 26.9184 72.7005 26.9184C72.4534 26.9184 72.185 26.961 71.8952 27.0463C71.614 27.123 71.3711 27.2082 71.1666 27.3019L70.9237 27.4297V31.7375C71.5543 31.8312 72.023 31.8781 72.3298 31.8781Z" fill="#1D2338"/>
<path d="M81.6748 32.5811H80.7289L78.9138 26.1898H79.8725L81.4703 31.7503H81.8921L83.5027 26.1898H84.4614L81.8026 35.4189H80.8439L81.6748 32.5811Z" fill="#1D2338"/>
<path d="M88.0356 32.709C87.3538 32.709 86.8127 32.5982 86.4122 32.3766C86.0116 32.1465 85.7262 31.7929 85.5557 31.3157C85.3853 30.8384 85.3001 30.2078 85.3001 29.4238C85.3001 28.6143 85.3896 27.9666 85.5685 27.4809C85.7475 26.9866 86.0372 26.6287 86.4377 26.4071C86.8382 26.177 87.3709 26.062 88.0356 26.062C88.7088 26.062 89.2414 26.177 89.6334 26.4071C90.0339 26.6372 90.3236 26.9951 90.5026 27.4809C90.6816 27.9666 90.771 28.6143 90.771 29.4238C90.771 30.2078 90.6858 30.8384 90.5154 31.3157C90.3449 31.7929 90.0595 32.1465 89.6589 32.3766C89.2669 32.5982 88.7258 32.709 88.0356 32.709ZM88.0483 31.8781C88.517 31.8781 88.8749 31.8014 89.1221 31.648C89.3692 31.4861 89.5396 31.2347 89.6334 30.8938C89.7356 30.5444 89.7868 30.0544 89.7868 29.4238C89.7868 28.7591 89.7356 28.2478 89.6334 27.8899C89.5311 27.532 89.3564 27.2763 89.1093 27.123C88.8622 26.9696 88.5085 26.8929 88.0483 26.8929C87.5882 26.8929 87.2303 26.9696 86.9746 27.123C86.7275 27.2763 86.5485 27.532 86.4377 27.8899C86.3355 28.2478 86.2843 28.7591 86.2843 29.4238C86.2843 30.0459 86.3312 30.5317 86.4249 30.881C86.5272 31.2304 86.7019 31.4861 86.949 31.648C87.2047 31.8014 87.5711 31.8781 88.0483 31.8781Z" fill="#1D2338"/>
<path d="M94.3287 32.709C93.7833 32.709 93.3615 32.611 93.0632 32.415C92.7735 32.2104 92.569 31.8823 92.4497 31.4307C92.3303 30.979 92.2707 30.3442 92.2707 29.5261V26.1898H93.2294V29.5133C93.2294 30.1524 93.2635 30.6339 93.3317 30.9577C93.3998 31.2816 93.5234 31.5117 93.7023 31.648C93.8813 31.7843 94.1583 31.8525 94.5332 31.8525C95.1127 31.8525 95.7092 31.6949 96.3228 31.3796V26.1898H97.2815V32.5811H96.3228V32.1337C95.9734 32.3383 95.6496 32.4874 95.3513 32.5811C95.053 32.6663 94.7122 32.709 94.3287 32.709Z" fill="#1D2338"/>
<path d="M99.1254 26.1898H100.071V27.059C100.804 26.5563 101.584 26.2197 102.41 26.0492V27.0207C102.078 27.0889 101.716 27.1954 101.324 27.3403C100.94 27.4766 100.634 27.6044 100.404 27.7237L100.084 27.8899V32.5811H99.1254V26.1898Z" fill="#1D2338"/>
<path d="M108.807 32.709C108.126 32.709 107.584 32.5982 107.184 32.3766C106.783 32.1465 106.498 31.7929 106.327 31.3157C106.157 30.8384 106.072 30.2078 106.072 29.4238C106.072 28.6143 106.161 27.9666 106.34 27.4809C106.519 26.9866 106.809 26.6287 107.209 26.4071C107.61 26.177 108.143 26.062 108.807 26.062C109.481 26.062 110.013 26.177 110.405 26.4071C110.806 26.6372 111.095 26.9951 111.274 27.4809C111.453 27.9666 111.543 28.6143 111.543 29.4238C111.543 30.2078 111.458 30.8384 111.287 31.3157C111.117 31.7929 110.831 32.1465 110.431 32.3766C110.039 32.5982 109.498 32.709 108.807 32.709ZM108.82 31.8781C109.289 31.8781 109.647 31.8014 109.894 31.648C110.141 31.4861 110.311 31.2347 110.405 30.8938C110.507 30.5444 110.559 30.0544 110.559 29.4238C110.559 28.7591 110.507 28.2478 110.405 27.8899C110.303 27.532 110.128 27.2763 109.881 27.123C109.634 26.9696 109.28 26.8929 108.82 26.8929C108.36 26.8929 108.002 26.9696 107.746 27.123C107.499 27.2763 107.32 27.532 107.209 27.8899C107.107 28.2478 107.056 28.7591 107.056 29.4238C107.056 30.0459 107.103 30.5317 107.197 30.881C107.299 31.2304 107.474 31.4861 107.721 31.648C107.976 31.8014 108.343 31.8781 108.82 31.8781Z" fill="#1D2338"/>
<path d="M113.183 23.4032H114.142V32.5811H113.183V23.4032Z" fill="#1D2338"/>
<path d="M117.971 32.709C117.162 32.709 116.582 32.449 116.233 31.9292C115.883 31.4009 115.709 30.5913 115.709 29.5005C115.709 28.2819 115.917 27.4042 116.335 26.8673C116.761 26.3304 117.46 26.062 118.431 26.062C118.917 26.062 119.424 26.1174 119.953 26.2282V23.4032H120.898V32.5811H119.953V32.1465C119.296 32.5215 118.636 32.709 117.971 32.709ZM118.15 31.8525C118.397 31.8525 118.666 31.8184 118.955 31.7503C119.245 31.6736 119.492 31.5883 119.697 31.4946L119.953 31.3796V27.0463C119.399 26.944 118.917 26.8929 118.508 26.8929C117.835 26.8929 117.362 27.0889 117.089 27.4809C116.825 27.8729 116.693 28.5205 116.693 29.4238C116.693 30.2504 116.799 30.864 117.013 31.2645C117.234 31.6565 117.613 31.8525 118.15 31.8525Z" fill="#1D2338"/>
<path d="M127.571 32.709C127.06 32.709 126.434 32.6493 125.692 32.53L125.309 32.4661L125.36 31.6352C126.357 31.7801 127.09 31.8525 127.558 31.8525C128.07 31.8525 128.449 31.7716 128.696 31.6097C128.952 31.4392 129.08 31.1708 129.08 30.8043C129.08 30.5402 129.016 30.3399 128.888 30.2036C128.769 30.0672 128.611 29.9692 128.415 29.9096C128.227 29.8499 127.959 29.7945 127.61 29.7434L127.29 29.6923C126.779 29.607 126.378 29.5048 126.088 29.3855C125.799 29.2662 125.581 29.1 125.437 28.887C125.292 28.6654 125.219 28.3629 125.219 27.9794C125.219 27.2891 125.428 26.7991 125.846 26.5094C126.263 26.2197 126.855 26.0748 127.622 26.0748C128.227 26.0748 128.845 26.1302 129.476 26.241L129.834 26.3049L129.808 27.123C128.888 26.9866 128.168 26.9184 127.648 26.9184C127.154 26.9184 126.783 26.9951 126.536 27.1485C126.297 27.3019 126.178 27.5405 126.178 27.8643C126.178 28.0944 126.238 28.2734 126.357 28.4012C126.476 28.5205 126.63 28.61 126.817 28.6697C127.013 28.7208 127.286 28.7762 127.635 28.8358L127.955 28.8997C128.483 28.9935 128.892 29.1043 129.182 29.2321C129.472 29.3514 129.685 29.5261 129.821 29.7562C129.966 29.9863 130.038 30.3058 130.038 30.7149C130.038 31.4051 129.834 31.9122 129.425 32.236C129.024 32.5513 128.406 32.709 127.571 32.709Z" fill="#1D2338"/>
<path d="M133.539 32.7217C133.104 32.7217 132.763 32.6536 132.516 32.5172C132.278 32.3723 132.103 32.1337 131.992 31.8014C131.89 31.4605 131.839 30.9876 131.839 30.3825V27.0207H130.931V26.1898H131.839V24.2341H132.785V26.1898H134.817V27.0207H132.785V30.0757C132.785 30.553 132.802 30.9109 132.836 31.1495C132.87 31.3796 132.951 31.5585 133.079 31.6863C133.215 31.8057 133.424 31.8653 133.705 31.8653L134.843 31.7886L134.906 32.5811C134.301 32.6749 133.846 32.7217 133.539 32.7217Z" fill="#1D2338"/>
<path d="M137.982 32.709C137.436 32.709 137.015 32.611 136.716 32.415C136.427 32.2104 136.222 31.8823 136.103 31.4307C135.983 30.979 135.924 30.3442 135.924 29.5261V26.1898H136.882V29.5133C136.882 30.1524 136.917 30.6339 136.985 30.9577C137.053 31.2816 137.176 31.5117 137.355 31.648C137.534 31.7843 137.811 31.8525 138.186 31.8525C138.766 31.8525 139.362 31.6949 139.976 31.3796V26.1898H140.935V32.5811H139.976V32.1337C139.627 32.3383 139.303 32.4874 139.004 32.5811C138.706 32.6663 138.365 32.709 137.982 32.709Z" fill="#1D2338"/>
<path d="M143.047 27.0207H142.242V26.1898H143.047V25.6146C143.047 25.0096 143.102 24.5409 143.213 24.2085C143.324 23.8677 143.503 23.629 143.75 23.4927C143.997 23.3478 144.338 23.2754 144.773 23.2754L146.064 23.3649L146.051 24.1574C145.514 24.1403 145.182 24.1318 145.054 24.1318C144.934 24.1233 144.858 24.119 144.824 24.119C144.508 24.119 144.291 24.2469 144.172 24.5025C144.061 24.7582 144.006 25.1331 144.006 25.6274V26.1898H145.859V27.0207H144.006V32.5811H143.047V27.0207Z" fill="#1D2338"/>
<path d="M147.279 27.0207H146.473V26.1898H147.279V25.6146C147.279 25.0096 147.334 24.5409 147.445 24.2085C147.556 23.8677 147.735 23.629 147.982 23.4927C148.229 23.3478 148.57 23.2754 149.004 23.2754L150.295 23.3649L150.283 24.1574C149.746 24.1403 149.413 24.1318 149.286 24.1318C149.166 24.1233 149.09 24.119 149.055 24.119C148.74 24.119 148.523 24.2469 148.404 24.5025C148.293 24.7582 148.237 25.1331 148.237 25.6274V26.1898H150.091V27.0207H148.237V32.5811H147.279V27.0207Z" fill="#1D2338"/>
</g>
<path opacity="0.8" d="M21.0288 26.1268H12.9281C11.7376 26.1268 10.7721 25.1613 10.7721 23.9708V16.3453L13.8785 16.9438C14.9537 16.9438 15.4955 15.6472 14.7365 14.8839L12.5726 12.72L8.40043 8.54783C8.16032 8.31202 7.85355 8.18945 7.54248 8.18945C7.23571 8.18945 6.92966 8.31202 6.68955 8.54783L2.51736 12.72L0.354211 14.8839C-0.404825 15.6472 0.137037 16.9438 1.21216 16.9438L4.31855 16.3453V26.5404C4.31855 29.8761 7.02284 32.5811 10.3593 32.5811H10.7721H21.1636C22.9784 32.5811 24.4434 31.0824 24.3889 29.2554C24.3359 27.4886 22.7956 26.1268 21.0288 26.1268Z" fill="#1D2338"/>
<path d="M16.3098 7.49681H24.4105C25.601 7.49681 26.5665 8.46227 26.5665 9.65279V17.2783L23.4601 16.6798C22.385 16.6798 21.8431 17.9764 22.6022 18.7397L24.766 20.9036L28.9382 25.0758C29.1783 25.3116 29.4851 25.4342 29.7962 25.4342C30.1029 25.4342 30.409 25.3116 30.6491 25.0758L34.8213 20.9036L36.9852 18.7397C37.7442 17.9764 37.2023 16.6798 36.1272 16.6798L33.0208 17.2783V7.08397C33.0208 3.74822 30.3165 1.04321 26.9801 1.04321H26.5672H16.1751C14.3603 1.04321 12.8952 2.54193 12.9497 4.36893C13.0028 6.13499 14.543 7.49681 16.3098 7.49681Z" fill="#25B4B6"/>
</svg>
