<svg width="22" height="23" viewBox="0 0 22 23" fill="none" xmlns="http://www.w3.org/2000/svg">
<path d="M21.4573 16.9677L20.0306 14.9473C19.8359 14.6727 19.7311 14.346 19.7303 14.0111V8.21282C19.7303 6.03464 18.8513 3.94568 17.2867 2.40548C15.722 0.865276 13.5999 0 11.3872 0C9.17449 0 7.05239 0.865276 5.48776 2.40548C3.92313 3.94568 3.04413 6.03464 3.04413 8.21282V14.0111C3.04332 14.346 2.93852 14.6727 2.74378 14.9473L1.31711 16.9677C1.10109 17.2033 0.959042 17.4955 0.908137 17.8089C0.857232 18.1223 0.899653 18.4435 1.03027 18.7336C1.16089 19.0238 1.37411 19.2705 1.64415 19.4439C1.91418 19.6173 2.22947 19.71 2.55189 19.7108H7.2991C7.49058 20.639 8.00219 21.4736 8.74724 22.0731C9.49229 22.6725 10.425 23 11.3872 23C12.3495 23 13.2821 22.6725 14.0272 22.0731C14.7722 21.4736 15.2838 20.639 15.4753 19.7108H20.2225C20.5449 19.71 20.8602 19.6173 21.1303 19.4439C21.4003 19.2705 21.6135 19.0238 21.7441 18.7336C21.8748 18.4435 21.9172 18.1223 21.8663 17.8089C21.8154 17.4955 21.6733 17.2033 21.4573 16.9677ZM11.3872 21.3533C10.8708 21.3519 10.3675 21.1933 9.9463 20.8992C9.52509 20.6051 9.20659 20.19 9.03446 19.7108H13.74C13.5678 20.19 13.2493 20.6051 12.8281 20.8992C12.4069 21.1933 11.9036 21.3519 11.3872 21.3533ZM2.55189 18.0682C2.5896 18.0337 2.62319 17.9952 2.652 17.9532L4.11204 15.8836C4.50153 15.3343 4.71113 14.6809 4.71274 14.0111V8.21282C4.71274 6.47028 5.41594 4.79911 6.66765 3.56695C7.91935 2.33478 9.61703 1.64256 11.3872 1.64256C13.1574 1.64256 14.8551 2.33478 16.1068 3.56695C17.3585 4.79911 18.0617 6.47028 18.0617 8.21282V14.0111C18.0633 14.6809 18.2729 15.3343 18.6624 15.8836L20.1224 17.9532C20.1512 17.9952 20.1848 18.0337 20.2225 18.0682H2.55189Z" fill="#1D2338"/>
</svg>
