<svg width="16" height="22" viewBox="0 0 16 22" fill="none" xmlns="http://www.w3.org/2000/svg">
<path d="M0 0V1.83333H1.77778V5.5C1.77778 7.83106 2.99306 9.87565 4.80556 11C2.99306 12.1243 1.77778 14.1689 1.77778 16.5V20.1667H0V22H16V20.1667H14.2222V16.5C14.2222 14.1689 13.0069 12.1243 11.1944 11C13.0069 9.87565 14.2222 7.83106 14.2222 5.5V1.83333H16V0H0ZM3.55556 1.83333H12.4444V5.5C12.4444 8.04232 10.4653 10.0833 8 10.0833C5.53472 10.0833 3.55556 8.04232 3.55556 5.5V1.83333ZM4.44444 3.66667V5.5C4.44444 7.52669 6.03472 9.16667 8 9.16667C9.96528 9.16667 11.5556 7.52669 11.5556 5.5V3.66667H4.44444ZM8 11.9167C10.4653 11.9167 12.4444 13.9577 12.4444 16.5V20.1667H3.55556V16.5C3.55556 13.9577 5.53472 11.9167 8 11.9167Z" fill="#1D2338"/>
</svg>
