<svg width="123" height="110" viewBox="0 0 123 110" fill="none" xmlns="http://www.w3.org/2000/svg">
<path d="M84.0002 73.8C84.4002 77.2 84.4002 80.6 84.6002 84C84.6002 84.4 84.6002 84.8 84.7002 85.2C84.7002 85 82.6002 84.3 82.5002 84.3C78.8002 82.7 75.5002 80.5 72.5002 77.8C70.3002 75.8 68.7002 73.7 67.7002 71.2C67.8002 79.4 71.3002 85.8 77.4002 91.3C82.4002 95.9 88.1002 99.5 94.3002 102.2C94.5002 102.3 98.0002 103.5 98.0002 103.8C98.0002 103.2 97.9002 102.5 97.9002 101.9C97.6002 96.2 97.7002 90.4 96.9002 84.7C95.9002 77.4 92.5002 69.8 85.3002 66.9C83.7002 66.2 82.0002 65.7 80.2002 65.3C82.3002 67.5 83.5002 70.7 84.0002 73.8Z" fill="#F0A830"/>
<path d="M56.7004 82.9C54.0004 84.9 50.9004 86.5 48.0004 88.2C47.7004 88.4 47.3004 88.6 47.0004 88.8C47.1004 88.7 46.8004 86.6 46.8004 86.4C46.5004 82.4 46.8004 78.4 47.8004 74.5C48.5004 71.7 49.6004 69.2 51.4004 67.2C44.2004 71.1 40.3004 77.3 38.3004 85.2C36.7004 91.8 36.1004 98.5 36.6004 105.2C36.6004 105.5 37.2004 109.1 37.0004 109.2C37.6004 108.9 38.1004 108.5 38.7004 108.2C43.6004 105.2 48.7004 102.5 53.3004 99.2C59.3004 94.9 64.3004 88.3 63.5004 80.5C63.3004 78.7 62.9004 77 62.5004 75.3C61.5004 78.5 59.2004 81 56.7004 82.9Z" fill="#9CB631"/>
<path d="M33 64.3C29.8 63.1 26.8 61.5 23.7 60.1C23.4 59.9 23 59.8 22.7 59.6C22.8 59.7 24.4 58.2 24.6 58.1C27.8 55.6 31.2 53.6 35 52.3C37.7 51.3 40.4 50.9 43 51.2C35.7 47.4 28.4 47.6 20.7 50.4C14.3 52.7 8.49999 56 3.09999 60.2C2.89999 60.4 0.2 62.9 0 62.8C0.6 63.1 1.19999 63.3 1.79999 63.6C6.99999 66 12.1 68.8 17.4 70.7C24.3 73.2 32.6 73.7 38.6 68.7C40 67.6 41.2 66.3 42.4 65C39.3 65.8 35.9 65.4 33 64.3Z" fill="#07AAA5"/>
<path d="M37.6002 36.4C36.7002 33.1 36.3002 29.7 35.6002 26.4C35.5002 26 35.5002 25.6 35.4002 25.3C35.4002 25.5 37.6002 25.9 37.7002 25.9C41.6002 27 45.2002 28.7 48.5002 31C50.9002 32.7 52.8002 34.6 54.1002 36.9C52.9002 28.8 48.5002 22.9 41.8002 18.3C36.2002 14.5 30.1002 11.6 23.6002 9.70001C23.3002 9.60001 19.7002 8.89998 19.7002 8.59998C19.8002 9.19998 19.9002 9.9 20.1002 10.5C21.2002 16.1 21.9002 21.9 23.4002 27.4C25.3002 34.5 29.8002 41.5 37.3002 43.4C39.0002 43.8 40.8002 44.1 42.5002 44.3C40.1002 42.4 38.4002 39.4 37.6002 36.4Z" fill="#FFAE11"/>
<path d="M65.6998 28.5C68.1998 26.2 70.9998 24.3 73.6998 22.2C73.9998 22 74.2998 21.7 74.5998 21.5C74.4998 21.6 75.0998 23.7 75.0998 23.9C75.8998 27.9 76.0998 31.8 75.5998 35.9C75.1998 38.8 74.3998 41.4 72.8998 43.6C79.5998 38.8 82.7998 32.2 83.7998 24.1C84.5998 17.4 84.3998 10.7 82.9998 4C82.8998 3.7 81.8998 0.2 82.0998 0C81.5998 0.4 81.0998 0.800012 80.5998 1.20001C76.0998 4.70001 71.2998 8.00002 67.0998 11.9C61.6998 16.9 57.4998 24.1 59.2998 31.6C59.6998 33.3 60.2998 35 60.8998 36.7C61.3998 33.5 63.3998 30.7 65.6998 28.5Z" fill="#07AAA5"/>
<path d="M89.2004 45.1C92.5004 45.8 95.7004 47 99.0004 48C99.4004 48.1 99.7004 48.2 100.1 48.3C99.9004 48.3 98.6004 50 98.5004 50.1C95.7004 53 92.5004 55.4 89.0004 57.3C86.4004 58.7 83.8004 59.5 81.2004 59.5C88.9004 62.2 96.2004 61 103.4 57.2C109.4 54 114.7 49.9 119.4 45C119.6 44.8 121.9 41.9 122.2 42C121.6 41.8 121 41.6 120.3 41.4C114.8 39.7 109.4 37.7 103.8 36.5C96.6004 34.9 88.3004 35.6 83.1004 41.4C81.9004 42.7 80.9004 44.2 79.9004 45.6C82.7004 44.5 86.2004 44.5 89.2004 45.1Z" fill="#9CB631"/>
</svg>
