<svg width="107" height="107" viewBox="0 0 107 107" fill="none" xmlns="http://www.w3.org/2000/svg">
<path d="M53 90.1C32.6 90.1 16 73.5 16 53.1C16 32.7 32.6 16.1 53 16.1C73.4 16.1 90 32.7 90 53.1C90 56.1 89.6 58.9 89 61.7L104.5 66.4C105.6 62.2 106.2 57.7 106.2 53.1C106.2 23.8 82.4 0 53.1 0C23.8 0 0 23.8 0 53.1C0 82.4 23.8 106.2 53.1 106.2C56.2 106.2 59.2 105.9 62.1 105.4L57.5 89.8C56 90 54.5 90.1 53 90.1Z" fill="#F0A830"/>
<path d="M104.5 66.4L89.0004 61.7C85.4004 76.6 72.9004 88 57.4004 89.8L62.0004 105.4C82.7004 101.9 99.3004 86.5 104.5 66.4Z" fill="#482E1D"/>
<path d="M47.7998 51.8C40.5998 72.5 25.7998 71.7 25.7998 71.7C25.7998 71.7 52.9998 85.4 60.6998 64.3C71.1998 35.6 80.1998 36.5 80.1998 36.5C80.1998 36.5 54.2998 33 47.7998 51.8Z" fill="#9CB631"/>
</svg>
