<svg width="141" height="134" viewBox="0 0 141 134" fill="none" xmlns="http://www.w3.org/2000/svg">
<path fill-rule="evenodd" clip-rule="evenodd" d="M83.2003 32.9C99.3003 23.7 107.3 19.4 113 0C111.3 19.8 108.6 36.2 90.2003 49C77.2003 58.1 62.2003 44.9 83.2003 32.9Z" fill="#97B12A"/>
<path fill-rule="evenodd" clip-rule="evenodd" d="M95.8002 57.1C113.6 62.5 122.2 65.4 140.2 56.3C124.7 68.6 110.8 77.8 88.9002 73.2C73.4002 69.9 72.7002 50 95.8002 57.1Z" fill="#6DBFCB"/>
<path fill-rule="evenodd" clip-rule="evenodd" d="M88.8 82.1C100.2 96.8 105.6 104.1 125.6 106.9C105.8 108 89.2 107.7 73.9 91.3C63.1 79.7 74 63 88.8 82.1Z" fill="#5E412F"/>
<path fill-rule="evenodd" clip-rule="evenodd" d="M63.1996 89.9C54.8996 106.6 50.6995 114.6 56.7995 133.8C47.1995 116.5 40.2996 101.3 48.4996 80.4C54.1996 65.7 73.9996 68.3 63.1996 89.9Z" fill="#F55148"/>
<path fill-rule="evenodd" clip-rule="evenodd" d="M42.4 69.9C23.8 69.7 14.7 69.3 0 83.1C11.5 66.9 22.1 54.2 44.5 52.5C60.3 51.3 66.6 70.2 42.4 69.9Z" fill="#F07818"/>
<path fill-rule="evenodd" clip-rule="evenodd" d="M50.9 39.9C44.5 22.4 41.6 13.8 23.5 5C42.7 10 58.4 15.4 68 35.7C74.6 50 59.2 62.6 50.9 39.9Z" fill="#FCEBB6"/>
</svg>
