<svg width="147" height="88" viewBox="0 0 147 88" fill="none" xmlns="http://www.w3.org/2000/svg">
<path d="M64.7004 0C64.7004 0 71.4004 8.29996 50.2004 37.4C34.5004 58.8 65.8004 76.4 65.8004 76.4C65.8004 76.4 55.2004 62.5 70.8004 41.8C85.0004 23.1 64.7004 0 64.7004 0Z" fill="#482E1D"/>
<path d="M82.4004 0C82.4004 0 75.7004 8.29996 96.9004 37.4C112.6 58.8 81.3004 76.4 81.3004 76.4C81.3004 76.4 91.9004 62.5 76.3004 41.8C62.1004 23.1 82.4004 0 82.4004 0Z" fill="#482E1D"/>
<path d="M0 41.0999C0 41.0999 10.6 40.0999 23 73.8999C32.1 98.7999 64.1 82.5999 64.1 82.5999C64.1 82.5999 46.6 83.6999 38.2 59.1999C30.5 36.9999 0 41.0999 0 41.0999Z" fill="#9CB631"/>
<path d="M146.6 41.0999C146.6 41.0999 136 40.0999 123.6 73.8999C114.5 98.7999 82.5 82.5999 82.5 82.5999C82.5 82.5999 100 83.6999 108.4 59.1999C116.1 36.9999 146.6 41.0999 146.6 41.0999Z" fill="#9CB631"/>
</svg>
