<svg width="118" height="118" viewBox="0 0 118 118" fill="none" xmlns="http://www.w3.org/2000/svg">
<path d="M57.3 54.7C57.3 54.7 33.1 36.9 57.3 0C57.3 0 88.1 32 57.3 54.7Z" fill="#402917"/>
<path d="M57.3 117.6C57.3 117.6 33.1 99.8 57.3 62.9C57.3 62.9 88.1 94.9 57.3 117.6Z" fill="#DF504A"/>
<path d="M54.7 60.3C54.7 60.3 36.9 84.5 0 60.3C0 60.3 32 29.5 54.7 60.3Z" fill="#9CB631"/>
<path d="M117.6 60.3C117.6 60.3 99.7999 84.5 62.8999 60.3C62.8999 60.3 94.8999 29.5 117.6 60.3Z" fill="#F0A830"/>
<path d="M117.6 60.3C117.6 60.3 99.7999 84.5 62.8999 60.3C62.8999 60.3 94.8999 29.5 117.6 60.3Z" fill="#F0A830"/>
<path d="M84.6001 86.9C84.6001 86.9 70.5001 88.8 66.6001 68.2C66.6001 68.2 87.6001 69 84.6001 86.9Z" fill="#402917"/>
<path d="M88.9 32.8C88.9 32.8 89.8 47 69 49.5C69 49.5 71.2 28.5 88.9 32.8Z" fill="#9CB631"/>
<path d="M29.1998 28.3C29.1998 28.3 43.3998 26.9 46.5998 47.6C46.5998 47.5 25.5998 46 29.1998 28.3Z" fill="#DF504A"/>
<path d="M30.1998 90.5C30.1998 90.5 27.1998 76.6 47.3998 71C47.2998 71 48.1998 92.1 30.1998 90.5Z" fill="#F0A830"/>
</svg>
