<svg width="118" height="75" viewBox="0 0 118 75" fill="none" xmlns="http://www.w3.org/2000/svg">
<path d="M0.5 12.4C0.8 14.3 1.1 16.2 1.5 18C1.9 19.9 2.4 21.7 3 23.5C4.1 27.1 5.6 30.5 7.3 33.8C10.7 40.3 15.3 46.1 20.7 50.9C26.1 55.7 32.3 59.4 38.9 61.8C42.2 63 45.6 64 49.1 64.5C52.6 65.1 56.1 65.4 59.6 65.3C63.1 65.3 66.6 64.9 70.1 64.2C73.6 63.5 76.9 62.5 80.2 61.1C86.8 58.4 92.8 54.5 98.1 49.6C103.3 44.7 107.7 38.8 110.9 32.1C112.5 28.8 113.8 25.3 114.9 21.7C115.4 19.9 115.8 18.1 116.2 16.2C116.6 14.3 116.8 12.4 117.1 10.5C117.4 12.4 117.5 14.3 117.6 16.3C117.6 18.2 117.6 20.2 117.4 22.1C117.1 26 116.3 29.9 115.1 33.7C112.7 41.3 108.6 48.4 103.2 54.5C97.8 60.6 91.1 65.5 83.6 68.9C79.9 70.6 76 71.9 71.9 72.8C67.9 73.7 63.8 74.2 59.7 74.2C55.6 74.2 51.5 73.9 47.4 73.1C43.4 72.3 39.4 71.1 35.6 69.5C28 66.3 21.2 61.6 15.6 55.7C10 49.8 5.7 42.8 3.1 35.3C1.8 31.6 0.9 27.7 0.4 23.8C0.2 21.9 0 19.9 0 18C0.2 16.2 0.3 14.3 0.5 12.4Z" fill="#482E1D"/>
<path d="M13.3 3.79999C13.5 5.29999 13.8 6.70001 14.1 8.20001C14.4 9.60001 14.8 11 15.2 12.4C16.1 15.2 17.2 17.8 18.5 20.3C21.1 25.3 24.7 29.8 28.8 33.5C33 37.2 37.7 40.1 42.9 41.9C45.5 42.8 48.1 43.6 50.8 44C53.5 44.5 56.2 44.7 58.9 44.6C61.6 44.6 64.3 44.3 67 43.7C69.7 43.2 72.3 42.4 74.8 41.3C79.9 39.2 84.6 36.2 88.6 32.4C92.7 28.6 96 24 98.5 18.9C99.8 16.3 100.8 13.7 101.6 10.9C102 9.49996 102.3 8.09998 102.6 6.59998C102.9 5.19998 103.1 3.70001 103.3 2.20001C103.5 3.70001 103.6 5.20001 103.7 6.70001C103.7 8.20001 103.7 9.70001 103.6 11.2C103.3 14.2 102.7 17.2 101.8 20.2C100 26.1 96.8 31.6 92.6 36.2C88.4 40.9 83.2 44.7 77.5 47.3C74.6 48.6 71.6 49.6 68.5 50.3C65.4 51 62.2 51.4 59.1 51.4C55.9 51.4 52.7 51.2 49.6 50.6C46.5 50 43.4 49.1 40.5 47.9C34.7 45.5 29.4 41.8 25.1 37.2C20.8 32.7 17.5 27.3 15.4 21.5C14.4 18.6 13.7 15.6 13.3 12.6C13.1 11.1 13 9.59998 13 8.09998C13 6.79998 13.1 5.29999 13.3 3.79999Z" fill="#FF4042"/>
<path d="M26.9996 0.799988C27.1996 1.79999 27.2996 2.79999 27.5996 3.79999C27.7996 4.79999 28.0996 5.80001 28.3996 6.70001C28.9996 8.60001 29.7996 10.4 30.6996 12.2C32.4996 15.7 34.8996 18.7 37.7996 21.3C40.6996 23.8 43.8996 25.8 47.4996 27.1C49.2996 27.7 51.0996 28.3 52.8996 28.6C54.6996 28.9 56.5996 29.1 58.4996 29C60.3996 29 62.1996 28.8 64.0996 28.4C65.8996 28 67.6996 27.5 69.4996 26.8C72.9996 25.4 76.1996 23.3 78.9996 20.7C81.7996 18.1 84.0996 14.9 85.7996 11.4C86.6996 9.59996 87.3996 7.79996 87.8996 5.89996C88.1996 4.89996 88.3996 4 88.5996 3C88.7996 2 88.8996 1 89.0996 0C89.2996 1 89.2996 1.99998 89.3996 3.09998C89.3996 4.09998 89.3996 5.20001 89.2996 6.20001C89.0996 8.30001 88.6996 10.3 88.0996 12.3C86.7996 16.3 84.6996 20.1 81.7996 23.3C78.8996 26.5 75.3996 29.1 71.3996 30.9C69.3996 31.8 67.2996 32.5 65.1996 33C63.0996 33.5 60.8996 33.7 58.6996 33.8C56.4996 33.8 54.2996 33.6 52.1996 33.2C50.0996 32.8 47.9996 32.2 45.9996 31.3C41.9996 29.6 38.2996 27.1 35.3996 24C32.3996 20.9 30.1996 17.2 28.7996 13.2C28.0996 11.2 27.5996 9.19998 27.3996 7.09998C27.2996 6.09998 27.1996 5 27.1996 4C26.7996 2.8 26.8996 1.79999 26.9996 0.799988Z" fill="#6DBFCB"/>
</svg>
