<svg width="22" height="20" viewBox="0 0 22 20" fill="none" xmlns="http://www.w3.org/2000/svg">
<path d="M19.9375 2.75H4.8125C3.29931 2.75 2.75 3.98338 2.75 4.8125V17.1875C2.75 18.7007 3.98338 19.25 4.8125 19.25H19.9375C21.4507 19.25 22 18.0166 22 17.1875V4.8125C22 3.29931 20.7666 2.75 19.9375 2.75ZM4.125 4.82075C4.13325 4.50313 4.25906 4.125 4.8125 4.125H19.9293C20.2469 4.13325 20.625 4.25906 20.625 4.8125V9.625C18.5398 9.625 17.5189 10.8618 16.6196 11.9529C15.7912 12.9573 15.1367 13.75 13.75 13.75C12.9477 13.75 12.3956 13.3354 11.7563 12.8563C11.0261 12.3083 10.1977 11.6875 8.9375 11.6875C7.67731 11.6875 6.84887 12.3083 6.11875 12.8563C5.47937 13.3354 4.92731 13.75 4.125 13.75V4.82075ZM20.625 17.1793C20.6168 17.4969 20.4916 17.875 19.9375 17.875H4.82075C4.50313 17.8668 4.125 17.7416 4.125 17.1875V15.125C5.38519 15.125 6.21363 14.5042 6.94375 13.9562C7.58313 13.4771 8.13519 13.0625 8.9375 13.0625C9.73981 13.0625 10.2919 13.4771 10.9312 13.9562C11.6621 14.5042 12.4898 15.125 13.75 15.125C15.7843 15.125 16.7915 13.9047 17.6798 12.8274C18.4896 11.8463 19.1874 11 20.625 11V17.1793ZM16.5 1.375H2.0625C1.50906 1.375 1.38325 1.75313 1.375 2.07075V13.75C1.375 14.1302 1.067 14.4375 0.6875 14.4375C0.308 14.4375 0 14.1302 0 13.75V2.0625C0 1.23338 0.549313 0 2.0625 0H16.5C16.8802 0 17.1875 0.308 17.1875 0.6875C17.1875 1.067 16.8802 1.375 16.5 1.375ZM9.625 7.5625C9.625 6.42537 8.69963 5.5 7.5625 5.5C6.42537 5.5 5.5 6.42537 5.5 7.5625C5.5 8.69963 6.42537 9.625 7.5625 9.625C8.69963 9.625 9.625 8.69963 9.625 7.5625ZM6.875 7.5625C6.875 7.18369 7.18369 6.875 7.5625 6.875C7.94131 6.875 8.25 7.18369 8.25 7.5625C8.25 7.94131 7.94131 8.25 7.5625 8.25C7.18369 8.25 6.875 7.94131 6.875 7.5625Z" fill="white"/>
</svg>
