<svg width="20" height="22" viewBox="0 0 20 22" fill="none" xmlns="http://www.w3.org/2000/svg">
<path d="M20 4.68199C20 4.40289 19.838 4.15141 19.5901 4.04533L10.2513 0.0516216C10.0903 -0.0172072 9.90975 -0.0172072 9.74875 0.0516216L0.409938 4.04533C0.16195 4.15137 0 4.40289 0 4.68199V17.318C0 17.5971 0.161909 17.8486 0.409938 17.9547L9.74875 21.9484C9.90801 22.0165 10.087 22.0179 10.2504 21.9483C10.2584 21.9456 9.90483 22.0965 19.5901 17.9547C19.8381 17.8486 20 17.5971 20 17.318V4.68199ZM10 7.98947L6.559 6.51796L13.9954 3.141L17.6665 4.71094L10 7.98947ZM1.32238 5.76673L4.29116 7.03632V10.6182C4.29116 10.9983 4.58721 11.3065 4.95235 11.3065C5.31749 11.3065 5.61354 10.9983 5.61354 10.6182V7.60184L9.33881 9.19492V20.2848L1.32238 16.8566V5.76673ZM10 1.43237L12.2921 2.41258L4.85574 5.78953L2.3335 4.7109L10 1.43237ZM10.6612 9.19492L18.6776 5.76673V16.8566L10.6612 20.2848V9.19492Z" fill="#1D2338"/>
</svg>
