<svg width="18" height="22" viewBox="0 0 18 22" fill="none" xmlns="http://www.w3.org/2000/svg">
<path fill-rule="evenodd" clip-rule="evenodd" d="M12.4416 9.223C11.5197 10.1596 10.3916 10.6343 9.08871 10.6343C7.78611 10.6343 6.65806 10.1595 5.73593 9.22316C4.81411 8.2867 4.34666 7.14074 4.34666 5.81701C4.34666 4.49358 4.81411 3.34762 5.73593 2.41117C6.65775 1.47471 7.78566 1 9.08871 1C10.3915 1 11.5195 1.47471 12.4415 2.41101C13.3635 3.34777 13.8308 4.49374 13.8308 5.81701C13.8308 7.14074 13.3633 8.28655 12.4416 9.223ZM9.08871 2.17206C8.08893 2.17206 7.25919 2.52134 6.55186 3.23989C5.84438 3.9586 5.50041 4.80167 5.50041 5.81701C5.50041 6.83266 5.84438 7.67573 6.55186 8.39428C7.25949 9.11283 8.08923 9.46227 9.08871 9.46227C10.0883 9.46227 10.9182 9.11299 11.6257 8.39428C12.333 7.67557 12.677 6.83266 12.677 5.81701C12.677 4.80167 12.333 3.9586 11.6257 3.23989C10.9182 2.52134 10.0883 2.17206 9.08871 2.17206ZM17.2265 15.1152C17.3056 15.5641 17.3594 15.9893 17.386 16.379C17.4123 16.7599 17.4256 17.1574 17.4258 17.5604C17.4258 18.6047 17.0991 19.4502 16.4547 20.0731C15.8183 20.6882 14.9765 21.0001 13.9528 21.0001H4.47295C3.44898 21.0001 2.60722 20.6882 1.97094 20.0731C1.3267 19.4497 1 18.6045 1 17.5605C1 17.1589 1.01322 16.7614 1.03935 16.3794C1.06594 15.9888 1.11957 15.5635 1.19887 15.1152C1.27879 14.6629 1.38168 14.2355 1.5047 13.8447C1.63207 13.4405 1.80511 13.0418 2.01886 12.6596C2.24056 12.263 2.50132 11.9177 2.79393 11.6332C3.1002 11.3355 3.47497 11.0964 3.90787 10.9223C4.33941 10.7487 4.81768 10.6606 5.32958 10.6606C5.53056 10.6606 5.72493 10.7444 6.1 10.9927C6.33447 11.1478 6.60484 11.3249 6.90361 11.5188C7.16106 11.6857 7.5106 11.8421 7.94169 11.9836C8.36302 12.122 8.79051 12.1922 9.2123 12.1922C9.63438 12.1922 10.0619 12.122 10.4829 11.9836C10.9144 11.842 11.2638 11.6856 11.5217 11.5186C11.8234 11.3229 12.0936 11.1459 12.3246 10.9928C12.7 10.7445 12.8943 10.6608 13.0953 10.6608C13.6071 10.6608 14.0855 10.7487 14.5172 10.9222C14.9504 11.0966 15.325 11.3357 15.631 11.6331C15.9236 11.9174 16.1843 12.2628 16.4062 12.6596C16.6202 13.0418 16.7931 13.4407 16.9205 13.8446C17.0437 14.2354 17.1466 14.6629 17.2265 15.1152ZM13.9527 19.828C14.6806 19.828 15.2388 19.6304 15.6592 19.2239C16.0715 18.8253 16.2719 18.2812 16.2721 17.5605C16.2719 17.1847 16.2596 16.8148 16.2351 16.4609V16.4606C16.2114 16.1127 16.1627 15.7297 16.0909 15.3221C16.02 14.9207 15.9294 14.5438 15.8217 14.202C15.7187 13.875 15.5778 13.5507 15.4031 13.2387C15.2365 12.9408 15.0449 12.6855 14.8334 12.48C14.6355 12.2877 14.3862 12.1301 14.0925 12.012C13.8207 11.9027 13.5153 11.8429 13.1836 11.8339C13.1432 11.8557 13.0713 11.8975 12.9547 11.9746C12.7175 12.1318 12.4518 12.3057 12.1425 12.5065C11.8014 12.7275 11.3627 12.9266 10.8378 13.0989C10.3021 13.2748 9.75515 13.3642 9.21245 13.3642C8.66975 13.3642 8.12299 13.2748 7.5869 13.0987C7.06253 12.9268 6.62362 12.7275 6.28295 12.5068C5.98073 12.3107 5.70735 12.1316 5.47018 11.9746C5.35362 11.8974 5.28167 11.8557 5.24126 11.8339C4.90975 11.8429 4.60438 11.9027 4.33265 12.012C4.03885 12.1301 3.7895 12.2876 3.59168 12.48C3.38019 12.6857 3.18852 12.9409 3.02194 13.2385C2.8474 13.5507 2.70666 13.8748 2.60347 14.2021C2.49592 14.5435 2.40549 14.9205 2.33444 15.3223C2.26249 15.7291 2.21398 16.112 2.19024 16.4605C2.16591 16.8157 2.15374 17.1857 2.15374 17.5605C2.15374 18.281 2.35412 18.8253 2.76644 19.2241C3.18672 19.6304 3.74489 19.828 4.47295 19.828H13.9527Z" fill="#1D2338"/>
<path d="M12.4416 9.223L12.5485 9.32823L12.5486 9.32822L12.4416 9.223ZM5.73593 9.22316L5.62903 9.32838L5.62906 9.32841L5.73593 9.22316ZM5.73593 2.41117L5.84283 2.51639L5.73593 2.41117ZM12.4415 2.41101L12.5484 2.30579L12.5484 2.30577L12.4415 2.41101ZM6.55186 3.23989L6.44496 3.13466L6.55186 3.23989ZM6.55186 8.39428L6.44497 8.49952L6.44498 8.49953L6.55186 8.39428ZM11.6257 8.39428L11.7326 8.49951L11.7326 8.4995L11.6257 8.39428ZM11.6257 3.23989L11.7326 3.13467L11.7326 3.13465L11.6257 3.23989ZM17.386 16.379L17.2363 16.3892L17.2363 16.3893L17.386 16.379ZM17.2265 15.1152L17.3742 15.0892L17.3742 15.0891L17.2265 15.1152ZM17.4258 17.5604H17.5758V17.5603L17.4258 17.5604ZM16.4547 20.0731L16.5589 20.1809L16.559 20.1809L16.4547 20.0731ZM1.97094 20.0731L1.86664 20.1809L1.86669 20.1809L1.97094 20.0731ZM1.03935 16.3794L1.189 16.3897L1.18901 16.3896L1.03935 16.3794ZM1.19887 15.1152L1.34658 15.1414L1.34659 15.1413L1.19887 15.1152ZM1.5047 13.8447L1.36163 13.7997L1.36162 13.7997L1.5047 13.8447ZM2.01886 12.6596L2.14978 12.7328L2.14979 12.7328L2.01886 12.6596ZM2.79393 11.6332L2.68938 11.5257L2.68938 11.5257L2.79393 11.6332ZM3.90787 10.9223L3.96384 11.0615L3.96386 11.0615L3.90787 10.9223ZM6.1 10.9927L6.0172 11.1177L6.01721 11.1177L6.1 10.9927ZM6.90361 11.5188L6.82193 11.6446L6.822 11.6447L6.90361 11.5188ZM7.94169 11.9836L7.9885 11.8411L7.98846 11.8411L7.94169 11.9836ZM10.4829 11.9836L10.4361 11.8411L10.4361 11.8411L10.4829 11.9836ZM11.5217 11.5186L11.6032 11.6446L11.6034 11.6445L11.5217 11.5186ZM12.3246 10.9928L12.2418 10.8677L12.2418 10.8678L12.3246 10.9928ZM14.5172 10.9222L14.5732 10.783L14.5731 10.783L14.5172 10.9222ZM15.631 11.6331L15.5264 11.7406L15.5264 11.7407L15.631 11.6331ZM16.4062 12.6596L16.2753 12.7328L16.2753 12.7329L16.4062 12.6596ZM16.9205 13.8446L17.0636 13.7995L17.0636 13.7995L16.9205 13.8446ZM15.6592 19.2239L15.555 19.1161L15.5549 19.1161L15.6592 19.2239ZM16.2721 17.5605L16.4221 17.5605V17.5604L16.2721 17.5605ZM16.2351 16.4609H16.0847L16.0855 16.4713L16.2351 16.4609ZM16.2351 16.4606H16.3854L16.3848 16.4504L16.2351 16.4606ZM16.0909 15.3221L16.2386 15.2961L16.2386 15.2961L16.0909 15.3221ZM15.8217 14.202L15.9648 14.1569L15.9648 14.1569L15.8217 14.202ZM15.4031 13.2387L15.2722 13.3119L15.2722 13.3119L15.4031 13.2387ZM14.8334 12.48L14.7288 12.5875L14.7288 12.5875L14.8334 12.48ZM14.0925 12.012L14.1485 11.8728L14.1485 11.8728L14.0925 12.012ZM13.1836 11.8339L13.1877 11.684L13.1476 11.6829L13.1124 11.7019L13.1836 11.8339ZM12.9547 11.9746L12.872 11.8495L12.8719 11.8495L12.9547 11.9746ZM12.1425 12.5065L12.2241 12.6324L12.2242 12.6323L12.1425 12.5065ZM10.8378 13.0989L10.7911 12.9564L10.791 12.9564L10.8378 13.0989ZM7.5869 13.0987L7.63371 12.9562L7.63365 12.9562L7.5869 13.0987ZM6.28295 12.5068L6.20131 12.6327L6.20141 12.6327L6.28295 12.5068ZM5.47018 11.9746L5.38734 12.0996L5.38737 12.0997L5.47018 11.9746ZM5.24126 11.8339L5.31254 11.7019L5.27726 11.6829L5.23719 11.684L5.24126 11.8339ZM4.33265 12.012L4.3886 12.1511L4.38861 12.1511L4.33265 12.012ZM3.59168 12.48L3.69626 12.5875L3.69627 12.5875L3.59168 12.48ZM3.02194 13.2385L2.89106 13.1652L2.89102 13.1653L3.02194 13.2385ZM2.60347 14.2021L2.46041 14.157L2.4604 14.157L2.60347 14.2021ZM2.33444 15.3223L2.48215 15.3484L2.48215 15.3484L2.33444 15.3223ZM2.19024 16.4605L2.33989 16.4707L2.3399 16.4707L2.19024 16.4605ZM2.76644 19.2241L2.66217 19.3319L2.66218 19.3319L2.76644 19.2241ZM9.08871 10.7843C10.4322 10.7843 11.5986 10.2932 12.5485 9.32823L12.3348 9.11778C11.4407 10.026 10.351 10.4843 9.08871 10.4843V10.7843ZM5.62906 9.32841C6.57909 10.293 7.74553 10.7843 9.08871 10.7843V10.4843C7.8267 10.4843 6.73702 10.0259 5.8428 9.1179L5.62906 9.32841ZM4.19666 5.81701C4.19666 7.17979 4.67936 8.36364 5.62903 9.32838L5.84283 9.11793C4.94885 8.20976 4.49666 7.10169 4.49666 5.81701H4.19666ZM5.62903 2.30594C4.67937 3.27068 4.19666 4.45452 4.19666 5.81701H4.49666C4.49666 4.53264 4.94885 3.42456 5.84283 2.51639L5.62903 2.30594ZM9.08871 0.85C7.74509 0.85 6.57879 1.34111 5.62903 2.30594L5.84283 2.51639C6.73672 1.60831 7.82623 1.15 9.08871 1.15V0.85ZM12.5484 2.30577C11.5985 1.34111 10.432 0.85 9.08871 0.85V1.15C10.3509 1.15 11.4406 1.60831 12.3346 2.51626L12.5484 2.30577ZM13.9808 5.81701C13.9808 4.45468 13.4982 3.27084 12.5484 2.30579L12.3346 2.51623C13.2287 3.42471 13.6808 4.53279 13.6808 5.81701H13.9808ZM12.5486 9.32822C13.4981 8.36349 13.9808 7.1798 13.9808 5.81701H13.6808C13.6808 7.10168 13.2286 8.20961 12.3347 9.11779L12.5486 9.32822ZM6.65876 3.34512C7.33816 2.65493 8.12951 2.32206 9.08871 2.32206V2.02206C8.04835 2.02206 7.18021 2.38774 6.44496 3.13466L6.65876 3.34512ZM5.65041 5.81701C5.65041 4.84074 5.97911 4.03555 6.65876 3.34512L6.44496 3.13466C5.70965 3.88164 5.35041 4.76259 5.35041 5.81701H5.65041ZM6.65875 8.28904C5.97912 7.59877 5.65041 6.79359 5.65041 5.81701H5.35041C5.35041 6.87172 5.70965 7.75268 6.44497 8.49952L6.65875 8.28904ZM9.08871 9.31227C8.12984 9.31227 7.33847 8.97926 6.65873 8.28903L6.44498 8.49953C7.1805 9.24641 8.04863 9.61227 9.08871 9.61227V9.31227ZM11.5188 8.28905C10.8393 8.97939 10.0478 9.31227 9.08871 9.31227V9.61227C10.1289 9.61227 10.9972 9.24658 11.7326 8.49951L11.5188 8.28905ZM12.527 5.81701C12.527 6.79359 12.1983 7.59863 11.5188 8.28906L11.7326 8.4995C12.4678 7.75252 12.827 6.87173 12.827 5.81701H12.527ZM11.5188 3.34511C12.1983 4.03554 12.527 4.84074 12.527 5.81701H12.827C12.827 4.76259 12.4678 3.88165 11.7326 3.13467L11.5188 3.34511ZM9.08871 2.32206C10.0478 2.32206 10.8393 2.65493 11.5188 3.34513L11.7326 3.13465C10.9972 2.38774 10.1289 2.02206 9.08871 2.02206V2.32206ZM17.5356 16.3688C17.5086 15.9729 17.4541 15.5425 17.3742 15.0892L17.0788 15.1413C17.1571 15.5858 17.2102 16.0056 17.2363 16.3892L17.5356 16.3688ZM17.5758 17.5603C17.5756 17.1541 17.5622 16.7531 17.5356 16.3687L17.2363 16.3893C17.2624 16.7666 17.2756 17.1606 17.2758 17.5604L17.5758 17.5603ZM16.559 20.1809C17.2375 19.5251 17.5758 18.638 17.5758 17.5604H17.2758C17.2758 18.5713 16.9607 19.3753 16.3505 19.9652L16.559 20.1809ZM13.9528 21.1501C15.0089 21.1501 15.8902 20.8273 16.5589 20.1809L16.3505 19.9652C15.7464 20.549 14.9442 20.8501 13.9528 20.8501V21.1501ZM4.47295 21.1501H13.9528V20.8501H4.47295V21.1501ZM1.86669 20.1809C2.53533 20.8273 3.41665 21.1501 4.47295 21.1501V20.8501C3.48131 20.8501 2.67911 20.549 2.0752 19.9652L1.86669 20.1809ZM0.85 17.5605C0.85 18.6379 1.18836 19.5246 1.86664 20.1809L2.07524 19.9653C1.46504 19.3749 1.15 18.5711 1.15 17.5605H0.85ZM0.889704 16.3692C0.863323 16.7547 0.85 17.1556 0.85 17.5605H1.15C1.15 17.1621 1.16311 16.768 1.189 16.3897L0.889704 16.3692ZM1.05117 15.0891C0.971069 15.5419 0.916703 15.9725 0.889701 16.3693L1.18901 16.3896C1.21518 16.0051 1.26806 15.5852 1.34658 15.1414L1.05117 15.0891ZM1.36162 13.7997C1.23643 14.1974 1.13207 14.6312 1.05116 15.0891L1.34659 15.1413C1.4255 14.6947 1.52693 14.2737 1.64778 13.8898L1.36162 13.7997ZM1.88794 12.5864C1.66937 12.9772 1.49219 13.3853 1.36163 13.7997L1.64776 13.8898C1.77195 13.4957 1.94085 13.1064 2.14978 12.7328L1.88794 12.5864ZM2.68938 11.5257C2.38526 11.8213 2.11592 12.1785 1.88793 12.5864L2.14979 12.7328C2.36521 12.3474 2.61739 12.014 2.89848 11.7408L2.68938 11.5257ZM3.8519 10.7832C3.40261 10.9639 3.01089 11.2132 2.68938 11.5257L2.89848 11.7408C3.18951 11.4579 3.54733 11.229 3.96384 11.0615L3.8519 10.7832ZM5.32958 10.5106C4.80042 10.5106 4.30292 10.6017 3.85187 10.7832L3.96386 11.0615C4.3759 10.8957 4.83493 10.8106 5.32958 10.8106V10.5106ZM6.18279 10.8676C5.80687 10.6188 5.57933 10.5106 5.32958 10.5106V10.8106C5.48179 10.8106 5.64298 10.87 6.0172 11.1177L6.18279 10.8676ZM6.98528 11.393C6.68679 11.1992 6.4168 11.0225 6.18278 10.8676L6.01721 11.1177C6.25214 11.2732 6.5229 11.4505 6.82193 11.6446L6.98528 11.393ZM7.98846 11.8411C7.56434 11.7019 7.22797 11.5503 6.98521 11.3929L6.822 11.6447C7.09416 11.8211 7.45685 11.9824 7.89493 12.1261L7.98846 11.8411ZM9.2123 12.0422C8.80722 12.0422 8.39551 11.9748 7.9885 11.8411L7.89488 12.1261C8.33053 12.2692 8.77381 12.3422 9.2123 12.3422V12.0422ZM10.4361 11.8411C10.0294 11.9748 9.61768 12.0422 9.2123 12.0422V12.3422C9.65108 12.3422 10.0944 12.2692 10.5297 12.1261L10.4361 11.8411ZM11.4402 11.3927C11.197 11.5502 10.8607 11.7018 10.4361 11.8411L10.5297 12.1261C10.9682 11.9822 11.3307 11.821 11.6032 11.6446L11.4402 11.3927ZM12.2418 10.8678C12.0112 11.0205 11.7414 11.1972 11.4401 11.3928L11.6034 11.6445C11.9053 11.4485 12.1759 11.2712 12.4074 11.1179L12.2418 10.8678ZM13.0953 10.5108C12.8456 10.5108 12.618 10.6189 12.2418 10.8677L12.4073 11.1179C12.7819 10.8702 12.9431 10.8108 13.0953 10.8108V10.5108ZM14.5731 10.783C14.1219 10.6017 13.6243 10.5108 13.0953 10.5108V10.8108C13.5898 10.8108 14.049 10.8957 14.4612 11.0613L14.5731 10.783ZM15.7355 11.5255C15.4143 11.2133 15.0228 10.964 14.5732 10.783L14.4612 11.0613C14.878 11.2291 15.2357 11.4581 15.5264 11.7406L15.7355 11.5255ZM16.5371 12.5864C16.309 12.1784 16.0397 11.821 15.7355 11.5255L15.5264 11.7407C15.8075 12.0137 16.0597 12.3473 16.2753 12.7328L16.5371 12.5864ZM17.0636 13.7995C16.933 13.3855 16.756 12.9772 16.5371 12.5863L16.2753 12.7329C16.4845 13.1064 16.6532 13.4958 16.7774 13.8897L17.0636 13.7995ZM17.3742 15.0891C17.2933 14.6312 17.1889 14.1972 17.0636 13.7995L16.7774 13.8897C16.8984 14.2735 16.9998 14.6947 17.0788 15.1413L17.3742 15.0891ZM15.5549 19.1161C15.1689 19.4893 14.6517 19.678 13.9527 19.678V19.978C14.7095 19.978 15.3086 19.7715 15.7635 19.3317L15.5549 19.1161ZM16.1221 17.5605C16.1219 18.2516 15.9309 18.7526 15.555 19.1161L15.7635 19.3318C16.2121 18.8981 16.4219 18.3108 16.4221 17.5605L16.1221 17.5605ZM16.0855 16.4713C16.1097 16.8215 16.1219 17.1879 16.1221 17.5606L16.4221 17.5604C16.4219 17.1814 16.4095 16.8081 16.3847 16.4506L16.0855 16.4713ZM16.0851 16.4606V16.4609H16.3851V16.4606H16.0851ZM15.9432 15.3482C16.0142 15.7515 16.0621 16.1292 16.0854 16.4708L16.3848 16.4504C16.3606 16.0963 16.3112 15.7079 16.2386 15.2961L15.9432 15.3482ZM15.6787 14.247C15.7842 14.5819 15.8733 14.9523 15.9432 15.3482L16.2386 15.2961C16.1667 14.889 16.0747 14.5057 15.9648 14.1569L15.6787 14.247ZM15.2722 13.3119C15.4421 13.6154 15.5788 13.9302 15.6787 14.247L15.9648 14.1569C15.8585 13.8197 15.7135 13.486 15.534 13.1654L15.2722 13.3119ZM14.7288 12.5875C14.9284 12.7815 15.1116 13.0247 15.2722 13.3119L15.534 13.1654C15.3615 12.8569 15.1613 12.5895 14.9379 12.3724L14.7288 12.5875ZM14.0366 12.1511C14.3147 12.263 14.5469 12.4107 14.7288 12.5875L14.9379 12.3724C14.7242 12.1647 14.4577 11.9971 14.1485 11.8728L14.0366 12.1511ZM13.1796 11.9838C13.4958 11.9924 13.7833 12.0494 14.0366 12.1512L14.1485 11.8728C13.858 11.7561 13.5348 11.6934 13.1877 11.684L13.1796 11.9838ZM13.0374 12.0997C13.1513 12.0245 13.2193 11.9851 13.2549 11.9659L13.1124 11.7019C13.0671 11.7263 12.9913 11.7706 12.872 11.8495L13.0374 12.0997ZM12.2242 12.6323C12.5338 12.4314 12.7999 12.2571 13.0376 12.0996L12.8719 11.8495C12.6352 12.0064 12.3699 12.1801 12.0609 12.3807L12.2242 12.6323ZM10.8846 13.2414C11.4176 13.0664 11.869 12.8624 12.2241 12.6324L12.061 12.3806C11.7338 12.5926 11.3077 12.7868 10.7911 12.9564L10.8846 13.2414ZM9.21245 13.5142C9.7717 13.5142 10.3344 13.4221 10.8846 13.2414L10.791 12.9564C10.2697 13.1276 9.7386 13.2142 9.21245 13.2142V13.5142ZM7.54009 13.2412C8.09065 13.4221 8.65319 13.5142 9.21245 13.5142V13.2142C8.68631 13.2142 8.15533 13.1276 7.63371 12.9562L7.54009 13.2412ZM6.20141 12.6327C6.55599 12.8624 7.00757 13.0666 7.54016 13.2413L7.63365 12.9562C7.11748 12.7869 6.69125 12.5926 6.36449 12.3809L6.20141 12.6327ZM5.38737 12.0997C5.62499 12.257 5.89875 12.4364 6.20131 12.6327L6.36459 12.381C6.06271 12.1851 5.78972 12.0062 5.55298 11.8495L5.38737 12.0997ZM5.16998 11.9659C5.20564 11.9851 5.27369 12.0244 5.38734 12.0996L5.55301 11.8495C5.43354 11.7704 5.35769 11.7263 5.31254 11.7019L5.16998 11.9659ZM4.38861 12.1511C4.64177 12.0494 4.92927 11.9924 5.24533 11.9838L5.23719 11.684C4.89023 11.6934 4.56699 11.7561 4.2767 11.8728L4.38861 12.1511ZM3.69627 12.5875C3.87818 12.4106 4.11026 12.263 4.3886 12.1511L4.27671 11.8728C3.96744 11.9971 3.70083 12.1646 3.48709 12.3724L3.69627 12.5875ZM3.15283 13.3118C3.31343 13.0249 3.49663 12.7817 3.69626 12.5875L3.4871 12.3724C3.26374 12.5897 3.06362 12.857 2.89106 13.1652L3.15283 13.3118ZM2.74652 14.2472C2.84652 13.9301 2.98311 13.6153 3.15287 13.3117L2.89102 13.1653C2.71169 13.4861 2.5668 13.8196 2.46041 14.157L2.74652 14.2472ZM2.48215 15.3484C2.55223 14.9521 2.6412 14.5815 2.74653 14.2472L2.4604 14.157C2.35063 14.5054 2.25875 14.8889 2.18674 15.2962L2.48215 15.3484ZM2.3399 16.4707C2.36321 16.1283 2.41097 15.7509 2.48215 15.3484L2.18674 15.2962C2.11402 15.7073 2.06475 16.0956 2.04059 16.4503L2.3399 16.4707ZM2.30374 17.5605C2.30374 17.1889 2.31581 16.8223 2.33989 16.4707L2.0406 16.4502C2.01601 16.8091 2.00374 17.1825 2.00374 17.5605H2.30374ZM2.87071 19.1162C2.49472 18.7526 2.30374 18.2515 2.30374 17.5605H2.00374C2.00374 18.3106 2.21352 18.898 2.66217 19.3319L2.87071 19.1162ZM4.47295 19.678C3.77377 19.678 3.25655 19.4893 2.8707 19.1162L2.66218 19.3319C3.11689 19.7715 3.71601 19.978 4.47295 19.978V19.678ZM13.9527 19.678H4.47295V19.978H13.9527V19.678Z" fill="#1D2338"/>
</svg>
