<svg width="49" height="32" viewBox="0 0 49 32" fill="none" xmlns="http://www.w3.org/2000/svg">
<path fill-rule="evenodd" clip-rule="evenodd" d="M3.79486 28.2808C5.8964 25.892 7.46874 23.4125 8.46656 20.9028C3.53787 19.9654 0 15.596 0 10.6068C0 7.61327 1.27003 4.74065 3.49247 2.72981C5.71499 0.734096 8.70851 -0.248574 11.7172 0.0538196C17.1449 0.613219 21.3176 5.51173 21.2119 11.2115C20.9246 25.9978 10.5378 30.6091 6.09297 31.9093C5.88129 31.985 5.66959 32 5.45791 32C4.70197 32 4.00656 31.6372 3.58318 30.9719C3.03892 30.1253 3.12963 29.0368 3.79486 28.2808ZM30.4215 2.72981C32.6439 0.734096 35.6374 -0.248574 38.631 0.0538196C44.0133 0.613219 48.1408 5.39075 48.1408 10.9999V11.2115C47.8535 25.9978 37.4668 30.6091 33.0219 31.9093C32.8102 31.9849 32.5985 32 32.3869 32C31.631 32 30.9355 31.6371 30.5122 30.9719C29.9678 30.1253 30.0585 29.0367 30.7238 28.2808C32.8253 25.892 34.3977 23.4125 35.3955 20.9028C30.4668 19.9654 26.9289 15.596 26.9289 10.6068C26.9289 7.61327 28.1989 4.74065 30.4215 2.72981Z" fill="white"/>
</svg>
