<svg width="55" height="53" viewBox="0 0 55 53" fill="none" xmlns="http://www.w3.org/2000/svg">
<path fill-rule="evenodd" clip-rule="evenodd" d="M37.9225 11.5075C35.6239 11.5075 33.2781 10.9506 33.2781 10.9506C31.8233 9.86878 28.8142 2.3941 30.6639 1.27518C32.2041 0.34442 34.3199 1.74048 35.9446 2.81251C36.5647 3.22167 37.1133 3.58362 37.531 3.75099C38.1362 3.99308 39.0226 3.19921 39.9944 2.32877C41.4614 1.01478 43.1233 -0.473688 44.307 1.16379C46.0672 3.60416 43.0665 10.5253 41.7316 11.1818C41.7316 11.1818 40.2194 11.5075 37.9225 11.5075ZM49.7818 30.8667C52.6576 30.8667 55 33.2092 55 36.0867C55 37.4875 54.4397 38.7532 53.5335 39.6865H53.5486C53.5486 39.6865 53.0575 40.4611 49.0729 44.3765C48.7934 44.6501 48.5358 44.9016 48.2977 45.1341C47.5251 45.8886 46.9574 46.4429 46.5111 46.8996C45.7668 47.6202 44.9685 48.2767 44.1247 48.8708C44.0791 48.9113 44.0454 48.9366 44.0099 48.9619L44.0066 48.9585C41.0278 51.0276 37.4449 52.2579 33.273 52.2579C29.1585 52.2579 25.3578 51.0614 22.2728 49.0497C19.8409 47.5375 17.7346 46.9941 15.6774 47.3401C15.5457 49.2151 15.4242 50.5365 15.4242 50.5365H1.60392C1.60392 50.5365 0.998047 45.4769 0.998047 39.2376C0.998047 32.9983 1.60392 27.9353 1.60392 27.9353H15.4259C15.4259 27.9353 15.4698 28.4061 15.5322 29.1774C17.652 28.7133 19.8932 28.4618 22.2205 28.4618C23.12 28.4618 24.0026 28.4956 24.8701 28.5546C24.7705 28.0045 24.7148 27.4273 24.7148 26.8214C24.7148 23.2267 29.7458 14.9858 32.6182 12.6652C34.2552 13.0281 35.9935 13.2256 37.8061 13.2256C39.5629 13.2256 41.2574 13.0399 42.8505 12.6973C45.7584 15.3402 50.2138 23.3347 50.2138 26.8197C50.2138 28.3133 49.9303 29.6736 49.4139 30.8954C49.4631 30.8927 49.5123 30.8875 49.5618 30.8822C49.6344 30.8745 49.7075 30.8667 49.7818 30.8667ZM35.0029 21.6774C34.7767 21.917 34.5928 22.1938 34.4645 22.5043C34.3362 22.8166 34.2704 23.1474 34.2789 23.4899C34.2789 23.7262 34.316 23.9996 34.3953 24.3034C34.4712 24.6089 34.6417 24.9093 34.8898 25.2029C35.1429 25.4966 35.5024 25.7649 35.9665 26.0113C36.4323 26.256 37.0517 26.4434 37.8297 26.5615C38.0508 26.5986 38.2719 26.6476 38.498 26.7066C38.7225 26.7657 38.9267 26.845 39.1123 26.9446C39.2997 27.0492 39.4532 27.1674 39.5697 27.3075C39.6861 27.4526 39.7486 27.6197 39.7486 27.8104C39.7486 28.0416 39.6355 28.2239 39.406 28.3656C39.1748 28.5074 38.8879 28.5766 38.5419 28.5766C38.2752 28.5766 38.0407 28.5563 37.8331 28.5192C37.6289 28.477 37.4432 28.4146 37.2728 28.3251C37.0989 28.2441 36.9369 28.131 36.7783 27.9994C36.6146 27.8644 36.4576 27.7091 36.2906 27.5252H34.37V30.4026H36.2906V29.9807C36.3123 29.9912 36.3337 30.0018 36.3549 30.0123C36.426 30.0474 36.4953 30.0817 36.5707 30.109C36.6301 30.1337 36.686 30.159 36.7431 30.1849C36.7835 30.2032 36.8244 30.2218 36.8677 30.2406V31.3646H38.7883V30.5005C39.2001 30.4718 39.5849 30.3858 39.9376 30.2406C40.2853 30.0921 40.5941 29.9014 40.8456 29.6634C41.1021 29.4305 41.3012 29.1504 41.4481 28.8331C41.5966 28.5226 41.6692 28.18 41.6692 27.8138C41.6692 27.623 41.6337 27.3783 41.5645 27.0695C41.4953 26.7623 41.3367 26.4501 41.0903 26.1362C40.8405 25.8189 40.481 25.527 40.0152 25.2569C39.5444 24.9903 38.9115 24.7945 38.1166 24.6764C36.8323 24.4823 36.1927 24.0908 36.1927 23.4967C36.1927 23.2857 36.2973 23.09 36.5015 22.906C36.7091 22.7254 37.0011 22.6326 37.3858 22.6326C37.6525 22.6326 37.8803 22.6562 38.0778 22.7018C38.2736 22.7474 38.4491 22.8149 38.6162 22.8993C38.7782 22.9836 38.9334 23.0967 39.082 23.2284C39.2271 23.36 39.3807 23.5136 39.5359 23.6857H41.47V20.8082H39.5478V21.2167C39.3182 21.0816 39.0634 20.9703 38.7799 20.8909V19.8463H36.8593V20.7526C36.4863 20.8082 36.1437 20.9129 35.8264 21.0749C35.5125 21.2318 35.2391 21.4327 35.0029 21.6774ZM49.9471 40.0439C50.762 39.2111 51.5183 38.4381 51.8289 38.1305C52.2356 37.587 52.5782 36.8613 52.5749 36.0934C52.5749 34.5509 51.3192 33.2953 49.7801 33.2953C49.1759 33.2953 48.7979 33.3915 48.4316 33.6244C48.2342 33.7948 47.9557 34.0379 47.6367 34.3214C47.6325 34.3256 47.6281 34.3297 47.6235 34.334C47.6132 34.3435 47.6017 34.3541 47.5878 34.3703V34.367C45.8579 35.9061 42.8117 38.7211 41.9982 40.073V40.0696C41.3519 42.2079 39.3655 43.7808 37.0112 43.7842V43.801C35.1328 43.7538 32.4832 43.0618 28.4615 41.5328L29.3255 39.2646C33.1296 40.721 35.3826 41.3252 36.8222 41.3742L36.8289 41.3438C36.8592 41.3454 36.8876 41.35 36.9149 41.3544C36.9453 41.3593 36.9743 41.364 37.0027 41.364C38.5453 41.364 39.8009 40.1084 39.8009 38.5659C39.8009 37.8503 39.5207 37.2006 39.0769 36.7061C35.3117 33.1063 29.1635 30.8094 22.2154 30.8094C19.9421 30.8094 17.7532 31.0676 15.7061 31.5283C15.8596 33.8218 16.0284 36.8056 16.0284 39.2409C16.0284 40.9911 15.9423 43.0281 15.8343 44.8879C18.5278 44.6229 21.2501 45.4938 23.574 46.908H23.5909C26.2742 48.7442 29.6293 49.8412 33.2713 49.8412C36.8779 49.8412 40.2076 48.7577 42.8809 46.9502C43.2201 46.7004 43.5526 46.4456 43.8699 46.1604L43.8817 46.1688C44.334 45.6423 45.301 44.6887 47.3735 42.6551C47.8196 42.2183 48.9291 41.0844 49.9471 40.0439Z" fill="#25B4B6"/>
</svg>
