<svg width="61" height="62" viewBox="0 0 61 62" fill="none" xmlns="http://www.w3.org/2000/svg">
<path fill-rule="evenodd" clip-rule="evenodd" d="M32.2876 0H28.7124V11.9383H32.2876V0ZM30.5 31.6716L10.3785 25.0017L30.5 18.332L50.6215 25.0017L30.5 31.6716ZM33.2286 34.5338L55.5362 27.1393L61 35.8182L38.6924 43.2128L33.2286 34.5338ZM28.7125 39.7498L23.8412 47.4876L6.48476 41.7342V53.6499L28.7125 61.018V39.7498ZM32.2876 39.7498L37.1589 47.4876L54.5153 41.7342V53.6499L32.2876 61.018V39.7498ZM22.3077 43.2128L27.7714 34.5338L5.46385 27.1393L0 35.8182L22.3077 43.2128ZM11.8991 5.46289L14.9953 3.67525L20.9645 14.0138L17.8683 15.8015L11.8991 5.46289ZM46.0042 3.67646L40.035 14.015L43.1312 15.8027L49.1003 5.4641L46.0042 3.67646Z" fill="#25B4B6"/>
</svg>
