<svg width="48" height="48" viewBox="0 0 48 48" fill="none" xmlns="http://www.w3.org/2000/svg">
<path fill-rule="evenodd" clip-rule="evenodd" d="M48 29.3333C48 27.8613 46.8053 26.6667 45.3333 26.6667H29.3333C27.8613 26.6667 26.6667 27.8613 26.6667 29.3333V45.3333C26.6667 46.8053 27.8613 48 29.3333 48H45.3333C46.8053 48 48 46.8053 48 45.3333V29.3333ZM12.2293 40H8C5.87733 40 3.84267 39.1573 2.344 37.656C0.842666 36.1573 0 34.1227 0 32C0 31.7093 0 30.5147 0 29.3307C0 27.8587 1.19467 26.664 2.66667 26.664C4.13867 26.664 5.33333 27.8587 5.33333 29.3307V32C5.33333 32.7067 5.61333 33.3867 6.11467 33.8853C6.61333 34.3867 7.29333 34.6667 8 34.6667H12.2293L11.448 33.8853C10.408 32.8453 10.408 31.1547 11.448 30.1147C12.488 29.0747 14.1787 29.0747 15.2187 30.1147L20.552 35.448C21.5947 36.488 21.5947 38.1787 20.552 39.2187L15.2187 44.552C14.1787 45.592 12.488 45.592 11.448 44.552C10.408 43.512 10.408 41.8213 11.448 40.7813L12.2293 40ZM32 32V42.6667H42.6667V32H32ZM35.7707 13.3333L36.552 14.1147C37.592 15.1547 37.592 16.8453 36.552 17.8853C35.512 18.9253 33.8213 18.9253 32.7813 17.8853L27.448 12.552C26.4053 11.512 26.4053 9.82133 27.448 8.78133L32.7813 3.448C33.8213 2.408 35.512 2.408 36.552 3.448C37.592 4.488 37.592 6.17867 36.552 7.21867L35.7707 8H40C42.1227 8 44.1573 8.84267 45.656 10.344C47.1573 11.8427 48 13.8773 48 16V18.6693C48 20.1413 46.8053 21.336 45.3333 21.336C43.8613 21.336 42.6667 20.1413 42.6667 18.6693C42.6667 17.4853 42.6667 16.2907 42.6667 16C42.6667 15.2933 42.3867 14.6133 41.8853 14.1147C41.3867 13.6133 40.7067 13.3333 40 13.3333H35.7707ZM21.3333 2.66667C21.3333 1.19467 20.1387 0 18.6667 0H2.66667C1.19467 0 0 1.19467 0 2.66667V18.6667C0 20.1387 1.19467 21.3333 2.66667 21.3333H18.6667C20.1387 21.3333 21.3333 20.1387 21.3333 18.6667V2.66667ZM5.33333 5.33333V16H16V5.33333H5.33333Z" fill="#25B4B6"/>
</svg>
