<svg width="155" height="69" viewBox="0 0 155 69" fill="none" xmlns="http://www.w3.org/2000/svg">
<path d="M155 63L145.025 57.1836L144.975 68.7305L155 63ZM0.0012064 1.04911C0.0692555 2.43321 0.234867 3.81461 0.497141 5.19073L2.46178 4.81629C2.21664 3.53009 2.06222 2.24098 1.99879 0.950895L0.0012064 1.04911ZM3.09315 13.0894C4.21744 15.483 5.64017 17.8415 7.35427 20.1524L8.96061 18.961C7.31884 16.7476 5.96656 14.5026 4.90341 12.2392L3.09315 13.0894ZM12.7629 26.3443C14.622 28.1823 16.6787 29.9812 18.93 31.734L20.1586 30.1559C17.9646 28.4476 15.9678 26.7004 14.169 24.922L12.7629 26.3443ZM25.6092 36.433C27.8204 37.8441 30.1706 39.2182 32.6584 40.551L33.6029 38.788C31.1572 37.4778 28.851 36.1292 26.6851 34.747L25.6092 36.433ZM39.949 44.1562C42.3415 45.2489 44.838 46.3074 47.4377 47.3288L48.1691 45.4673C45.6014 44.4585 43.1381 43.4141 40.7799 42.337L39.949 44.1562ZM55.0614 50.1152C57.5664 50.9662 60.154 51.7854 62.8234 52.5705L63.3878 50.6518C60.7439 49.8742 58.1827 49.0634 55.7048 48.2215L55.0614 50.1152ZM70.6351 54.7099C73.1963 55.3618 75.8245 55.9842 78.5192 56.5755L78.9478 54.622C76.2742 54.0353 73.6676 53.418 71.1285 52.7717L70.6351 54.7099ZM86.4645 58.1912C89.0715 58.6809 91.7351 59.1429 94.4548 59.5758L94.7692 57.6006C92.0674 57.1706 89.4221 56.7118 86.8337 56.2256L86.4645 58.1912ZM102.478 60.7459C105.111 61.0959 107.794 61.4197 110.524 61.7162L110.74 59.7279C108.025 59.433 105.359 59.1112 102.741 58.7633L102.478 60.7459ZM118.586 62.5C121.235 62.728 123.927 62.9312 126.66 63.1088L126.79 61.113C124.07 60.9363 121.393 60.7342 118.758 60.5074L118.586 62.5ZM134.742 63.5529C137.4 63.6729 140.096 63.7693 142.829 63.8414L142.882 61.8421C140.161 61.7703 137.478 61.6743 134.832 61.5549L134.742 63.5529Z" fill="#1D2338"/>
</svg>
