<svg width="296" height="228" viewBox="0 0 296 228" fill="none" xmlns="http://www.w3.org/2000/svg">
<path d="M98.528 42.8291C100.997 37.552 104.122 32.4598 108.052 27.6533C138.909 -10.118 199.54 -6.93329 235.1 23.5107C274.532 57.2738 270.887 114.095 270.081 123.808C267.275 157.588 249.747 212.561 209.433 223.762C190.704 228.963 172.832 223.115 157.244 212.258C144.931 203.687 128.696 204.485 116.946 214.535C112.503 218.333 107.548 221.552 102.039 223.821C89.5833 228.972 78.4886 227.594 73.6845 226.93C36.2346 221.795 -0.341936 179.142 0.00241238 139.253C0.388754 93.4906 49.345 58.383 98.528 42.8291Z" fill="#1D2338" fill-opacity="0.1"/>
<path d="M237.166 103.221V193.208C237.166 193.317 237.157 193.427 237.157 193.544C237.157 193.595 237.149 193.645 237.149 193.704C237.149 193.754 237.14 193.805 237.14 193.855C237.14 193.872 237.132 193.897 237.132 193.914C237.124 193.948 237.124 193.981 237.115 194.015C237.107 194.091 237.098 194.175 237.082 194.25C237.073 194.326 237.056 194.401 237.04 194.477C237.031 194.511 237.023 194.553 237.014 194.586C237.014 194.612 237.006 194.645 236.998 194.67C236.989 194.704 236.981 194.746 236.972 194.78C236.956 194.847 236.939 194.914 236.922 194.981C236.922 194.99 236.914 195.006 236.914 195.015C236.88 195.133 236.846 195.242 236.804 195.351C236.804 195.359 236.804 195.359 236.796 195.368C236.779 195.427 236.754 195.485 236.737 195.536C236.72 195.586 236.695 195.637 236.678 195.679C236.67 195.696 236.662 195.712 236.662 195.721C236.603 195.864 236.536 196.006 236.46 196.141C236.443 196.183 236.41 196.233 236.384 196.284C236.359 196.334 236.334 196.376 236.309 196.418C236.284 196.46 236.258 196.511 236.233 196.553C236.183 196.645 236.124 196.729 236.065 196.813C236.032 196.872 235.99 196.914 235.965 196.973C235.872 197.09 235.797 197.2 235.696 197.309C235.629 197.393 235.561 197.469 235.494 197.544C235.427 197.62 235.351 197.695 235.284 197.771C235.251 197.805 235.217 197.838 235.183 197.872C235.15 197.906 235.125 197.931 235.083 197.964C235.049 197.998 235.007 198.04 234.965 198.074C234.957 198.082 234.94 198.09 234.931 198.107C234.831 198.2 234.73 198.275 234.621 198.359C234.612 198.368 234.604 198.376 234.587 198.384C234.503 198.443 234.419 198.502 234.335 198.561C234.302 198.578 234.276 198.603 234.251 198.62C234.201 198.653 234.159 198.679 234.108 198.712C234.075 198.737 234.033 198.763 233.991 198.779C233.949 198.805 233.907 198.83 233.865 198.855C233.571 199.023 233.269 199.166 232.949 199.275C232.933 199.284 232.916 199.292 232.891 199.292C232.874 199.3 232.84 199.309 232.823 199.309C232.748 199.334 232.681 199.359 232.597 199.384C232.462 199.426 232.336 199.46 232.202 199.485C232.135 199.502 232.068 199.519 232 199.536C231.958 199.544 231.908 199.552 231.866 199.552C231.816 199.561 231.757 199.569 231.706 199.586C231.698 199.586 231.69 199.586 231.69 199.595C231.648 199.603 231.606 199.603 231.555 199.611C231.538 199.611 231.513 199.62 231.496 199.62C231.463 199.628 231.421 199.628 231.379 199.637C231.362 199.637 231.337 199.645 231.312 199.645C231.236 199.653 231.152 199.653 231.068 199.662C230.951 199.67 230.841 199.67 230.724 199.67H71.8281C71.7105 199.67 71.6013 199.662 71.4837 199.662C71.4081 199.653 71.3241 199.653 71.2401 199.645C71.1478 199.637 71.0638 199.628 70.9714 199.611C70.921 199.603 70.8706 199.603 70.8202 199.595C70.6942 199.578 70.5682 199.552 70.4507 199.527C70.4171 199.519 70.3835 199.51 70.3499 199.502C70.2155 199.468 70.0895 199.443 69.9551 199.401C69.8796 199.376 69.804 199.351 69.7284 199.326C69.3756 199.208 69.0397 199.057 68.7205 198.88C68.6449 198.83 68.561 198.788 68.4854 198.737C68.393 198.687 68.309 198.628 68.225 198.569C67.7127 198.216 67.2507 197.805 66.856 197.326C66.7636 197.216 66.6712 197.099 66.5872 196.981C66.3017 196.586 66.0581 196.158 65.8734 195.696C65.8314 195.595 65.7894 195.477 65.7474 195.368C65.7054 195.259 65.6718 195.141 65.6382 195.032C65.6046 194.914 65.5794 194.805 65.5458 194.687C65.5206 194.578 65.4954 194.477 65.4786 194.368C65.4702 194.351 65.4702 194.334 65.4702 194.317C65.4534 194.217 65.4366 194.107 65.4282 193.998C65.4198 193.99 65.4198 193.981 65.4198 193.973C65.4114 193.889 65.403 193.813 65.403 193.729C65.3862 193.57 65.3862 193.41 65.3862 193.242V103.221C65.3862 102.448 65.5206 101.708 65.7726 101.019C66.1673 99.9269 66.8476 98.9774 67.7295 98.2547C67.7379 98.2463 67.7547 98.2379 67.7715 98.2211L68.1074 97.969C69.1573 97.2211 70.4339 96.7842 71.8197 96.7842H230.715C230.875 96.7842 231.026 96.7926 231.177 96.801C231.202 96.7926 231.236 96.801 231.261 96.8094C231.404 96.8178 231.555 96.8346 231.698 96.8598C231.732 96.8682 231.765 96.8682 231.799 96.8766C231.925 96.8934 232.051 96.927 232.168 96.9522C232.202 96.9606 232.227 96.9606 232.261 96.969C232.412 97.0027 232.555 97.0447 232.706 97.0951C232.84 97.1371 232.983 97.1875 233.109 97.2379C233.294 97.3136 233.479 97.3976 233.655 97.49C233.756 97.5404 233.856 97.5909 233.949 97.6497C234.117 97.7421 234.276 97.8514 234.428 97.9606C234.436 97.9522 234.436 97.9606 234.436 97.9606L234.772 98.2127C234.789 98.2211 234.805 98.2295 234.814 98.2463C234.906 98.3135 234.982 98.3891 235.057 98.4564C235.116 98.5068 235.175 98.5656 235.234 98.6244C235.41 98.7925 235.578 98.9774 235.738 99.179C235.813 99.2715 235.881 99.3555 235.939 99.4479C236.208 99.8176 236.443 100.221 236.62 100.65C236.67 100.767 236.72 100.885 236.762 101.002C236.762 101.011 236.771 101.011 236.771 101.019C236.846 101.213 236.905 101.414 236.956 101.607C236.981 101.708 237.006 101.801 237.023 101.902C237.04 101.977 237.056 102.053 237.065 102.128C237.082 102.204 237.09 102.288 237.098 102.364C237.115 102.456 237.124 102.549 237.132 102.641C237.14 102.717 237.149 102.801 237.149 102.885C237.157 102.994 237.166 103.112 237.166 103.221Z" fill="#DFE5EA"/>
<path d="M236.779 101.019H65.7812C66.176 99.9271 66.8563 98.9775 67.7382 98.2549C67.7466 98.2465 67.7634 98.2381 67.7802 98.2213L68.1161 97.9692L147.341 37.8039C149.668 36.0309 152.893 36.0309 155.228 37.8039L234.445 97.9692C234.453 97.9608 234.453 97.9692 234.453 97.9692L234.789 98.2213C234.806 98.2297 234.823 98.2381 234.831 98.2549C234.923 98.3221 234.999 98.3977 235.075 98.4649C235.133 98.5154 235.192 98.5742 235.251 98.633C235.427 98.8011 235.595 98.9859 235.755 99.1876C235.83 99.28 235.898 99.3641 235.956 99.4565C236.225 99.8262 236.46 100.23 236.637 100.658C236.687 100.776 236.737 100.893 236.779 101.011C236.771 101.011 236.779 101.011 236.779 101.019Z" fill="#25B4B6"/>
<path d="M224.828 194.956H75.6074V59.4922C75.6074 53.1311 80.7642 47.9717 87.1221 47.9717H213.305C219.662 47.9717 224.819 53.1311 224.819 59.4922V194.956H224.828Z" fill="white"/>
<path d="M205.04 80.4912H95.3949C93.8579 80.4912 92.5981 79.2307 92.5981 77.693V76.5081C92.5981 74.9704 93.8579 73.71 95.3949 73.71H205.04C206.577 73.71 207.837 74.9704 207.837 76.5081V77.693C207.837 79.2307 206.577 80.4912 205.04 80.4912Z" fill="white"/>
<path d="M205.04 94.9692H95.3949C93.8579 94.9692 92.5981 93.7087 92.5981 92.171V90.9862C92.5981 89.4484 93.8579 88.188 95.3949 88.188H205.04C206.577 88.188 207.837 89.4484 207.837 90.9862V92.171C207.837 93.7087 206.577 94.9692 205.04 94.9692Z" fill="white"/>
<path d="M205.04 109.448H95.3949C93.8579 109.448 92.5981 108.187 92.5981 106.65V105.465C92.5981 103.927 93.8579 102.667 95.3949 102.667H205.04C206.577 102.667 207.837 103.927 207.837 105.465V106.65C207.837 108.187 206.577 109.448 205.04 109.448Z" fill="white"/>
<path d="M205.04 123.926H95.3949C93.8579 123.926 92.5981 122.666 92.5981 121.128V119.943C92.5981 118.405 93.8579 117.145 95.3949 117.145H205.04C206.577 117.145 207.837 118.405 207.837 119.943V121.128C207.837 122.666 206.577 123.926 205.04 123.926Z" fill="white"/>
<path d="M205.04 138.404H95.3949C93.8579 138.404 92.5981 137.144 92.5981 135.606V134.421C92.5981 132.883 93.8579 131.623 95.3949 131.623H205.04C206.577 131.623 207.837 132.883 207.837 134.421V135.606C207.837 137.144 206.577 138.404 205.04 138.404Z" fill="white"/>
<path d="M151.28 150.622C151.028 150.899 150.734 151.151 150.398 151.353L72.1891 199.637H71.8364C71.1813 199.637 70.5598 199.544 69.9718 199.359C69.8879 199.334 69.8039 199.309 69.7283 199.284C68.7036 198.931 67.7882 198.317 67.0743 197.527C67.0071 197.452 66.9399 197.376 66.8727 197.292C66.6711 197.057 66.4948 196.805 66.3352 196.536C66.2764 196.443 66.2344 196.359 66.1756 196.267C66.1252 196.174 66.0748 196.082 66.0328 195.981C65.6297 195.133 65.3945 194.191 65.3945 193.191V103.221C65.3945 102.448 65.5289 101.708 65.7809 101.019C66.1756 99.9269 66.8559 98.9774 67.7378 98.2547C67.7462 98.2463 67.763 98.2379 67.7798 98.2211L68.1157 97.969C69.1656 97.2211 70.4422 96.7842 71.828 96.7842H73.2977L80.1679 101.019L143.469 140.101L145.854 141.572L150.398 144.379C150.734 144.589 151.036 144.841 151.28 145.11V145.118C152.691 146.656 152.691 149.084 151.28 150.622Z" fill="#25B4B6"/>
<path d="M237.165 103.221V193.208C237.165 193.317 237.157 193.427 237.157 193.544C237.157 193.595 237.148 193.645 237.148 193.704C237.148 193.754 237.14 193.805 237.14 193.855C237.14 193.872 237.132 193.897 237.132 193.914C237.123 193.948 237.123 193.981 237.115 194.015C237.106 194.09 237.098 194.175 237.081 194.25C237.073 194.326 237.056 194.401 237.039 194.477C237.039 194.485 237.031 194.502 237.031 194.511C237.022 194.527 237.022 194.561 237.014 194.586C237.014 194.611 237.006 194.645 236.997 194.67C236.989 194.704 236.98 194.746 236.972 194.78C236.955 194.847 236.938 194.914 236.922 194.981C236.922 194.99 236.913 195.006 236.913 195.015C236.88 195.132 236.846 195.242 236.804 195.351C236.804 195.359 236.804 195.359 236.796 195.368C236.779 195.427 236.762 195.477 236.737 195.536C236.72 195.586 236.703 195.628 236.678 195.679C236.67 195.687 236.67 195.704 236.661 195.721C236.602 195.864 236.535 196.006 236.46 196.141C236.443 196.183 236.409 196.233 236.384 196.284C236.359 196.334 236.334 196.376 236.308 196.418C236.283 196.46 236.258 196.511 236.233 196.553C236.183 196.645 236.124 196.729 236.065 196.813C236.031 196.872 235.989 196.914 235.964 196.973C235.872 197.09 235.788 197.2 235.695 197.309C235.628 197.393 235.561 197.468 235.494 197.544C235.427 197.62 235.351 197.695 235.284 197.771C235.25 197.805 235.217 197.838 235.183 197.872C235.149 197.905 235.124 197.931 235.082 197.964C235.049 197.998 235.007 198.04 234.965 198.073C234.956 198.082 234.939 198.09 234.931 198.107C234.83 198.2 234.73 198.275 234.62 198.359C234.612 198.368 234.604 198.376 234.587 198.384C234.503 198.443 234.419 198.502 234.335 198.561C234.301 198.578 234.276 198.603 234.251 198.62C234.2 198.653 234.158 198.679 234.108 198.712C234.074 198.737 234.032 198.763 233.99 198.779C233.948 198.805 233.906 198.83 233.864 198.855C233.57 199.023 233.268 199.166 232.949 199.275C232.932 199.284 232.907 199.292 232.89 199.292C232.873 199.3 232.84 199.309 232.823 199.309C232.747 199.334 232.68 199.359 232.596 199.384C232.462 199.426 232.336 199.46 232.202 199.485C232.134 199.502 232.067 199.519 232 199.536C231.958 199.544 231.908 199.552 231.866 199.552C231.815 199.561 231.756 199.569 231.706 199.586H231.689C231.639 199.594 231.597 199.603 231.555 199.603C231.538 199.603 231.513 199.611 231.496 199.611C231.462 199.62 231.42 199.62 231.378 199.628C231.362 199.628 231.336 199.636 231.311 199.636C231.236 199.645 231.152 199.645 231.068 199.653C230.95 199.662 230.841 199.662 230.723 199.662H230.371L152.162 151.378C151.826 151.168 151.523 150.916 151.28 150.647V150.639C149.86 149.093 149.86 146.681 151.28 145.126V145.118C151.523 144.849 151.826 144.597 152.162 144.387L156.697 141.58L159.082 140.11L222.392 101.028L229.262 96.7925H230.732C230.891 96.7925 231.042 96.8009 231.194 96.8093C231.219 96.8009 231.252 96.8093 231.278 96.8177C231.42 96.8261 231.572 96.8429 231.714 96.8681C231.748 96.8765 231.782 96.8765 231.815 96.8849C231.941 96.9017 232.067 96.9353 232.185 96.9605C232.218 96.9689 232.244 96.9689 232.277 96.9774C232.428 97.011 232.571 97.053 232.722 97.1034C232.857 97.1454 232.999 97.1958 233.125 97.2462C233.31 97.3219 233.495 97.4059 233.671 97.4983C233.772 97.5487 233.873 97.5992 233.965 97.658C234.133 97.7504 234.293 97.8597 234.444 97.9689C234.452 97.9605 234.452 97.9689 234.452 97.9689L234.788 98.221C234.805 98.2294 234.822 98.2378 234.83 98.2546C234.923 98.3218 234.998 98.3974 235.074 98.4647C235.133 98.5151 235.191 98.5739 235.25 98.6327C235.427 98.8008 235.595 98.9857 235.754 99.1873C235.83 99.2798 235.897 99.3638 235.956 99.4562C236.225 99.826 236.46 100.229 236.636 100.658C236.686 100.775 236.737 100.893 236.779 101.011C236.779 101.019 236.787 101.019 236.787 101.028C236.863 101.221 236.922 101.423 236.972 101.616C236.997 101.717 237.022 101.809 237.039 101.91C237.056 101.986 237.073 102.061 237.081 102.137C237.098 102.212 237.106 102.296 237.115 102.372C237.132 102.464 237.14 102.557 237.148 102.649C237.157 102.725 237.165 102.809 237.165 102.893C237.157 102.994 237.165 103.112 237.165 103.221Z" fill="#25B4B6"/>
<path opacity="0.29" d="M237.165 191.981V192.914C237.165 196.628 234.285 199.636 230.732 199.636H71.828C68.2753 199.636 65.3945 196.628 65.3945 192.914V191.981L147.123 138.185C149.659 136.513 152.893 136.513 155.429 138.185L237.165 191.981Z" fill="#474747"/>
<path d="M237.165 192.309V193.208C237.165 196.763 234.285 199.645 230.732 199.645H71.828C68.2753 199.645 65.3945 196.763 65.3945 193.208V192.309L147.123 140.765C149.659 139.169 152.893 139.169 155.429 140.765L237.165 192.309Z" fill="#25B4B6"/>
<path d="M143.217 66.0127H95.3949C93.8579 66.0127 92.5981 64.7522 92.5981 63.2145V62.0296C92.5981 60.4919 93.8579 59.2314 95.3949 59.2314H143.217C144.754 59.2314 146.014 60.4919 146.014 62.0296V63.2145C146.006 64.7606 144.746 66.0127 143.217 66.0127Z" fill="#25B4B6"/>
<path d="M87.559 187.259C87.5422 187.259 87.5338 187.259 87.517 187.259C85.6105 187.184 83.6956 187.016 81.8143 186.772C81.2348 186.696 80.8316 186.167 80.9072 185.587C80.9828 185.007 81.5119 184.596 82.0914 184.68C83.9056 184.923 85.7533 185.083 87.601 185.15C88.1805 185.175 88.6341 185.663 88.6089 186.243C88.5921 186.814 88.1217 187.259 87.559 187.259ZM93.1778 187.226C92.6151 187.226 92.1531 186.789 92.1279 186.217C92.1027 185.638 92.5479 185.142 93.1274 185.108C94.9499 185.024 96.7976 184.848 98.637 184.604C99.2165 184.528 99.7456 184.932 99.8212 185.512C99.8968 186.091 99.4936 186.621 98.9141 186.696C97.016 186.948 95.1011 187.125 93.2282 187.217C93.2198 187.226 93.1946 187.226 93.1778 187.226ZM76.4223 185.772C76.3467 185.772 76.2627 185.764 76.1871 185.747C74.3394 185.318 72.4833 184.806 70.6776 184.201C70.1232 184.016 69.8293 183.419 70.0057 182.865C70.1904 182.31 70.7868 182.008 71.3411 182.192C73.088 182.772 74.8769 183.276 76.6575 183.68C77.2286 183.814 77.5813 184.377 77.4469 184.949C77.3378 185.444 76.901 185.772 76.4223 185.772ZM104.323 185.755C103.836 185.755 103.399 185.419 103.29 184.923C103.164 184.352 103.533 183.789 104.096 183.671C105.885 183.285 107.691 182.823 109.471 182.302C110.034 182.142 110.614 182.453 110.782 183.016C110.949 183.579 110.63 184.159 110.068 184.327C108.237 184.865 106.381 185.344 104.541 185.738C104.466 185.747 104.398 185.755 104.323 185.755ZM115.107 182.587C114.679 182.587 114.275 182.327 114.116 181.898C113.914 181.352 114.191 180.747 114.737 180.545C116.459 179.907 118.189 179.193 119.869 178.428C120.398 178.184 121.028 178.419 121.263 178.957C121.507 179.487 121.272 180.117 120.734 180.352C119.004 181.134 117.232 181.865 115.468 182.529C115.359 182.562 115.233 182.587 115.107 182.587ZM65.7475 182.251C65.6131 182.251 65.4704 182.226 65.336 182.167C63.631 181.436 61.8925 180.613 60.1791 179.73C59.6584 179.461 59.4569 178.823 59.7256 178.31C59.9944 177.789 60.6327 177.588 61.145 177.856C62.8163 178.722 64.5045 179.52 66.1674 180.235C66.705 180.461 66.9485 181.083 66.7218 181.621C66.5454 182.008 66.159 182.251 65.7475 182.251ZM125.353 177.94C124.975 177.94 124.614 177.739 124.421 177.386C124.144 176.873 124.337 176.235 124.849 175.957C126.336 175.159 127.747 174.327 129.04 173.495C129.527 173.184 130.183 173.327 130.493 173.815C130.804 174.302 130.661 174.957 130.174 175.268C128.83 176.125 127.377 176.983 125.849 177.806C125.698 177.898 125.521 177.94 125.353 177.94ZM55.753 177.092C55.5682 177.092 55.3751 177.041 55.2071 176.941C53.5777 175.949 51.9736 174.899 50.4366 173.815C49.9579 173.479 49.8487 172.823 50.1847 172.344C50.5206 171.865 51.1757 171.756 51.6544 172.092C53.1494 173.142 54.7116 174.168 56.2989 175.134C56.7944 175.436 56.954 176.083 56.6517 176.579C56.4585 176.907 56.1142 177.092 55.753 177.092ZM46.5648 170.588C46.3296 170.588 46.0945 170.512 45.8929 170.344C44.4651 169.168 43.0961 167.941 41.8195 166.706C41.7187 166.63 41.6263 166.538 41.5592 166.437C41.2232 166.025 41.2484 165.42 41.6263 165.034C41.9791 164.672 42.5166 164.622 42.9282 164.865C44.6331 165.252 46.3716 165.538 48.085 165.731C48.6645 165.798 49.0844 166.319 49.0172 166.899C48.95 167.479 48.4377 167.899 47.8498 167.832C47.1947 167.756 46.548 167.672 45.8929 167.571C46.338 167.958 46.7832 168.336 47.2367 168.714C47.6902 169.084 47.749 169.748 47.3795 170.201C47.1779 170.462 46.8756 170.588 46.5648 170.588ZM53.5777 168.134C52.9982 168.134 52.5279 167.672 52.5195 167.084C52.5111 166.504 52.9814 166.025 53.5609 166.017C55.0307 166 56.5173 165.916 57.9703 165.765C58.2726 165.731 58.6254 165.697 59.0621 165.647C59.6332 165.571 60.1623 165.991 60.2379 166.571C60.3051 167.151 59.8936 167.672 59.3141 167.748C58.8689 167.798 58.5078 167.84 58.239 167.865C56.6685 168.033 55.1147 168.117 53.5777 168.134C53.5861 168.134 53.5861 168.134 53.5777 168.134ZM64.7565 166.823C64.2693 166.823 63.8326 166.479 63.7234 165.983C63.6058 165.412 63.967 164.857 64.5381 164.731C66.3774 164.344 68.1747 163.882 69.8965 163.345C70.4592 163.176 71.0471 163.487 71.2151 164.042C71.3831 164.597 71.0723 165.193 70.518 165.361C68.7375 165.907 66.8729 166.395 64.9748 166.79C64.8992 166.823 64.832 166.823 64.7565 166.823ZM37.0322 165.336C36.9147 165.336 36.7971 165.319 36.6795 165.277C34.8906 164.647 33.11 163.908 31.3799 163.076C30.8508 162.824 30.6324 162.193 30.8844 161.664C31.1363 161.135 31.7662 160.916 32.2954 161.168C33.9583 161.966 35.6632 162.672 37.385 163.277C37.9309 163.471 38.2249 164.076 38.0317 164.622C37.8721 165.067 37.469 165.336 37.0322 165.336ZM75.4984 163.487C75.0869 163.487 74.7006 163.252 74.5326 162.849C74.3058 162.311 74.5494 161.689 75.0869 161.462C76.8254 160.714 78.4716 159.883 79.9834 158.983C80.4873 158.689 81.134 158.849 81.4279 159.353C81.7219 159.857 81.5623 160.504 81.0584 160.798C79.471 161.748 77.7409 162.622 75.9184 163.403C75.7756 163.462 75.6328 163.487 75.4984 163.487ZM38.5524 162.714C38.2501 162.714 37.9561 162.588 37.7461 162.336C36.4779 160.824 35.3189 159.278 34.3111 157.731C33.9919 157.244 34.1263 156.589 34.6134 156.269C35.1005 155.95 35.7556 156.084 36.0748 156.572C37.0406 158.051 38.1493 159.53 39.3587 160.975C39.7366 161.42 39.6778 162.084 39.2327 162.462C39.0311 162.639 38.7876 162.714 38.5524 162.714ZM26.9034 160.479C26.7102 160.479 26.5254 160.429 26.349 160.319C24.7281 159.32 23.1491 158.219 21.6374 157.051C21.1754 156.698 21.0914 156.034 21.4526 155.572C21.8137 155.11 22.4688 155.026 22.9308 155.387C24.3753 156.513 25.9039 157.572 27.4577 158.53C27.9532 158.832 28.1044 159.488 27.802 159.983C27.6005 160.303 27.2561 160.479 26.9034 160.479ZM85.1066 157.706C84.8042 157.706 84.5103 157.58 84.3003 157.328C83.9224 156.883 83.9812 156.219 84.4263 155.841C85.8457 154.647 87.1223 153.353 88.2225 151.984C88.5837 151.53 89.2556 151.454 89.7091 151.824C90.1626 152.185 90.2382 152.849 89.8687 153.311C88.6845 154.782 87.3155 156.177 85.7869 157.462C85.5853 157.622 85.3417 157.706 85.1066 157.706ZM18.0343 153.589C17.7739 153.589 17.5052 153.488 17.3036 153.295C15.9262 151.967 14.6076 150.555 13.3898 149.102C13.0203 148.656 13.0791 147.992 13.5242 147.614C13.9693 147.244 14.6328 147.303 15.0108 147.749C16.1782 149.144 17.4464 150.505 18.765 151.774C19.1849 152.177 19.2017 152.849 18.7902 153.261C18.5886 153.488 18.3115 153.589 18.0343 153.589ZM32.4465 153.303C32.0518 153.303 31.6655 153.076 31.4891 152.69C30.6492 150.891 29.9857 149.059 29.4986 147.244C29.3474 146.681 29.6833 146.102 30.2461 145.95C30.8088 145.799 31.3883 146.135 31.5395 146.698C31.993 148.396 32.6229 150.11 33.4124 151.799C33.6559 152.328 33.4292 152.958 32.9001 153.202C32.7489 153.269 32.5977 153.303 32.4465 153.303ZM92.0607 148.975C91.9012 148.975 91.7416 148.942 91.5904 148.866C91.0697 148.606 90.8513 147.976 91.1117 147.455C91.8508 145.959 92.4471 144.354 92.8754 142.69L92.951 142.396C93.0938 141.833 93.6649 141.488 94.2276 141.631C94.7903 141.774 95.1347 142.346 94.9919 142.909L94.9079 143.228C94.4376 145.026 93.7909 146.765 92.993 148.387C92.825 148.757 92.4471 148.975 92.0607 148.975ZM10.845 144.976C10.5006 144.976 10.1647 144.808 9.96312 144.505C8.90488 142.909 7.93062 141.245 7.07395 139.547C6.81359 139.026 7.01516 138.396 7.53588 138.127C8.0566 137.858 8.68651 138.068 8.95527 138.589C9.78675 140.22 10.719 141.816 11.7269 143.345C12.046 143.833 11.9116 144.488 11.4329 144.808C11.2481 144.917 11.0382 144.976 10.845 144.976ZM29.591 142.497C29.0366 142.497 28.5747 142.068 28.5411 141.514C28.4991 140.917 28.4823 140.304 28.4823 139.699C28.4823 138.363 28.5747 137.01 28.7679 135.682C28.8519 135.102 29.381 134.707 29.9605 134.791C30.54 134.875 30.9348 135.405 30.8508 135.984C30.6744 137.211 30.582 138.463 30.582 139.699C30.582 140.253 30.5988 140.825 30.6324 141.379C30.666 141.959 30.2293 142.463 29.6498 142.497C29.633 142.497 29.6162 142.497 29.591 142.497ZM94.7819 138.144C94.7651 138.144 94.7483 138.144 94.7315 138.144C94.152 138.119 93.6985 137.623 93.7237 137.043C93.7405 136.64 93.7489 136.228 93.7489 135.816C93.7489 134.43 93.6481 133.027 93.4465 131.623C93.3625 131.044 93.7657 130.514 94.3452 130.43C94.9247 130.346 95.4538 130.749 95.5378 131.329C95.7478 132.825 95.857 134.337 95.857 135.816C95.857 136.253 95.8486 136.69 95.8318 137.127C95.8066 137.699 95.3363 138.144 94.7819 138.144ZM5.74695 134.968C5.31862 134.968 4.91548 134.707 4.7559 134.279C4.09241 132.506 3.52129 130.657 3.05096 128.8C2.90818 128.237 3.25253 127.657 3.81525 127.523C4.37796 127.38 4.94908 127.724 5.09185 128.287C5.53699 130.077 6.0913 131.842 6.72961 133.548C6.93118 134.094 6.65402 134.699 6.1081 134.909C5.99892 134.943 5.87294 134.968 5.74695 134.968ZM31.1363 131.43C31.0271 131.43 30.9096 131.413 30.8004 131.371C30.2461 131.186 29.9521 130.581 30.1453 130.035C30.75 128.262 31.5143 126.472 32.4297 124.725C32.6985 124.212 33.3368 124.01 33.8491 124.279C34.3698 124.548 34.563 125.187 34.2942 125.699C33.4292 127.355 32.7069 129.044 32.1358 130.716C31.9846 131.153 31.5815 131.43 31.1363 131.43ZM93.2282 127.061C92.783 127.061 92.3715 126.775 92.2287 126.329C91.6744 124.615 90.9773 122.918 90.1458 121.296C89.8771 120.775 90.087 120.145 90.6078 119.876C91.1285 119.607 91.7584 119.817 92.0271 120.338C92.909 122.061 93.6565 123.867 94.2444 125.691C94.4208 126.245 94.1184 126.842 93.5641 127.019C93.4381 127.044 93.3289 127.061 93.2282 127.061ZM3.00057 124.077C2.47985 124.077 2.03472 123.699 1.95913 123.17C1.69877 121.304 1.52239 119.38 1.4468 117.464C1.42161 116.885 1.87514 116.389 2.45465 116.372C3.05096 116.355 3.52969 116.801 3.55489 117.38C3.63048 119.229 3.79845 121.078 4.05041 122.876C4.1344 123.456 3.73126 123.985 3.15175 124.069C3.10136 124.077 3.05096 124.077 3.00057 124.077ZM36.2848 121.456C36.0748 121.456 35.8648 121.397 35.68 121.262C35.2013 120.926 35.0921 120.271 35.4281 119.792C36.5283 118.237 37.7377 116.725 39.0311 115.305C39.4259 114.876 40.0894 114.843 40.5177 115.238C40.9461 115.632 40.9796 116.296 40.5849 116.725C39.3503 118.078 38.1913 119.523 37.1498 121.002C36.9398 121.304 36.6123 121.456 36.2848 121.456ZM88.1301 117.078C87.8026 117.078 87.4834 116.927 87.2819 116.649C86.1984 115.17 84.9974 113.784 83.7208 112.532C83.3008 112.128 83.3009 111.456 83.704 111.036C84.1155 110.616 84.779 110.616 85.199 111.019C86.568 112.355 87.8446 113.834 88.9868 115.406C89.3312 115.876 89.2304 116.54 88.76 116.876C88.5585 117.011 88.3401 117.078 88.1301 117.078ZM43.852 113.17C43.5497 113.17 43.2557 113.044 43.0457 112.801C42.6678 112.355 42.7266 111.692 43.1717 111.313C44.6583 110.053 46.212 108.902 47.8078 107.885C48.3033 107.574 48.95 107.717 49.2608 108.204C49.5715 108.7 49.4288 109.347 48.9416 109.658C47.4299 110.624 45.9433 111.717 44.5323 112.91C44.3391 113.086 44.0956 113.17 43.852 113.17ZM2.54704 112.851C2.53024 112.851 2.50504 112.851 2.48825 112.851C1.90873 112.817 1.4636 112.322 1.4972 111.734C1.60638 109.801 1.81635 107.877 2.1103 106.036C2.20269 105.465 2.74021 105.07 3.31972 105.162C3.89084 105.255 4.28557 105.793 4.19319 106.372C3.90763 108.145 3.71446 109.994 3.60528 111.86C3.56328 112.414 3.10136 112.851 2.54704 112.851ZM80.1009 109.263C79.8994 109.263 79.6894 109.204 79.513 109.078C77.9929 108.045 76.3971 107.179 74.7677 106.49C74.2302 106.263 73.9783 105.65 74.205 105.112C74.4318 104.574 75.0533 104.322 75.5824 104.549C77.3378 105.288 79.0595 106.23 80.6972 107.339C81.176 107.666 81.302 108.322 80.9744 108.801C80.7728 109.103 80.4369 109.263 80.1009 109.263ZM53.3258 107.171C52.9226 107.171 52.5363 106.935 52.3599 106.54C52.1248 106.011 52.3683 105.381 52.8974 105.154C54.7032 104.356 56.5509 103.725 58.3902 103.28C58.9529 103.146 59.524 103.49 59.6668 104.053C59.8012 104.616 59.4569 105.188 58.8941 105.33C57.1808 105.751 55.4507 106.339 53.7541 107.087C53.6113 107.145 53.4686 107.171 53.3258 107.171ZM69.7957 104.969C69.7369 104.969 69.6697 104.961 69.6025 104.952C68.1579 104.692 66.6798 104.557 65.2016 104.557C64.8992 104.549 64.5549 104.566 64.2273 104.574C63.6394 104.608 63.1523 104.146 63.1355 103.557C63.1103 102.978 63.5638 102.482 64.1517 102.465C64.5045 102.448 64.874 102.457 65.2016 102.448C66.8057 102.448 68.4099 102.591 69.9805 102.877C70.5516 102.978 70.9295 103.532 70.8287 104.104C70.7364 104.616 70.2996 104.969 69.7957 104.969ZM4.35277 101.759C4.26038 101.759 4.15959 101.751 4.06721 101.717C3.50449 101.558 3.17694 100.978 3.33652 100.415C3.84884 98.5829 4.47035 96.7594 5.18424 94.9864C5.40261 94.4486 6.01572 94.1797 6.55324 94.3982C7.09075 94.6167 7.35951 95.2301 7.14115 95.7679C6.46085 97.4653 5.86454 99.2215 5.36901 100.978C5.24303 101.457 4.8147 101.759 4.35277 101.759ZM8.53533 91.3479C8.36736 91.3479 8.19938 91.3059 8.03981 91.2219C7.52748 90.953 7.32592 90.3144 7.60308 89.7934C8.49334 88.1212 9.48439 86.4658 10.551 84.8776C10.8786 84.3903 11.5337 84.2642 12.0124 84.5919C12.4995 84.9197 12.6255 85.5751 12.298 86.0541C11.2733 87.5834 10.3159 89.18 9.46759 90.7849C9.28282 91.1378 8.91328 91.3479 8.53533 91.3479ZM14.784 82.0122C14.5488 82.0122 14.3053 81.9366 14.1121 81.7685C13.667 81.3988 13.5998 80.735 13.9693 80.2812C15.1787 78.8191 16.4721 77.399 17.8243 76.0461C18.2359 75.6344 18.9078 75.6344 19.3193 76.0461C19.7308 76.4579 19.7308 77.1301 19.3193 77.5418C18.0175 78.8443 16.7661 80.214 15.5987 81.6257C15.3887 81.8778 15.0863 82.0122 14.784 82.0122ZM22.746 74.0714C22.4436 74.0714 22.1413 73.937 21.9313 73.6849C21.5618 73.2395 21.6206 72.5673 22.0741 72.1976C23.5355 70.9959 25.0724 69.8363 26.643 68.7607C27.1217 68.433 27.7768 68.5591 28.1128 69.0381C28.4403 69.517 28.3144 70.1725 27.8356 70.5086C26.3155 71.5505 24.8205 72.6681 23.4179 73.8361C23.2163 73.9874 22.9812 74.0714 22.746 74.0714ZM32.0182 67.7188C31.6486 67.7188 31.2875 67.5255 31.0943 67.181C30.8088 66.6768 30.9936 66.0298 31.4975 65.7441C33.1436 64.8198 34.8654 63.9543 36.6039 63.1644C37.133 62.9207 37.7629 63.1644 37.9981 63.6938C38.2417 64.2231 37.9981 64.8534 37.469 65.0887C35.7892 65.8533 34.1263 66.6852 32.5305 67.5843C32.3709 67.6768 32.1946 67.7188 32.0182 67.7188ZM42.2646 63.0887C41.8279 63.0887 41.4248 62.8198 41.2736 62.3829C41.0804 61.8367 41.366 61.2317 41.9203 61.0384C43.7008 60.4082 45.5402 59.8452 47.3795 59.3662C47.9422 59.215 48.5217 59.5595 48.6645 60.1225C48.8157 60.6855 48.4713 61.2653 47.9086 61.4082C46.1281 61.8787 44.3475 62.4249 42.6174 63.0299C42.4998 63.0635 42.3822 63.0887 42.2646 63.0887Z" fill="#FFAA2B"/>
<path opacity="0.1" d="M94.8571 33.9556L15.2959 44.5769L34.5794 59.2149L34.8817 86.1548L51.5112 72.0294L60.8506 79.0795L94.8571 33.9556Z" fill="#232323"/>
<path d="M36.6199 84.525L36.1748 45.1655L96.5953 32.3174L36.6199 84.525Z" fill="#42CCCD"/>
<path d="M36.4522 57.678C36.7545 57.5268 96.5955 32.3179 96.5955 32.3179L17.0259 42.9392L36.4522 57.678Z" fill="#25B4B6"/>
<path d="M43.0451 62.702L36.6201 84.5245L64.1764 61.1055L43.0451 62.702Z" fill="#16A2A4"/>
<path d="M43.0449 62.7025L62.5804 77.4413L96.5953 32.3174L43.0449 62.7025Z" fill="#25B4B6"/>
<path opacity="0.1" d="M252.166 106.49C252.099 105.473 251.217 104.7 250.209 104.767L179.105 109.288C178.089 109.355 177.316 110.238 177.383 111.246L179.223 140.144C179.29 141.16 180.172 141.934 181.18 141.866L252.283 137.346C253.3 137.278 254.072 136.396 254.005 135.388L252.166 106.49Z" fill="#232323"/>
<path d="M254.072 134.69L182.969 139.211C181.952 139.278 181.079 138.497 181.012 137.488L179.172 108.591C179.105 107.574 179.886 106.7 180.894 106.633L251.998 102.112C253.014 102.045 253.888 102.826 253.955 103.835L255.794 132.732C255.861 133.741 255.089 134.623 254.072 134.69Z" fill="white"/>
<path d="M246.547 110.792L215.522 112.767C214.724 112.817 214.027 112.204 213.977 111.405L213.968 111.33C213.918 110.532 214.531 109.834 215.329 109.784L246.354 107.809C247.152 107.759 247.849 108.372 247.899 109.17L247.908 109.246C247.966 110.044 247.353 110.742 246.547 110.792Z" fill="#25B4B6"/>
<path d="M246.967 117.305L215.942 119.28C215.145 119.33 214.447 118.717 214.397 117.918L214.389 117.843C214.338 117.044 214.951 116.347 215.749 116.296L246.774 114.322C247.572 114.271 248.269 114.885 248.32 115.683L248.328 115.759C248.378 116.557 247.765 117.254 246.967 117.305Z" fill="#1D2338" fill-opacity="0.1"/>
<path d="M247.379 123.825L216.354 125.8C215.556 125.85 214.859 125.237 214.809 124.439L214.8 124.363C214.75 123.565 215.363 122.867 216.161 122.817L247.186 120.842C247.984 120.792 248.681 121.405 248.731 122.204L248.74 122.279C248.79 123.077 248.177 123.766 247.379 123.825Z" fill="#1D2338" fill-opacity="0.1"/>
<path d="M247.79 130.338L216.765 132.312C215.967 132.363 215.27 131.749 215.22 130.951L215.211 130.875C215.161 130.077 215.774 129.38 216.572 129.329L247.597 127.354C248.395 127.304 249.092 127.917 249.142 128.716L249.151 128.791C249.21 129.59 248.596 130.287 247.79 130.338Z" fill="#1D2338" fill-opacity="0.1"/>
<path d="M206.585 131.657C211.934 126.305 211.934 117.627 206.585 112.275C201.235 106.923 192.562 106.923 187.212 112.275C181.863 117.627 181.863 126.305 187.212 131.657C192.562 137.009 201.235 137.009 206.585 131.657Z" fill="#1D2338" fill-opacity="0.1"/>
<path d="M204.109 130.404C203.403 131.026 202.622 131.555 201.765 131.975C201.337 132.194 200.883 132.379 200.422 132.53C199.934 132.698 199.422 132.832 198.901 132.925C198.481 133 198.045 133.059 197.608 133.084C197.171 133.11 196.735 133.11 196.298 133.093C194.29 132.984 192.409 132.32 190.822 131.244C191.527 129.723 192.821 128.513 194.433 127.942C194.71 127.841 194.996 127.765 195.29 127.707C195.298 127.707 195.315 127.698 195.324 127.698C195.584 127.648 195.844 127.614 196.113 127.597L198.389 127.454C198.658 127.438 198.927 127.438 199.187 127.454C199.195 127.454 199.212 127.454 199.221 127.454C199.523 127.471 199.808 127.513 200.102 127.581C201.774 127.942 203.218 128.984 204.109 130.404Z" fill="#727272"/>
<path d="M202.966 116.867L203.428 124.195C203.529 125.808 202.311 127.203 200.69 127.304L193.803 127.741C192.191 127.841 190.797 126.615 190.696 125.001L190.234 117.674C189.822 111.162 196.205 111.052 196.205 111.052C196.205 111.052 197.86 110.867 199.531 111.557C201.026 112.17 202.547 113.481 202.908 116.245C202.933 116.447 202.95 116.657 202.966 116.867Z" fill="#302F2F"/>
<path d="M199.153 126.329L199.288 128.488C199.346 129.404 198.507 130.203 197.423 130.278C196.34 130.345 195.407 129.656 195.348 128.74L195.214 126.581C195.189 126.203 195.315 125.841 195.558 125.547C195.609 125.48 195.676 125.413 195.743 125.354C195.869 125.236 196.012 125.135 196.172 125.051C196.44 124.909 196.751 124.816 197.079 124.799C197.415 124.774 197.725 124.825 198.011 124.934C198.179 125.001 198.339 125.085 198.473 125.186C198.481 125.194 198.49 125.194 198.498 125.203C198.565 125.253 198.624 125.304 198.683 125.362C198.952 125.606 199.128 125.951 199.153 126.329Z" fill="#FFAA2B"/>
<path opacity="0.28" d="M202.043 118.59L202.244 121.733C202.387 123.943 201.094 125.917 199.179 126.766L199.229 127.598C198.692 127.833 198.112 127.985 197.491 128.018L197.071 128.043C196.457 128.085 195.853 128.01 195.298 127.842L195.248 127.01C193.241 126.413 191.712 124.606 191.569 122.405L191.368 119.262C191.284 117.792 191.83 116.414 192.779 115.422C193.644 114.514 194.828 113.918 196.172 113.834L196.592 113.809C197.793 113.733 198.927 114.078 199.851 114.725C201.085 115.59 201.933 116.985 202.043 118.59Z" fill="black"/>
<path d="M201.992 117.792L202.244 121.733C202.312 122.808 202.043 123.833 201.522 124.699C201.404 124.9 201.27 125.094 201.119 125.27C200.833 125.623 200.506 125.942 200.136 126.211C199.842 126.43 199.523 126.615 199.179 126.766C198.641 127.001 198.053 127.152 197.44 127.186L197.02 127.211C196.407 127.253 195.802 127.178 195.248 127.01C193.241 126.413 191.712 124.615 191.569 122.405L191.318 118.481C191.318 118.43 191.309 118.371 191.309 118.313C191.259 116.817 191.855 115.43 192.863 114.447C193.022 114.296 193.19 114.145 193.367 114.01C194.14 113.43 195.08 113.061 196.113 112.993L196.533 112.968C197.692 112.893 198.792 113.22 199.7 113.825C200.178 114.145 200.607 114.548 200.959 115.01C201.102 115.195 201.236 115.397 201.354 115.607C201.715 116.262 201.942 117.002 201.992 117.792Z" fill="#FFAA2B"/>
<path d="M204.176 119.733C204.252 120.867 203.387 121.85 202.253 121.917L201.993 117.808C202.278 117.792 202.555 117.834 202.807 117.918C203.563 118.195 204.126 118.884 204.176 119.733Z" fill="#FFAA2B"/>
<path d="M203.395 119.782C203.437 120.488 202.908 121.093 202.203 121.135L202.043 118.589C202.749 118.547 203.353 119.085 203.395 119.782Z" fill="#E29586"/>
<path d="M200.102 127.581L198.901 132.925C198.481 133 198.045 133.059 197.608 133.084C197.171 133.11 196.734 133.11 196.298 133.093L194.425 127.942L195.508 127.875L195.55 127.908L197.373 129.572L198.977 127.69L199.01 127.648L200.102 127.581Z" fill="#565656"/>
<path d="M191.317 118.49L191.578 122.599C190.444 122.674 189.47 121.809 189.394 120.675C189.335 119.7 189.957 118.834 190.855 118.574C190.889 118.565 190.914 118.557 190.948 118.549C190.965 118.549 190.981 118.54 190.998 118.54C191.107 118.515 191.208 118.498 191.317 118.49Z" fill="#FFAA2B"/>
<path d="M190.176 120.623C190.218 121.329 190.822 121.859 191.528 121.817L191.368 119.271C190.663 119.321 190.134 119.926 190.176 120.623Z" fill="#E29586"/>
<path d="M201.766 131.976C201.337 132.195 200.884 132.379 200.422 132.531L200.388 132.06L201.766 131.976Z" fill="#565656"/>
<path opacity="0.2" d="M197.381 129.58L198.977 130.564L200.103 127.581L197.381 129.58Z" fill="#363636"/>
<path d="M200.103 127.581L198.944 130.463L197.381 129.581L199.019 127.656L199.237 127.404L200.103 127.581Z" fill="#EEEEEE"/>
<path opacity="0.2" d="M194.434 127.942L195.912 130.757L197.382 129.581L194.434 127.942Z" fill="#363636"/>
<path d="M197.382 129.581L195.945 130.657L194.434 127.942L195.273 127.657L195.517 127.875L197.382 129.581Z" fill="#EEEEEE"/>
<path d="M202.958 116.732C199.145 117.253 199.297 113.766 199.582 112.043C201.077 112.657 202.597 113.968 202.958 116.732Z" fill="#302F2F"/>
<path d="M200.808 113.842C200.691 114.061 199.523 116.523 197.146 116.674C194.769 116.825 191.091 118.489 191.124 120.867C191.158 123.237 187.689 113.834 194.853 112.624C202.026 111.422 200.808 113.842 200.808 113.842Z" fill="#302F2F"/>
<path opacity="0.1" d="M258.54 100.944L251.712 72.8027C251.477 71.8195 250.469 71.2061 249.486 71.4414L180.247 88.2473C179.265 88.4826 178.652 89.491 178.887 90.4741L185.715 118.616C185.95 119.599 186.958 120.212 187.941 119.977L257.18 103.171C258.171 102.936 258.775 101.927 258.54 100.944Z" fill="#232323"/>
<path d="M258.743 100.625L189.503 117.431C188.521 117.666 187.513 117.061 187.278 116.069L180.45 87.9277C180.214 86.9446 180.819 85.9362 181.81 85.7009L251.049 68.895C252.032 68.6597 253.04 69.2647 253.275 70.2563L260.103 98.3978C260.338 99.3809 259.725 100.381 258.743 100.625Z" fill="#F6AB26"/>
<path d="M209.69 107.66C214.987 102.36 214.987 93.7677 209.69 88.4681C204.393 83.1684 195.805 83.1684 190.508 88.4681C185.211 93.7677 185.211 102.36 190.508 107.66C195.805 112.96 204.393 112.96 209.69 107.66Z" fill="#FFDCA4"/>
<path d="M202.831 110.028C202.755 110.045 202.68 110.062 202.613 110.07C200.328 110.549 198.052 110.323 196.011 109.524C196.406 107.81 197.515 106.289 199.068 105.407C199.329 105.256 199.597 105.129 199.875 105.02C200.127 104.919 200.395 104.835 200.673 104.768L202.907 104.222C203.175 104.155 203.461 104.113 203.73 104.079C204.024 104.046 204.326 104.037 204.62 104.046C205.88 104.096 207.089 104.524 208.089 105.247C208.467 105.516 208.819 105.844 209.13 106.197C207.736 107.835 205.88 109.104 203.696 109.776C203.595 109.81 203.495 109.835 203.394 109.86C203.377 109.869 203.36 109.869 203.343 109.877C203.327 109.886 203.301 109.894 203.276 109.894C203.259 109.902 203.243 109.911 203.217 109.911C203.142 109.936 203.066 109.953 202.982 109.978L202.923 109.995L202.856 110.012L202.839 110.02L202.831 110.028Z" fill="#FFAA2B"/>
<path d="M193.811 97.2054C193.811 97.2054 191.274 89.8192 195.373 88.668C199.471 87.5168 200.899 86.0631 201.974 86.1723C203.049 86.2816 205.468 92.9619 205.535 94.3652C205.594 95.7601 193.811 97.2054 193.811 97.2054Z" fill="#FFAA2B"/>
<path d="M203.461 102.978L203.973 105.096C204.192 105.995 203.503 106.936 202.436 107.197C201.378 107.457 200.328 106.928 200.11 106.037L199.597 103.919C199.505 103.55 199.572 103.172 199.757 102.835C199.799 102.76 199.849 102.684 199.9 102.609C200 102.466 200.126 102.34 200.278 102.23C200.521 102.046 200.807 101.903 201.134 101.819C201.462 101.743 201.781 101.735 202.083 101.793C202.26 101.827 202.436 101.886 202.587 101.962C202.596 101.962 202.604 101.97 202.613 101.97C202.688 102.004 202.755 102.046 202.823 102.096C203.142 102.306 203.368 102.609 203.461 102.978Z" fill="#F4CB95"/>
<path d="M204.981 94.8019L205.728 97.8774C206.249 100.045 205.317 102.23 203.57 103.407L203.763 104.222C203.276 104.549 202.722 104.801 202.117 104.944L201.705 105.045C201.101 105.188 200.496 105.222 199.908 105.154L199.715 104.339C197.615 104.096 195.784 102.575 195.264 100.415L194.516 97.3396C194.172 95.8943 194.483 94.4322 195.247 93.281C195.944 92.2306 197.019 91.4323 198.329 91.113L198.741 91.0122C199.917 90.7265 201.109 90.8693 202.134 91.3483C203.503 91.9953 204.595 93.2306 204.981 94.8019Z" fill="#D8A471"/>
<path d="M204.788 94.0209L205.729 97.8862C205.964 98.8526 205.905 99.8273 205.62 100.71C205.578 100.852 205.519 100.987 205.46 101.121C205.393 101.289 205.318 101.441 205.234 101.6C204.839 102.323 204.268 102.945 203.579 103.415C203.084 103.743 202.529 103.995 201.924 104.138L201.513 104.239C200.908 104.382 200.295 104.415 199.716 104.348C197.616 104.104 195.785 102.583 195.264 100.424L194.29 96.4073C193.979 94.9368 194.332 93.4579 195.155 92.3067C195.289 92.1218 195.432 91.9453 195.583 91.7857C196.247 91.0714 197.12 90.542 198.137 90.2899L198.548 90.1891C199.338 89.9958 200.127 89.9958 200.875 90.1723C201.026 90.2059 201.169 90.2395 201.32 90.2899C201.496 90.3488 201.673 90.4076 201.84 90.4832C203.26 91.1302 204.394 92.3907 204.788 94.0209Z" fill="#F4CB95"/>
<path d="M207.3 95.5671C207.568 96.6847 206.888 97.8023 205.771 98.0712L204.797 94.0378C205.074 93.9706 205.36 93.9622 205.62 94.0042C206.418 94.1386 207.098 94.7352 207.3 95.5671Z" fill="#EDC28E"/>
<path d="M206.535 95.752C206.703 96.4411 206.283 97.1385 205.586 97.3066L204.981 94.8109C205.67 94.6429 206.367 95.063 206.535 95.752Z" fill="#D8A471"/>
<path d="M194.323 96.5835L195.297 100.617C194.189 100.886 193.063 100.205 192.795 99.0876C192.559 98.1297 193.038 97.1633 193.878 96.7432C193.903 96.7263 193.937 96.7179 193.97 96.7011C193.987 96.6927 194.004 96.6843 194.021 96.6843C194.113 96.6423 194.214 96.6087 194.323 96.5835Z" fill="#EDC28E"/>
<path d="M193.567 98.9026C193.735 99.5916 194.432 100.012 195.121 99.8521L194.516 97.3564C193.819 97.5161 193.399 98.2135 193.567 98.9026Z" fill="#D8A471"/>
<path d="M204.788 94.0207L205.729 97.8861C205.964 98.8525 205.905 99.8272 205.619 100.71C205.577 100.852 205.519 100.987 205.46 101.121C204.687 93.5838 203.209 92.8191 201.487 93.2561C199.631 93.7182 198.648 91.5335 198.648 91.5335L201.311 90.3066C201.487 90.3655 201.664 90.4243 201.832 90.4999C203.259 91.1301 204.393 92.3906 204.788 94.0207Z" fill="#E5B67F"/>
<path d="M204.326 106.524L205.015 107.247L203.705 109.802C203.604 109.835 203.503 109.86 203.402 109.886C203.385 109.894 203.369 109.894 203.352 109.902C203.335 109.911 203.31 109.919 203.285 109.919L203.898 106.003V105.995L203.999 105.348V105.34L204.007 105.272L203.755 104.23L205.267 105.785L204.36 106.491L204.326 106.524Z" fill="#FFAA2B"/>
<path d="M202.94 110.003L202.999 109.987C203.083 109.97 203.158 109.945 203.234 109.919C203.259 109.919 203.276 109.911 203.293 109.902C203.318 109.902 203.335 109.894 203.36 109.886L203.511 109.424L204.309 106.936L204.149 106.289L204.502 105.726L204.057 104.911C204.057 104.911 204.04 104.987 203.981 105.121L203.973 105.13V105.138C203.839 105.516 203.494 106.306 202.873 106.852C202.738 106.97 202.596 107.079 202.419 107.163C202.159 107.155 201.907 107.104 201.68 107.029C200.958 106.802 200.387 106.323 200.118 106.062L200.109 106.054C200 105.953 199.95 105.894 199.95 105.894L199.933 106.827L200.504 107.163L200.664 107.81L202.251 109.398L202.847 110.003H202.856H202.94Z" fill="white"/>
<path d="M204.376 106.482L205.014 107.238L203.402 109.877C203.385 109.885 203.368 109.885 203.352 109.894C203.335 109.902 203.31 109.91 203.284 109.91C203.268 109.919 203.251 109.927 203.226 109.927L203.822 106.171L203.981 105.163V105.154L203.99 105.146L203.738 104.104L205.283 105.793L204.301 106.398L204.376 106.482Z" fill="#FFAA2B"/>
<path d="M202.831 110.028C202.756 110.045 202.68 110.062 202.613 110.07L200.186 108.415L200.471 107.457L200.413 107.449L199.287 107.239L199.917 105.163L200.135 106.071L200.169 106.205L200.177 106.213L200.194 106.239L200.203 106.247L200.606 106.793L202.957 110.003L202.89 110.02L202.873 110.028H202.831Z" fill="#FFAA2B"/>
<path d="M202.831 110.028L200.177 108.415L200.395 107.448L200.429 107.322L199.27 107.238L199.875 105.028L199.908 105.163L200.127 106.07L200.135 106.079L200.74 106.911L202.991 109.994L202.94 110.003L202.873 110.02L202.848 110.028H202.831Z" fill="#FFAA2B"/>
<path d="M201.487 89.4915C201.487 89.4915 198.791 89.3402 198.304 89.4579C197.817 89.5755 197.204 89.7856 196.297 90.2562C195.39 90.7267 194.189 92.1216 194.189 92.1216L194.038 92.7098C193.928 92.9031 193.811 93.1216 193.819 93.172C193.828 93.2224 193.828 93.3904 193.828 93.5417L193.71 94.0291C193.735 94.0123 193.811 93.9702 193.895 93.9114L194.121 94.2896C194.138 94.2812 194.441 93.4409 195.205 92.7602C196.204 92.0964 197.666 91.6426 198.9 92.1552C201.143 93.0879 204.494 91.4158 204.494 91.4158L201.487 89.4915Z" fill="#FFAA2B"/>
<path d="M247.11 78.1129L216.9 85.4486C216.119 85.6419 215.329 85.1545 215.136 84.3731L215.119 84.3058C214.926 83.5244 215.413 82.7345 216.195 82.5412L246.405 75.2054C247.186 75.0122 247.975 75.4995 248.168 76.281L248.185 76.3482C248.378 77.1297 247.891 77.928 247.11 78.1129Z" fill="#E29D2D"/>
<path d="M248.647 84.4571L218.437 91.7929C217.656 91.9862 216.866 91.4988 216.673 90.7173L216.656 90.6501C216.463 89.8686 216.95 89.0787 217.731 88.8855L247.941 81.5497C248.723 81.3564 249.512 81.8438 249.705 82.6252L249.722 82.6925C249.915 83.474 249.428 84.2722 248.647 84.4571Z" fill="#FFDCA4"/>
<path d="M250.192 90.8013L219.982 98.1371C219.201 98.3304 218.411 97.843 218.218 97.0615L218.201 96.9943C218.008 96.2128 218.495 95.423 219.277 95.2297L249.487 87.8939C250.268 87.7006 251.057 88.188 251.251 88.9695L251.267 89.0367C251.452 89.8182 250.965 90.6081 250.192 90.8013Z" fill="#FFDCA4"/>
<path d="M251.729 97.1456L221.519 104.481C220.738 104.675 219.949 104.187 219.755 103.406L219.739 103.339C219.545 102.557 220.033 101.767 220.814 101.574L251.024 94.2381C251.805 94.0449 252.595 94.5322 252.788 95.3137L252.804 95.381C252.989 96.1624 252.511 96.9523 251.729 97.1456Z" fill="#FFDCA4"/>
<path d="M203.075 189.965C202.571 189.965 202.076 189.957 201.572 189.931C200.992 189.906 200.539 189.419 200.564 188.831C200.589 188.251 201.085 187.797 201.664 187.822C203.47 187.898 205.293 187.831 207.115 187.621C207.695 187.553 208.215 187.973 208.283 188.545C208.35 189.125 207.93 189.646 207.359 189.713C205.922 189.881 204.486 189.965 203.075 189.965ZM196.037 189.242C195.962 189.242 195.894 189.234 195.819 189.217C193.937 188.822 192.073 188.259 190.276 187.545C189.738 187.326 189.469 186.721 189.679 186.175C189.898 185.629 190.502 185.369 191.048 185.579C192.736 186.242 194.483 186.772 196.256 187.15C196.827 187.268 197.188 187.831 197.07 188.402C196.969 188.898 196.533 189.242 196.037 189.242ZM212.751 188.688C212.28 188.688 211.852 188.377 211.734 187.898C211.583 187.335 211.928 186.755 212.49 186.612C214.229 186.158 215.976 185.57 217.689 184.873C218.227 184.654 218.848 184.915 219.066 185.453C219.285 185.99 219.024 186.612 218.487 186.831C216.69 187.562 214.85 188.175 213.028 188.654C212.927 188.671 212.835 188.688 212.751 188.688ZM185.623 185.142C185.438 185.142 185.253 185.091 185.085 184.99C183.473 184.032 181.877 182.915 180.357 181.68C179.903 181.31 179.836 180.646 180.197 180.192C180.567 179.739 181.23 179.671 181.684 180.033C183.128 181.201 184.64 182.259 186.169 183.167C186.673 183.461 186.832 184.117 186.538 184.612C186.337 184.957 185.984 185.142 185.623 185.142ZM223.157 184.469C222.787 184.469 222.426 184.276 222.233 183.923C221.947 183.411 222.132 182.772 222.644 182.486C224.232 181.604 225.802 180.612 227.297 179.545C227.768 179.209 228.431 179.318 228.767 179.789C229.103 180.26 228.994 180.923 228.523 181.26C226.961 182.377 225.332 183.411 223.669 184.327C223.501 184.427 223.325 184.469 223.157 184.469ZM176.888 178.1C176.611 178.1 176.334 177.991 176.124 177.772C174.83 176.428 173.571 174.957 172.386 173.411C172.034 172.949 172.118 172.285 172.58 171.932C173.041 171.579 173.705 171.663 174.058 172.126C175.2 173.613 176.401 175.016 177.644 176.31C178.047 176.73 178.03 177.403 177.61 177.806C177.417 178.008 177.148 178.1 176.888 178.1ZM232.286 177.949C232.001 177.949 231.707 177.831 231.505 177.604C231.119 177.167 231.152 176.503 231.581 176.117C232.95 174.882 234.251 173.562 235.444 172.201C235.83 171.764 236.494 171.722 236.931 172.1C237.367 172.487 237.409 173.151 237.031 173.588C235.788 175.008 234.428 176.386 232.992 177.68C232.79 177.856 232.538 177.949 232.286 177.949ZM235.914 171.68C235.377 171.68 234.915 171.277 234.864 170.731C234.806 170.151 235.234 169.638 235.814 169.579C236.821 169.479 237.838 169.319 238.854 169.092C238.577 168.739 238.543 168.243 238.812 167.848C239.853 166.294 240.769 164.706 241.533 163.109C241.785 162.58 242.415 162.361 242.936 162.613C243.465 162.865 243.683 163.496 243.431 164.017C242.701 165.546 241.835 167.075 240.861 168.563C240.937 168.537 241.021 168.512 241.096 168.487C241.659 168.319 242.247 168.621 242.415 169.176C242.591 169.731 242.281 170.327 241.726 170.495C239.845 171.084 237.922 171.478 236.015 171.663C235.982 171.672 235.948 171.68 235.914 171.68ZM230.304 171.596C230.262 171.596 230.212 171.596 230.17 171.588C228.322 171.352 226.415 170.907 224.5 170.26C223.946 170.075 223.652 169.479 223.837 168.924C224.022 168.369 224.618 168.075 225.172 168.26C226.961 168.857 228.733 169.277 230.447 169.495C231.026 169.571 231.429 170.1 231.362 170.68C231.278 171.21 230.825 171.596 230.304 171.596ZM170.018 169.201C169.665 169.201 169.321 169.025 169.119 168.705C168.095 167.067 167.154 165.378 166.322 163.697C166.062 163.176 166.272 162.546 166.801 162.286C167.322 162.025 167.952 162.244 168.212 162.765C169.018 164.386 169.926 166.008 170.917 167.596C171.227 168.092 171.076 168.739 170.581 169.05C170.404 169.151 170.211 169.201 170.018 169.201ZM246.589 168.378C246.211 168.378 245.85 168.176 245.657 167.815C245.38 167.302 245.581 166.664 246.094 166.386C247.673 165.546 249.21 164.554 250.662 163.428C251.124 163.076 251.788 163.16 252.141 163.622C252.493 164.084 252.409 164.748 251.947 165.101C250.394 166.294 248.764 167.353 247.085 168.252C246.925 168.336 246.757 168.378 246.589 168.378ZM219.671 168.075C219.503 168.075 219.327 168.033 219.167 167.949C217.42 167 215.791 165.907 214.33 164.714C213.876 164.344 213.817 163.681 214.187 163.227C214.556 162.773 215.22 162.714 215.673 163.084C217.026 164.202 218.546 165.21 220.175 166.101C220.687 166.378 220.881 167.016 220.603 167.529C220.41 167.874 220.049 168.075 219.671 168.075ZM255.475 161.555C255.215 161.555 254.954 161.462 254.753 161.26C254.333 160.857 254.316 160.193 254.711 159.773C255.954 158.471 257.113 157.042 258.171 155.546C258.507 155.067 259.162 154.958 259.641 155.294C260.119 155.63 260.229 156.286 259.893 156.765C258.776 158.353 257.541 159.849 256.231 161.235C256.038 161.445 255.752 161.555 255.475 161.555ZM211.096 160.924C210.777 160.924 210.466 160.782 210.256 160.504C209.03 158.882 208.056 157.151 207.375 155.345C207.165 154.799 207.443 154.194 207.989 153.984C208.534 153.782 209.139 154.051 209.349 154.597C209.962 156.21 210.827 157.765 211.936 159.227C212.289 159.689 212.196 160.353 211.734 160.706C211.541 160.849 211.314 160.924 211.096 160.924ZM244.456 159.361C244.363 159.361 244.271 159.353 244.179 159.328C243.616 159.177 243.288 158.597 243.44 158.034C243.935 156.235 244.221 154.446 244.305 152.723C244.33 152.143 244.809 151.698 245.405 151.715C245.984 151.74 246.438 152.236 246.413 152.816C246.329 154.698 246.01 156.639 245.472 158.588C245.346 159.05 244.918 159.361 244.456 159.361ZM261.95 152.404C261.791 152.404 261.623 152.37 261.463 152.286C260.943 152.017 260.741 151.379 261.01 150.866C261.841 149.261 262.572 147.564 263.202 145.841C263.403 145.295 264 145.009 264.554 145.202C265.1 145.404 265.385 146.001 265.192 146.555C264.537 148.37 263.765 150.143 262.891 151.832C262.698 152.194 262.328 152.404 261.95 152.404ZM207.224 150.547C206.662 150.547 206.2 150.11 206.174 149.538C206.158 149.211 206.149 148.891 206.149 148.564C206.149 146.95 206.342 145.303 206.729 143.665C206.863 143.093 207.434 142.74 207.997 142.875C208.568 143.009 208.921 143.572 208.786 144.144C208.442 145.623 208.266 147.11 208.266 148.564C208.266 148.858 208.274 149.143 208.291 149.438C208.316 150.017 207.871 150.513 207.291 150.547C207.258 150.547 207.241 150.547 207.224 150.547ZM244.909 148.227C244.414 148.227 243.977 147.883 243.876 147.379C243.532 145.656 243.003 143.908 242.297 142.194C242.079 141.656 242.331 141.035 242.877 140.816C243.414 140.598 244.036 140.85 244.254 141.396C245.01 143.236 245.581 145.11 245.951 146.967C246.068 147.538 245.69 148.093 245.119 148.211C245.052 148.219 244.977 148.227 244.909 148.227ZM209.685 139.69C209.526 139.69 209.358 139.656 209.206 139.572C208.686 139.312 208.484 138.673 208.744 138.152C209.635 136.396 210.727 134.758 211.978 133.27C212.356 132.825 213.019 132.766 213.465 133.144C213.91 133.522 213.968 134.186 213.591 134.631C212.44 135.993 211.44 137.505 210.626 139.11C210.441 139.48 210.071 139.69 209.685 139.69ZM240.693 137.85C240.349 137.85 240.005 137.682 239.803 137.362C238.795 135.783 237.67 134.363 236.452 133.127C236.04 132.716 236.049 132.043 236.46 131.632C236.872 131.22 237.544 131.228 237.955 131.64C239.274 132.976 240.492 134.514 241.575 136.22C241.886 136.707 241.743 137.362 241.256 137.673C241.08 137.799 240.886 137.85 240.693 137.85ZM216.908 131.203C216.58 131.203 216.253 131.043 216.043 130.758C215.707 130.279 215.825 129.623 216.295 129.287C218 128.086 219.789 127.195 221.62 126.657C222.174 126.489 222.762 126.808 222.93 127.363C223.098 127.918 222.779 128.506 222.224 128.674C220.612 129.153 219.024 129.943 217.513 131.01C217.336 131.136 217.118 131.203 216.908 131.203ZM232.773 130.01C232.597 130.01 232.42 129.968 232.261 129.875C230.665 128.976 229.011 128.422 227.356 128.212C226.777 128.136 226.365 127.615 226.441 127.035C226.516 126.455 227.037 126.044 227.616 126.119C229.548 126.363 231.455 127.002 233.294 128.035C233.806 128.321 233.983 128.96 233.697 129.472C233.504 129.817 233.143 130.01 232.773 130.01Z" fill="#52C9D1"/>
<path opacity="0.1" d="M281.468 147.88C289.494 139.85 289.494 126.831 281.468 118.801C273.443 110.771 260.43 110.771 252.404 118.801C244.378 126.831 244.378 139.85 252.404 147.88C260.43 155.91 273.443 155.91 281.468 147.88Z" fill="#232323"/>
<path d="M271.307 151.446C282.657 151.446 291.859 142.24 291.859 130.884C291.859 119.528 282.657 110.322 271.307 110.322C259.957 110.322 250.755 119.528 250.755 130.884C250.755 142.24 259.957 151.446 271.307 151.446Z" fill="#F6AB26"/>
<path d="M274.969 124.926L275.456 123.312L279.353 123.59L276.355 134.026C276.17 134.69 276.069 135.127 276.052 135.346C276.036 135.572 276.078 135.757 276.187 135.892C276.288 136.026 276.422 136.102 276.582 136.11C277.111 136.152 277.825 135.85 278.715 135.211C279.605 134.572 280.411 133.682 281.117 132.531C281.831 131.379 282.234 130.094 282.335 128.674C282.419 127.489 282.276 126.363 281.898 125.287C281.52 124.212 280.94 123.262 280.151 122.43C279.362 121.598 278.354 120.926 277.144 120.405C275.926 119.884 274.532 119.565 272.962 119.456C271.358 119.338 269.871 119.447 268.502 119.766C267.133 120.094 265.915 120.607 264.84 121.321C263.773 122.035 262.858 122.943 262.094 124.044C261.422 125.01 260.884 126.085 260.481 127.287C260.078 128.489 259.834 129.724 259.742 130.993C259.624 132.69 259.851 134.262 260.422 135.715C260.993 137.169 261.892 138.413 263.11 139.455C264.328 140.497 265.831 141.286 267.628 141.807C269.426 142.337 271.475 142.564 273.785 142.488C275.624 142.404 277.195 142.093 278.505 141.572C279.815 141.051 280.949 140.27 281.898 139.228L285.047 139.455C284.46 140.471 283.729 141.362 282.847 142.135C281.965 142.908 280.957 143.53 279.807 144.017C278.664 144.505 277.396 144.849 276.002 145.051C274.608 145.253 273.113 145.295 271.492 145.177C269.073 145.001 266.906 144.53 265.016 143.757C263.118 142.984 261.556 141.95 260.313 140.656C259.07 139.362 258.172 137.866 257.609 136.152C257.046 134.446 256.836 132.581 256.979 130.573C257.13 128.472 257.617 126.539 258.449 124.766C259.28 122.993 260.397 121.481 261.808 120.229C263.219 118.977 264.899 118.044 266.847 117.414C268.796 116.792 270.912 116.556 273.197 116.725C275.07 116.859 276.766 117.254 278.286 117.909C279.807 118.565 281.092 119.447 282.133 120.556C283.175 121.657 283.939 122.934 284.426 124.38C284.913 125.825 285.098 127.396 284.972 129.094C284.879 130.413 284.552 131.69 283.989 132.926C283.427 134.161 282.671 135.245 281.713 136.194C280.756 137.144 279.664 137.866 278.429 138.371C277.195 138.875 275.893 139.076 274.507 138.976C273.709 138.917 273.096 138.74 272.676 138.438C272.256 138.135 271.987 137.682 271.878 137.085C270.963 137.875 269.938 138.337 268.813 138.48C267.687 138.623 266.612 138.438 265.596 137.942C264.58 137.446 263.79 136.656 263.219 135.598C262.648 134.539 262.413 133.262 262.522 131.774C262.631 130.228 263.076 128.732 263.841 127.279C264.613 125.825 265.646 124.665 266.94 123.8C268.233 122.934 269.653 122.548 271.198 122.665C272.987 122.775 274.238 123.539 274.969 124.926ZM266.343 132.01C266.259 133.194 266.444 134.119 266.889 134.783C267.335 135.446 267.956 135.808 268.754 135.867C269.678 135.934 270.518 135.623 271.274 134.934C272.029 134.245 272.634 133.346 273.079 132.245C273.524 131.144 273.785 130.06 273.86 129.01C273.894 128.489 273.869 128.01 273.776 127.581C273.684 127.153 273.524 126.775 273.306 126.438C273.088 126.102 272.81 125.85 272.483 125.657C272.155 125.472 271.777 125.363 271.341 125.329C270.476 125.27 269.669 125.548 268.93 126.178C268.191 126.8 267.595 127.64 267.141 128.69C266.696 129.749 266.427 130.85 266.343 132.01Z" fill="white"/>
<path d="M210.911 16.9056L213.129 15.7376C213.633 15.4771 214.221 15.8973 214.12 16.4603L213.691 18.9308C213.649 19.1492 213.725 19.3845 213.885 19.5358L215.682 21.292C216.085 21.6869 215.867 22.3844 215.304 22.46L212.818 22.8213C212.591 22.8549 212.398 22.9978 212.306 23.1995L211.197 25.4515C210.945 25.964 210.214 25.964 209.971 25.4515L208.862 23.1995C208.761 22.9978 208.568 22.8549 208.35 22.8213L205.864 22.46C205.301 22.376 205.074 21.6869 205.486 21.292L207.283 19.5358C207.443 19.3761 207.518 19.1492 207.476 18.9308L207.048 16.4603C206.956 15.8973 207.544 15.4687 208.039 15.7376L210.256 16.9056C210.475 17.0149 210.71 17.0149 210.911 16.9056Z" fill="#25B4B6"/>
<path d="M30.2715 195.612C27.0128 195.612 24.3672 192.965 24.3672 189.705C24.3672 186.444 27.0128 183.797 30.2715 183.797C33.5302 183.797 36.1758 186.444 36.1758 189.705C36.1758 192.965 33.5302 195.612 30.2715 195.612ZM30.2715 185.428C27.9115 185.428 25.9881 187.352 25.9881 189.713C25.9881 192.074 27.9115 193.999 30.2715 193.999C32.6315 193.999 34.5549 192.074 34.5549 189.713C34.5549 187.343 32.6315 185.428 30.2715 185.428Z" fill="#25B4B6"/>
<path d="M32.3958 191.834C33.57 190.659 33.57 188.754 32.3958 187.579C31.2216 186.405 29.3179 186.405 28.1437 187.579C26.9695 188.754 26.9695 190.659 28.1437 191.834C29.3179 193.008 31.2216 193.008 32.3958 191.834Z" fill="#25B4B6"/>
<path d="M152.339 224.997C153.837 224.997 155.052 223.782 155.052 222.283C155.052 220.784 153.837 219.568 152.339 219.568C150.841 219.568 149.626 220.784 149.626 222.283C149.626 223.782 150.841 224.997 152.339 224.997Z" fill="#25B4B6"/>
<path d="M107.296 9.33456C108.794 9.33456 110.009 8.11939 110.009 6.62041C110.009 5.12142 108.794 3.90625 107.296 3.90625C105.798 3.90625 104.583 5.12142 104.583 6.62041C104.583 8.11939 105.798 9.33456 107.296 9.33456Z" fill="#25B4B6"/>
</svg>
