<svg width="21" height="25" viewBox="0 0 21 25" fill="none" xmlns="http://www.w3.org/2000/svg">
<path d="M20.141 5.98214C17.6603 5.98214 15.6422 3.99663 15.6422 1.55615C15.6422 1.17997 15.3322 0.875 14.9498 0.875H11.2417C10.8593 0.875 10.5493 1.17997 10.5493 1.55615V16.5128C10.5493 17.9475 9.36283 19.1147 7.90441 19.1147C6.44604 19.1147 5.25958 17.9475 5.25958 16.5128C5.25958 15.078 6.44604 13.9107 7.90441 13.9107C8.28679 13.9107 8.59679 13.6057 8.59679 13.2296V9.58158C8.59679 9.2054 8.28679 8.90043 7.90441 8.90043C3.63786 8.90043 0.166748 12.3153 0.166748 16.5128C0.166794 20.7102 3.63786 24.125 7.90446 24.125C12.1711 24.125 15.6422 20.7102 15.6422 16.5128V9.89241C17.0203 10.6151 18.5536 10.9924 20.141 10.9924C20.5234 10.9924 20.8334 10.6875 20.8334 10.3113V6.6633C20.8334 6.28712 20.5234 5.98214 20.141 5.98214ZM19.4486 9.60192C17.9705 9.481 16.5669 8.97299 15.3541 8.1147C15.1433 7.96548 14.8652 7.94491 14.634 8.06143C14.4029 8.178 14.2574 8.41204 14.2574 8.66761V16.5128C14.2574 19.959 11.4075 22.7627 7.90441 22.7627C4.40141 22.7627 1.5515 19.959 1.5515 16.5128C1.5515 13.2966 4.03348 10.64 7.21204 10.2996V12.607C5.31876 12.9308 3.87483 14.559 3.87483 16.5128C3.87483 18.6987 5.68249 20.477 7.90441 20.477C10.1264 20.477 11.9341 18.6987 11.9341 16.5128V2.2373H14.2979C14.6149 4.88562 16.7567 6.9927 19.4486 7.30458V9.60192H19.4486Z" fill="white"/>
</svg>
