<svg width="24" height="18" viewBox="0 0 24 18" fill="none" xmlns="http://www.w3.org/2000/svg">
<path d="M4.8 0C2.15938 0 0 2.02441 0 4.5C0 5.41113 0.3 6.25195 0.8 6.96094V15.75H3.325C3.68125 17.0391 4.91875 18 6.4 18C7.88125 18 9.11875 17.0391 9.475 15.75H15.325C15.6813 17.0391 16.9188 18 18.4 18C19.8813 18 21.1187 17.0391 21.475 15.75H24V7.94531L23.775 7.71094L18.975 3.21094L18.725 3H14.4V0.75H7.425C6.66875 0.28125 5.77188 0 4.8 0ZM4.8 1.5C6.57813 1.5 8 2.83301 8 4.5C8 6.16699 6.57813 7.5 4.8 7.5C3.02188 7.5 1.6 6.16699 1.6 4.5C1.6 2.83301 3.02188 1.5 4.8 1.5ZM4 2.25V4.80469L4.225 5.03906L5.375 6.09375L6.5 5.03906L5.6 4.17188V2.25H4ZM8.95 2.25H12.8V14.25H9.475C9.11875 12.9609 7.88125 12 6.4 12C4.91875 12 3.68125 12.9609 3.325 14.25H2.4V8.39062C3.10938 8.78027 3.925 9 4.8 9C7.44063 9 9.6 6.97559 9.6 4.5C9.6 3.67969 9.36563 2.91504 8.95 2.25ZM14.4 4.5H18.05L22.4 8.57812V14.25H21.475C21.1187 12.9609 19.8813 12 18.4 12C16.9188 12 15.6813 12.9609 15.325 14.25H14.4V4.5ZM6.4 13.5C7.29375 13.5 8 14.1621 8 15C8 15.8379 7.29375 16.5 6.4 16.5C5.50625 16.5 4.8 15.8379 4.8 15C4.8 14.1621 5.50625 13.5 6.4 13.5ZM18.4 13.5C19.2938 13.5 20 14.1621 20 15C20 15.8379 19.2938 16.5 18.4 16.5C17.5063 16.5 16.8 15.8379 16.8 15C16.8 14.1621 17.5063 13.5 18.4 13.5Z" fill="#1D2338"/>
</svg>
