<svg width="30" height="25" viewBox="0 0 30 25" fill="none" xmlns="http://www.w3.org/2000/svg">
<path d="M29.354 3.77179C27.5393 3.85543 27.5789 3.8486 27.3738 3.86577L28.4485 0.796565C28.4485 0.796565 25.0938 2.03063 24.2434 2.25138C22.0099 0.24391 18.69 0.155212 16.3165 1.61399C14.3729 2.80888 13.3296 4.86082 13.6776 7.25918C9.89483 6.73425 6.70766 4.94115 4.19133 1.91838L3.39547 0.962516L2.80078 2.05462C2.04916 3.43461 1.79957 5.01246 2.0978 6.49743C2.22017 7.10665 2.42816 7.6877 2.71626 8.23177L2.03353 7.96722L1.95253 9.10796C1.87044 10.2668 2.25626 11.6195 2.98477 12.7261C3.1899 13.0377 3.45401 13.38 3.78878 13.7176L3.43597 13.6635L3.86647 14.9706C4.43233 16.688 5.60763 18.0167 7.13288 18.7553C5.60961 19.4017 4.37907 19.8142 2.35641 20.4795L0.505859 21.0879L2.21511 22.0224C2.8668 22.3787 5.16964 23.5688 7.44497 23.9258C12.5027 24.719 18.1972 24.073 22.0308 20.6204C25.2598 17.7123 26.3193 13.5756 26.0992 9.27083C26.066 8.61913 26.2445 7.99715 26.6019 7.51977C27.3179 6.5639 29.3496 3.77817 29.354 3.77179ZM25.2503 6.50734C24.6567 7.29989 24.3594 8.3121 24.4127 9.35711C24.6347 13.6993 23.4533 17.0668 20.9008 19.3654C17.9192 22.0508 13.11 23.1048 7.70666 22.2572C6.72813 22.1038 5.7168 21.7603 4.87978 21.4171C6.5756 20.8337 7.88516 20.3136 10 19.3126L12.9524 17.9152L9.69279 17.7066C8.13144 17.6067 6.83135 16.85 6.03219 15.6214C6.45653 15.5968 6.86569 15.5281 7.27308 15.4145L10.3819 14.5487L7.24711 13.781C5.72384 13.4079 4.85557 12.4965 4.39535 11.7975C4.09317 11.3382 3.89574 10.8676 3.77733 10.4338C4.09162 10.5181 4.45808 10.5782 5.04903 10.6367L7.95053 10.9237L5.65165 9.13041C3.99522 7.83846 3.33142 5.89746 3.81805 4.0315C8.98761 9.39342 15.0574 8.99043 15.6683 9.13217C15.5339 7.82592 15.5303 7.82284 15.4951 7.69848C14.7127 4.93257 16.4274 3.52815 17.2008 3.05275C18.8163 2.0599 21.3806 1.91024 23.1568 3.54598C23.5404 3.89901 24.0592 4.03788 24.5447 3.91727C24.9805 3.80899 25.3381 3.69432 25.6883 3.56953L24.9594 5.65117L25.8899 5.65183C25.7143 5.88733 25.5037 6.16927 25.2503 6.50734Z" fill="#25B4B6"/>
</svg>
