<svg width="25" height="20" viewBox="0 0 25 20" fill="none" xmlns="http://www.w3.org/2000/svg">
<path d="M24.0223 3.77468C23.8849 3.56048 23.6333 3.43907 23.3715 3.46082L22.2122 3.55756L23.3203 1.41764C23.4523 1.16277 23.4001 0.855702 23.1907 0.65399C22.9812 0.452278 22.661 0.40086 22.3943 0.525968L19.4613 1.90193C17.6493 0.985551 15.3855 1.25756 13.8277 2.61691C12.5276 3.7514 11.8443 5.49608 11.9717 7.23593C8.57367 6.90967 5.69739 5.0465 3.99659 2.036C3.88374 1.83629 3.67218 1.70566 3.43572 1.68961C3.19882 1.67382 2.97059 1.77439 2.82954 1.95696C1.77466 3.3221 1.70064 5.19384 2.52761 6.73371C2.29965 6.67856 2.05707 6.60391 1.78806 6.51782C1.5576 6.444 1.30353 6.49129 1.11857 6.64232C0.933616 6.79335 0.844703 7.02612 0.884255 7.25585C1.21148 9.1563 2.36835 10.6169 4.19585 11.4814C3.9579 11.5608 3.71509 11.6253 3.46819 11.6745C3.22289 11.7235 3.02426 11.8954 2.94865 12.1243C2.87305 12.3531 2.93217 12.6032 3.10337 12.7785C4.4194 14.1261 6.32046 14.7893 7.67078 15.1075C6.13546 16.2592 4.47812 16.452 2.06983 16.3728C1.79105 16.3647 1.53421 16.5151 1.41701 16.7572C1.29985 16.9993 1.34531 17.2851 1.53253 17.4828C2.53646 18.5429 6.19408 19.7382 10.0391 19.8278C10.1911 19.8313 10.3463 19.8333 10.5047 19.8333C13.2043 19.8332 16.7723 19.2788 19.3333 16.8255C21.2717 14.9687 22.4842 12.831 22.9369 10.4722C23.3025 8.56696 23.0714 7.04131 22.9604 6.30806C22.9522 6.25416 22.9435 6.19696 22.9364 6.14693L24.0209 4.4726C24.1592 4.25901 24.1598 3.98887 24.0223 3.77468ZM21.588 6.49877C21.7938 7.85703 22.4198 11.9903 18.3528 15.8862C15.9887 18.1508 12.5454 18.5575 10.0728 18.4999C7.96295 18.4508 6.07579 18.0642 4.70803 17.6234C5.26335 17.5581 5.75823 17.4575 6.22537 17.3184C7.51316 16.9349 8.6011 16.245 9.64908 15.1471C9.82378 14.9641 9.87745 14.7031 9.7884 14.4703C9.69935 14.2375 9.48229 14.0716 9.22554 14.0401C8.56441 13.9589 6.57789 13.6386 5.0136 12.6049C5.46439 12.4283 5.89914 12.2073 6.31428 11.9435C6.54202 11.7987 6.65981 11.5394 6.61495 11.2811C6.57013 11.0229 6.37118 10.8139 6.1068 10.7475C4.82646 10.426 3.28124 9.70645 2.56871 8.10028C3.02372 8.17667 3.51846 8.19516 4.04613 8.08184C4.29071 8.02938 4.4867 7.8545 4.55863 7.62447C4.63061 7.39444 4.56739 7.1451 4.39329 6.9724C3.5067 6.09273 3.17516 4.82504 3.45961 3.74027C4.39116 5.04446 5.57133 6.14206 6.92346 6.95357C8.65319 7.99171 10.672 8.56543 12.7619 8.61255C12.9745 8.61685 13.1785 8.52794 13.3139 8.37012C13.4492 8.21234 13.5013 8.00367 13.455 7.80431C13.0955 6.2559 13.6083 4.60523 14.7615 3.59893C15.9576 2.55514 17.7254 2.3968 19.0603 3.21413C19.2642 3.33893 19.5213 3.35289 19.7387 3.25093L21.1709 2.57893L20.4213 4.02667C20.3099 4.24178 20.3284 4.49774 20.4696 4.69606C20.6109 4.89438 20.8525 5.00448 21.1026 4.98347L22.1126 4.89921L21.6473 5.61762C21.4911 5.85874 21.5235 6.07268 21.588 6.49877Z" fill="white"/>
</svg>
