<svg width="22" height="26" viewBox="0 0 22 26" fill="none" xmlns="http://www.w3.org/2000/svg">
<path fill-rule="evenodd" clip-rule="evenodd" d="M14.8891 12.8203C13.7379 13.5895 12.3845 14 11.0001 14C9.1442 13.9979 7.36497 13.2597 6.05268 11.9474C4.74038 10.6351 4.0022 8.85587 4.00005 7.00001C4.00005 5.61554 4.4106 4.26216 5.17977 3.11101C5.94894 1.95987 7.04219 1.06266 8.32127 0.532847C9.60036 0.003033 11.0078 -0.135591 12.3657 0.134506C13.7236 0.404603 14.9708 1.07129 15.9498 2.05026C16.9288 3.02923 17.5955 4.27651 17.8656 5.63438C18.1357 6.99225 17.997 8.39971 17.4672 9.6788C16.9374 10.9579 16.0402 12.0511 14.8891 12.8203ZM13.7779 2.84266C12.9557 2.29325 11.989 2.00001 11.0001 2.00001C9.67446 2.00157 8.40359 2.52885 7.46625 3.4662C6.5289 4.40354 6.00162 5.67441 6.00006 7.00001C6.00006 7.98892 6.2933 8.95562 6.84271 9.77786C7.39212 10.6001 8.17301 11.241 9.08664 11.6194C10.0003 11.9979 11.0056 12.0969 11.9755 11.9039C12.9454 11.711 13.8363 11.2348 14.5356 10.5355C15.2349 9.83628 15.7111 8.94537 15.904 7.97546C16.0969 7.00556 15.9979 6.00022 15.6195 5.08659C15.241 4.17296 14.6002 3.39207 13.7779 2.84266ZM18.4115 12.9592C18.5338 13.0109 18.6446 13.0863 18.7374 13.1812C19.7746 14.2014 20.5976 15.4186 21.1579 16.7612C21.7182 18.1039 22.0045 19.5451 22.0001 21C22.0001 24.2476 16.3331 26 11.0001 26C5.66705 26 4.72117e-05 24.2476 4.72117e-05 21C-0.00420087 19.5548 0.278272 18.1232 0.831111 16.7879C1.38395 15.4527 2.19617 14.2403 3.22075 13.2212C3.31317 13.1264 3.42349 13.0509 3.54531 12.999C3.66714 12.9472 3.79804 12.9201 3.93043 12.9193C4.06281 12.9184 4.19405 12.9439 4.31652 12.9942C4.43899 13.0444 4.55026 13.1185 4.64387 13.2121C4.73748 13.3058 4.81158 13.417 4.86185 13.5395C4.91213 13.662 4.93758 13.7932 4.93674 13.9256C4.9359 14.058 4.90879 14.1889 4.85696 14.3107C4.80514 14.4325 4.72964 14.5428 4.63485 14.6353C3.79676 15.4689 3.13235 16.4605 2.68009 17.5527C2.22782 18.6448 1.99668 19.8159 2.00005 20.998C2.00005 22.2222 5.50595 24 11.0001 24C16.4942 24 20.0001 22.2231 20.0001 21C20.0036 19.8097 19.7693 18.6307 19.311 17.5322C18.8527 16.4337 18.1796 15.4378 17.3312 14.603C17.2353 14.5112 17.1586 14.4013 17.1057 14.2796C17.0527 14.1579 17.0245 14.0269 17.0226 13.8942C17.0208 13.7615 17.0454 13.6298 17.095 13.5067C17.1446 13.3836 17.2182 13.2716 17.3116 13.1773C17.4049 13.0829 17.516 13.0081 17.6386 12.9571C17.7611 12.9062 17.8926 12.8801 18.0253 12.8805C18.158 12.8808 18.2893 12.9076 18.4115 12.9592Z" fill="#1D2338"/>
</svg>
