<svg width="94" height="94" viewBox="0 0 94 94" fill="none" xmlns="http://www.w3.org/2000/svg">
<path d="M0.000803709 1.04009C0.0525669 2.33038 0.143365 3.61966 0.273056 4.9073L2.26299 4.70687C2.13731 3.45909 2.04934 2.20991 1.9992 0.959915L0.000803709 1.04009ZM1.50497 12.5554C2.0588 15.0522 2.75973 17.5376 3.60651 20.007L5.49837 19.3582C4.67533 16.9581 3.99483 14.5447 3.45752 12.1223L1.50497 12.5554ZM6.49946 27.1828C7.56802 29.4841 8.76578 31.7669 10.0916 34.0274L11.8168 33.0156C10.5223 30.8085 9.35433 28.5822 8.31344 26.3405L6.49946 27.1828ZM14.2881 40.5081C15.7491 42.5659 17.3199 44.6013 18.9995 46.6116L20.5343 45.3293C18.8872 43.3579 17.3486 41.3639 15.9188 39.3502L14.2881 40.5081ZM24.147 52.3392C25.8937 54.1514 27.7329 55.9397 29.664 57.7017L31.0121 56.2243C29.1116 54.4902 27.3031 52.7317 25.587 50.9512L24.147 52.3392ZM35.4966 62.716C37.4532 64.3029 39.4885 65.8654 41.602 67.4015L42.7779 65.7837C40.6921 64.2677 38.6849 62.7268 36.7565 61.1627L35.4966 62.716ZM47.9178 71.7595C50.0228 73.1393 52.1951 74.4948 54.4344 75.8245L55.4556 74.1049C53.2411 72.7899 51.0938 71.45 49.0142 70.0868L47.9178 71.7595ZM61.113 79.6057C63.3283 80.8016 65.602 81.9738 67.9337 83.121L68.8166 81.3264C66.507 80.1901 64.2557 79.0295 62.0631 77.8458L61.113 79.6057ZM74.8708 86.3824C77.1722 87.416 79.5248 88.4264 81.9285 89.4126L82.6876 87.5623C80.3038 86.5842 77.9713 85.5824 75.6903 84.5579L74.8708 86.3824ZM89.0517 92.2075C90.2438 92.6545 91.4475 93.0959 92.6626 93.5314L93.3374 91.6487C92.1313 91.2164 90.9368 90.7784 89.754 90.3348L89.0517 92.2075Z" fill="#1D2338"/>
</svg>
