<svg width="190" height="35" viewBox="0 0 190 35" fill="none" xmlns="http://www.w3.org/2000/svg">
<path d="M190 29L180.014 23.202L179.986 34.749L190 29ZM0.668645 1.94351C1.9216 2.38354 3.18333 2.81923 4.4538 3.25053L5.09672 1.35668C3.83281 0.927615 2.57768 0.494199 1.33136 0.0564939L0.668645 1.94351ZM12.0695 5.74948C14.5941 6.54988 17.1514 7.33335 19.7413 8.09947L20.3086 6.18162C17.731 5.41913 15.1861 4.63944 12.6739 3.84299L12.0695 5.74948ZM27.4425 10.2995C29.997 11.0039 32.5817 11.6918 35.1963 12.3628L35.6935 10.4256C33.0902 9.7575 30.5171 9.07267 27.9741 8.37147L27.4425 10.2995ZM42.9685 14.2862C45.5462 14.9009 48.1518 15.4996 50.7851 16.0818L51.2168 14.129C48.5942 13.5491 45.9993 12.9529 43.4324 12.3408L42.9685 14.2862ZM58.6181 17.7482C61.2136 18.279 63.835 18.7942 66.482 19.2934L66.8527 17.3281C64.2156 16.8307 61.6043 16.3175 59.0188 15.7888L58.6181 17.7482ZM74.3692 20.7202C76.9783 21.1723 79.6114 21.6093 82.2685 22.0307L82.5818 20.0554C79.9341 19.6354 77.3104 19.2001 74.7108 18.7495L74.3692 20.7202ZM90.1931 23.2311C92.8166 23.61 95.4625 23.974 98.1308 24.3229L98.3901 22.3398C95.7306 21.992 93.0935 21.6292 90.479 21.2516L90.1931 23.2311ZM106.076 25.309C108.709 25.6185 111.363 25.9135 114.039 26.1938L114.247 24.2047C111.58 23.9253 108.934 23.6312 106.309 23.3227L106.076 25.309ZM122.016 26.9798C124.655 27.2235 127.313 27.4531 129.992 27.6683L130.152 25.6748C127.481 25.4602 124.831 25.2313 122.2 24.9883L122.016 26.9798ZM137.976 28.2631C140.622 28.4449 143.286 28.6128 145.969 28.7667L146.084 26.77C143.408 26.6165 140.751 26.4491 138.113 26.2678L137.976 28.2631ZM153.971 29.1812C156.622 29.304 159.291 29.4133 161.978 29.5088L162.049 27.5101C159.369 27.4148 156.707 27.3058 154.063 27.1834L153.971 29.1812ZM169.977 29.7513C172.629 29.8178 175.296 29.8711 177.981 29.9111L178.011 27.9113C175.333 27.8715 172.672 27.8183 170.028 27.7519L169.977 29.7513Z" fill="white"/>
</svg>
