<svg width="24" height="25" viewBox="0 0 24 25" fill="none" xmlns="http://www.w3.org/2000/svg">
<path fill-rule="evenodd" clip-rule="evenodd" d="M12.3615 0.875C15.4706 0.875 18.3928 2.04768 20.5911 4.17735C22.7895 6.30684 24 9.13823 24 12.15C24 15.1616 22.7893 17.993 20.5911 20.1225C18.3928 22.252 15.4702 23.4249 12.3615 23.4249C10.5075 23.4249 8.6651 22.9915 7.02356 22.1704L1.43482 24.0654C1.31653 24.1055 1.19532 24.125 1.07538 24.125C0.795596 24.125 0.523501 24.0186 0.316775 23.8181C0.021243 23.532 -0.0763522 23.1169 0.0615262 22.735L2.01782 17.3209C1.17023 15.7307 0.722903 13.9459 0.722903 12.1498C0.722903 9.13823 1.93341 6.30684 4.13159 4.17735C5.21906 3.12387 6.48908 2.30134 7.90668 1.73247C9.3241 1.1636 10.8226 0.875177 12.3604 0.875H12.3615ZM12.3615 22.0611C15.0941 22.0611 17.6635 21.0304 19.5958 19.1583C21.5283 17.2863 22.5925 14.7973 22.5925 12.1498C22.5925 9.5024 21.5283 7.01353 19.5958 5.1416C17.6635 3.2695 15.0943 2.23855 12.3615 2.23855H12.3605C9.62805 2.2389 7.05908 3.26985 5.12696 5.1416C3.19464 7.01353 2.13043 9.50257 2.13043 12.1498C2.13043 13.7695 2.54407 15.3784 3.32648 16.8024C3.4682 17.0605 3.49274 17.3658 3.39368 17.6402L1.61646 22.5591L6.69397 20.8376C6.97687 20.7416 7.292 20.7652 7.5586 20.9025C9.02893 21.6606 10.6897 22.0611 12.3615 22.0611ZM14.7448 13.157C15.2802 12.6384 16.1514 12.6384 16.6868 13.157L18.2648 14.6859C18.5243 14.9371 18.6671 15.2711 18.6671 15.6266C18.6671 15.9819 18.5243 16.3159 18.2648 16.5672V16.567L17.0025 17.7901C16.6229 18.1578 16.1 18.3421 15.467 18.3421C14.894 18.3421 14.231 18.1912 13.5021 17.8886C12.17 17.3355 10.7059 16.3233 9.37962 15.0385C8.05339 13.7537 7.00859 12.3354 6.43767 11.0449C5.78014 9.55863 5.81621 8.35437 6.53929 7.65388L7.80162 6.431C8.33702 5.91233 9.20824 5.91233 9.74364 6.431L11.3216 7.95969C11.8572 8.47836 11.8572 9.32235 11.3216 9.84102L10.7361 10.4083C11.5285 11.8169 12.7052 12.9568 14.1592 13.7243L14.7448 13.157ZM14.0567 16.6353C15.1661 17.0958 15.8008 17.0258 16.0071 16.8258L17.2453 15.6266L15.7158 14.1449L14.9828 14.8549C14.6514 15.1762 14.1488 15.2535 13.7319 15.0476C11.8422 14.114 10.334 12.6529 9.37029 10.8223C9.1577 10.4186 9.23772 9.93166 9.56914 9.6106L10.3021 8.90036L8.77281 7.41867L7.53465 8.61814C7.32829 8.81805 7.25597 9.43304 7.73149 10.5078C8.23357 11.6427 9.17235 12.9092 10.375 14.0743C11.5776 15.2393 12.8852 16.149 14.0567 16.6353Z" fill="white"/>
</svg>
