<svg width="29" height="29" viewBox="0 0 29 29" fill="none" xmlns="http://www.w3.org/2000/svg">
<path fill-rule="evenodd" clip-rule="evenodd" d="M15.0108 0C18.748 0 22.2605 1.45504 24.9029 4.09748C27.5453 6.73971 29.0004 10.2528 29.0004 13.9898C29.0004 17.7266 27.5451 21.2397 24.9029 23.8819C22.2605 26.5241 18.7475 27.9794 15.0108 27.9794C12.7823 27.9794 10.5678 27.4417 8.59462 26.4229L1.87692 28.7742C1.73474 28.8239 1.58904 28.8481 1.44488 28.8481C1.10857 28.8481 0.781513 28.7161 0.533027 28.4674C0.177796 28.1123 0.0604862 27.5973 0.226217 27.1235L2.5777 20.4058C1.55888 18.4326 1.02119 16.218 1.02119 13.9896C1.02119 10.2528 2.47623 6.73971 5.11846 4.09748C6.42559 2.79035 7.95216 1.76977 9.65613 1.06393C11.3599 0.358092 13.1611 0.000220094 15.0095 0H15.0108ZM15.0108 26.2873C18.2955 26.2873 21.3838 25.0084 23.7065 22.6855C26.0293 20.3628 27.3085 17.2745 27.3085 13.9896C27.3085 10.7047 26.0293 7.61656 23.7065 5.29391C21.3838 2.97104 18.2957 1.69186 15.0108 1.69186H15.0097C11.7252 1.6923 8.63732 2.97148 6.31489 5.29391C3.99224 7.61656 2.71305 10.7049 2.71305 13.9896C2.71305 15.9993 3.21025 17.9955 4.15071 19.7624C4.32106 20.0827 4.35055 20.4614 4.23148 20.8019L2.09525 26.9051L8.19845 24.7691C8.53849 24.6501 8.91728 24.6793 9.23773 24.8497C11.0051 25.7904 13.0013 26.2873 15.0108 26.2873ZM17.8754 15.2392C18.5189 14.5957 19.5661 14.5957 20.2097 15.2392L22.1065 17.1362C22.4183 17.4478 22.59 17.8623 22.59 18.3034C22.59 18.7442 22.4183 19.1586 22.1065 19.4705V19.4703L20.5891 20.9878C20.1329 21.4441 19.5043 21.6728 18.7434 21.6728C18.0548 21.6728 17.2578 21.4855 16.3816 21.11C14.7804 20.4237 13.0206 19.1679 11.4264 17.5737C9.83228 15.9796 8.57643 14.2197 7.89017 12.6186C7.09982 10.7744 7.14318 9.28017 8.01233 8.41102L9.52965 6.8937C10.1732 6.25014 11.2204 6.25014 11.864 6.8937L13.7607 8.79046C14.4045 9.43402 14.4045 10.4812 13.7607 11.1248L13.0569 11.8286C14.0094 13.5764 15.4238 14.9907 17.1715 15.9431L17.8754 15.2392ZM17.0483 19.555C18.3818 20.1264 19.1447 20.0395 19.3927 19.7914L20.881 18.3034L19.0425 16.4649L18.1615 17.3459C17.7631 17.7445 17.159 17.8405 16.6578 17.585C14.3865 16.4266 12.5735 14.6137 11.4152 12.3423C11.1597 11.8414 11.2558 11.2372 11.6542 10.8389L12.5353 9.95762L10.697 8.11918L9.20876 9.60745C8.96071 9.8555 8.87377 10.6186 9.44536 11.9521C10.0489 13.3603 11.1773 14.9317 12.6228 16.3773C14.0684 17.8229 15.6401 18.9515 17.0483 19.555Z" fill="#25B4B6"/>
</svg>
