<svg width="23" height="22" viewBox="0 0 23 22" fill="none" xmlns="http://www.w3.org/2000/svg">
<path d="M22.0899 8.57099C22.0936 8.57413 22.095 8.57652 22.0953 8.57721L22.0972 8.58286C22.1009 8.59465 22.1002 8.6029 22.0991 8.60746C22.0981 8.6116 22.0966 8.61436 22.0934 8.61741L22.0922 8.61857L17.1555 13.4489L16.8183 13.7789L16.8978 14.2439L18.0623 21.0554C18.0623 21.0557 18.0624 21.0559 18.0624 21.0562C18.0647 21.0715 18.0597 21.0847 18.0508 21.0936C18.0486 21.0948 18.047 21.0954 18.0458 21.0957C18.0436 21.0964 18.0404 21.0971 18.0354 21.0971C18.0271 21.0971 18.0225 21.0962 18.0209 21.0959C18.0204 21.0957 18.02 21.0956 18.0199 21.0956L18.0199 21.0956L18.0197 21.0954L11.9213 17.8788L11.5016 17.6574L11.0818 17.8787L4.97982 21.0953L4.9798 21.0953L4.97385 21.0985C4.97223 21.0994 4.97126 21.0996 4.97064 21.0998C4.96988 21.0999 4.96867 21.1001 4.96695 21.1C4.96363 21.0997 4.95794 21.0984 4.95087 21.0933C4.94994 21.0926 4.94656 21.0899 4.94348 21.0823C4.94033 21.0744 4.93914 21.0652 4.94051 21.0561C4.94055 21.0559 4.94059 21.0556 4.94063 21.0554L6.10513 14.2439L6.18463 13.7789L5.84743 13.4489L0.91069 8.61857L0.910717 8.61854L0.90472 8.61278L0.904711 8.61277C0.904429 8.6125 0.902446 8.6106 0.901032 8.60486C0.899548 8.59883 0.899453 8.5912 0.902137 8.58286C0.903249 8.5794 0.905344 8.57568 0.909953 8.57181C0.914888 8.56766 0.920847 8.56501 0.927042 8.5641L7.74726 7.56968L8.21612 7.50132L8.42512 7.07609L11.458 0.905481C11.4593 0.905119 11.4607 0.904755 11.4622 0.904395C11.473 0.901767 11.4864 0.9 11.501 0.9C11.5157 0.9 11.5288 0.901768 11.5394 0.904328C11.5399 0.904455 11.5404 0.904583 11.5409 0.904712L14.578 7.07647L14.7871 7.50136L15.2557 7.56968L22.0759 8.5641C22.0792 8.56459 22.0846 8.56646 22.0899 8.57099Z" stroke="#1D2338" stroke-width="1.8"/>
</svg>
