<svg width="32" height="25" viewBox="0 0 32 25" fill="none" xmlns="http://www.w3.org/2000/svg">
<path fill-rule="evenodd" clip-rule="evenodd" d="M31.4807 6.23959L31.4821 6.25371C31.4913 6.35731 31.7091 8.81774 31.7093 11.2881V13.5973C31.7093 16.0676 31.4913 18.5281 31.4821 18.6317L31.4786 18.6632C31.4485 18.906 31.1525 21.0681 30.1295 22.1801C28.902 23.5307 27.5175 23.6777 26.8519 23.7484L26.8514 23.7484C26.7878 23.755 26.7299 23.7611 26.6783 23.768L26.6244 23.7736C22.5446 24.0703 16.3834 24.1108 16.3217 24.111L16.3123 24.1112L16.3029 24.111C15.9897 24.1065 8.60401 23.9961 6.24837 23.772L6.17703 23.7621C6.10528 23.7495 6.00094 23.7375 5.87965 23.7237L5.86977 23.7225C5.07584 23.6316 3.59983 23.4626 2.43248 22.185C1.36332 21.0608 1.10339 18.8918 1.07725 18.6474L1.0756 18.6319C1.06642 18.5283 0.848633 16.0676 0.848633 13.5973V11.2881C0.848633 8.81774 1.06642 6.35708 1.0756 6.25371L1.07914 6.22216C1.10951 5.97918 1.40523 3.81707 2.42825 2.70528C3.67329 1.33568 5.06572 1.17487 5.73486 1.09764C5.74425 1.09655 5.7535 1.09548 5.76262 1.09442C5.80448 1.08957 5.84346 1.08505 5.87942 1.08022L5.93381 1.07457C10.0504 0.777906 16.2118 0.737409 16.2735 0.737174L16.2789 0.736938L16.2843 0.737174C16.346 0.737409 22.5074 0.777906 26.5872 1.07457L26.6411 1.08022C26.687 1.08634 26.7384 1.09223 26.7944 1.09859C27.4713 1.17558 28.8788 1.33615 30.1203 2.65796C31.1944 3.78175 31.4546 5.99119 31.4807 6.23959ZM29.6822 18.4546C29.701 18.2385 29.9006 15.8838 29.9006 13.5973V11.2881C29.9006 8.96466 29.6951 6.57698 29.6814 6.42277C29.6045 5.71807 29.3014 4.41652 28.8117 3.9063L28.8044 3.89853C28.0164 3.05798 27.1577 2.96004 26.5896 2.89529L26.5865 2.89493C26.5304 2.88848 26.4783 2.88246 26.4304 2.87645C22.4624 2.58968 16.4931 2.54683 16.2789 2.54541L16.2707 2.54547C15.9454 2.54794 10.0532 2.59254 6.08968 2.87645C6.04803 2.88185 6.00323 2.88704 5.95543 2.89259L5.94229 2.89411C5.38993 2.95792 4.5548 3.05445 3.76276 3.92561C3.28504 4.445 2.96718 5.73008 2.87559 6.43148C2.85629 6.65209 2.6571 9.00421 2.6571 11.2881V13.5973C2.6571 15.9158 2.86194 18.2983 2.8763 18.4617C2.95329 19.1525 3.25631 20.4317 3.74604 20.9419L3.76276 20.9598C4.47419 21.7423 5.39936 21.8483 6.07531 21.9258L6.07555 21.9258C6.20881 21.9409 6.33525 21.9555 6.45227 21.9746C8.7361 22.1867 16.0138 22.2981 16.3201 22.3025C16.5932 22.3009 22.522 22.2571 26.4681 21.9717C26.5265 21.9644 26.591 21.9574 26.6607 21.9501C27.237 21.8891 28.0265 21.8053 28.795 20.9598C29.2934 20.418 29.6054 19.0501 29.6822 18.4546ZM14.2113 7.31302L21.0291 11.0435C21.4326 11.2643 21.6822 11.6869 21.6806 12.1468C21.6787 12.6066 21.426 13.0273 21.0213 13.2451L14.2032 16.9113C14.0161 17.0121 13.8126 17.0622 13.6097 17.0622C13.3881 17.0622 13.167 17.0024 12.9676 16.8833C12.5857 16.6551 12.3578 16.2532 12.3578 15.8084V8.41162C12.3578 7.96474 12.5871 7.56212 12.9716 7.33421C13.3559 7.10653 13.8192 7.09853 14.2113 7.31302ZM14.1663 9.34964V14.878L19.2618 12.1378L14.1663 9.34964Z" fill="#25B4B6"/>
</svg>
