<svg width="24" height="19" viewBox="0 0 24 19" fill="none" xmlns="http://www.w3.org/2000/svg">
<path fill-rule="evenodd" clip-rule="evenodd" d="M23.8223 4.60388L23.8234 4.61452C23.8305 4.69257 23.9999 6.54623 24.0001 8.40734V10.1471C24.0001 12.0082 23.8305 13.8619 23.8234 13.9399L23.8206 13.9637C23.7972 14.1466 23.567 15.7755 22.7715 16.6133C21.8168 17.6308 20.7401 17.7415 20.2225 17.7948L20.2221 17.7948C20.1727 17.7998 20.1276 17.8044 20.0875 17.8095L20.0456 17.8138C16.8727 18.0373 12.0813 18.0678 12.0333 18.068L12.026 18.0682L12.0186 18.068C11.7751 18.0646 6.03129 17.9814 4.19932 17.8126L4.14384 17.8051C4.08804 17.7956 4.0069 17.7866 3.91258 17.7762L3.90489 17.7753C3.28746 17.7068 2.13958 17.5795 1.23175 16.617C0.400267 15.77 0.198119 14.1359 0.177795 13.9518L0.176513 13.9401C0.169372 13.8621 0 12.0082 0 10.1471V8.40734C0 6.54623 0.169372 4.69239 0.176513 4.61452L0.17926 4.59075C0.20288 4.40769 0.43286 2.77878 1.22845 1.94118C2.19671 0.909338 3.27959 0.788185 3.79997 0.730003C3.80727 0.729179 3.81447 0.728371 3.82156 0.727575C3.85412 0.723921 3.88443 0.720519 3.9124 0.716877L3.9547 0.71262C7.1561 0.489117 11.9478 0.458607 11.9957 0.458429L12 0.458252L12.0042 0.458429C12.0521 0.458607 16.8438 0.489117 20.0166 0.71262L20.0586 0.716877C20.0943 0.721489 20.1342 0.725924 20.1778 0.730713C20.7042 0.788717 21.7988 0.909693 22.7643 1.90552C23.5996 2.75217 23.802 4.41674 23.8223 4.60388ZM22.4236 13.8065C22.4382 13.6437 22.5935 11.8697 22.5935 10.1471V8.40734C22.5935 6.65692 22.4336 4.85807 22.423 4.74188C22.3631 4.21098 22.1275 3.2304 21.7466 2.84601L21.7409 2.84016C21.1281 2.2069 20.4603 2.13311 20.0185 2.08433L20.016 2.08405C19.9725 2.07919 19.9319 2.07466 19.8947 2.07014C16.8088 1.85408 12.1666 1.8218 12 1.82073L11.9936 1.82078C11.7406 1.82264 7.1583 1.85624 4.07591 2.07014C4.04353 2.0742 4.00868 2.07811 3.97152 2.08229L3.96129 2.08344C3.53172 2.13151 2.88225 2.20424 2.26629 2.86056C1.89477 3.25186 1.64758 4.22002 1.57635 4.74845C1.56133 4.91466 1.40643 6.68672 1.40643 8.40734V10.1471C1.40643 11.8938 1.56573 13.6887 1.5769 13.8119C1.63677 14.3323 1.87243 15.296 2.25329 15.6804L2.26629 15.6939C2.81956 16.2834 3.53906 16.3633 4.06474 16.4217L4.06493 16.4217C4.16856 16.433 4.26689 16.444 4.35789 16.4584C6.13401 16.6182 11.7938 16.7021 12.032 16.7055C12.2444 16.7043 16.8552 16.6713 19.924 16.4563C19.9694 16.4508 20.0196 16.4455 20.0738 16.44C20.522 16.394 21.136 16.3309 21.7336 15.6939C22.1213 15.2857 22.3639 14.2551 22.4236 13.8065ZM10.3919 5.41256L15.6941 8.22302C16.0079 8.38941 16.202 8.70781 16.2008 9.05424C16.1993 9.40067 16.0028 9.71765 15.6881 9.88173L10.3857 12.6438C10.2402 12.7197 10.0819 12.7575 9.92411 12.7575C9.75181 12.7575 9.57987 12.7124 9.42479 12.6227C9.12779 12.4508 8.95054 12.148 8.95054 11.8129V6.24023C8.95054 5.90355 9.12889 5.60023 9.4279 5.42852C9.72672 5.25699 10.0871 5.25096 10.3919 5.41256ZM10.357 6.94692V11.1119L14.3197 9.0475L10.357 6.94692Z" fill="white"/>
</svg>
